<?xml version="1.0" encoding="UTF-8"?>
<svg version="1.1" xmlns="http://www.w3.org/2000/svg" width="512" height="512">
<path d="M0 0 C1.21357178 0.33862061 1.21357178 0.33862061 2.45166016 0.68408203 C37.63574916 10.81412139 66.48898025 33.07613039 84.875 64.875 C96.67231656 86.27274484 101.18751128 109.32403412 101.09765625 133.53515625 C101.09578768 135.02444918 101.09436585 136.51374273 101.09336853 138.0030365 C101.08957789 141.89425397 101.0797777 145.78543322 101.06866455 149.67663574 C101.05837559 153.65876753 101.05385498 157.64090558 101.04882812 161.62304688 C101.03815182 169.41538187 101.02111764 177.20768555 101 185 C102.51436646 184.97172119 102.51436646 184.97172119 104.05932617 184.94287109 C105.40803544 184.92761818 106.75675004 184.91283185 108.10546875 184.8984375 C109.42442139 184.87958496 110.74337402 184.86073242 112.10229492 184.84130859 C124.97081255 185.36523822 136.28769738 192.4451725 144.9609375 201.578125 C152.97875117 211.10119871 157.13764419 222.1132417 157.11352539 234.53442383 C157.11344986 235.83539505 157.11337433 237.13636627 157.11329651 238.47676086 C157.10819062 239.88685139 157.10297464 241.29694151 157.09765625 242.70703125 C157.09578979 244.15720063 157.09436696 245.60737065 157.09336853 247.05754089 C157.0895613 250.86332966 157.07974642 254.66907991 157.06866455 258.47485352 C157.05841177 262.36278767 157.05386264 266.25072808 157.04882812 270.13867188 C157.03812246 277.75913209 157.0210677 285.37956064 157 293 C157.9606839 293.1326828 158.9213678 293.2653656 159.91116333 293.40206909 C161.17169525 293.57860016 162.43222717 293.75513123 163.73095703 293.93701172 C165.60510788 294.19791092 165.60510788 294.19791092 167.51712036 294.46408081 C193.50210173 298.46245331 216.82761415 314.7916233 233 335 C251.33250442 360.19560051 258.13714033 390.02286203 253.39794922 420.7578125 C251.14665516 433.44240432 246.26145317 444.81419093 240 456 C239.44441406 456.99773437 238.88882812 457.99546875 238.31640625 459.0234375 C223.91527249 483.12893239 199.2090036 499.81801162 172.375 506.9375 C144.20866646 513.66099124 114.65853486 508.95192644 89.6796875 494.68359375 C80.36856153 488.83360061 72.52124009 481.9705177 65 474 C60.29836476 475.42058611 56.08268981 477.41510265 51.75 479.6875 C37.12231645 487.13676752 22.02646628 492.46767662 6 496 C5.278125 496.16516113 4.55625 496.33032227 3.8125 496.50048828 C-28.66039559 503.61128766 -64.90736717 499.85210251 -96 489 C-96.97573975 488.66427979 -96.97573975 488.66427979 -97.97119141 488.32177734 C-139.87827775 473.59766592 -176.13755779 442.48164346 -198 404 C-198.65355469 402.87851562 -199.30710937 401.75703125 -199.98046875 400.6015625 C-210.63906522 381.84717674 -217.04725332 360.98851977 -220.75 339.8125 C-220.86577393 339.16128174 -220.98154785 338.51006348 -221.10083008 337.83911133 C-223.31083569 324.02279487 -223.16194577 309.87457509 -223.16796875 295.921875 C-223.17119363 294.13502986 -223.17455856 292.34818496 -223.17805481 290.56134033 C-223.18398832 286.84687691 -223.18590042 283.13243657 -223.18530273 279.41796875 C-223.18520071 274.68891747 -223.19892008 269.96001495 -223.21607494 265.23099899 C-223.22725173 261.55213759 -223.22922031 257.87331175 -223.22869301 254.19443512 C-223.22986198 252.45154553 -223.23422181 250.70865468 -223.24202538 248.96578217 C-223.31871658 230.09313206 -221.71222983 213.29060156 -208 199 C-198.27028139 189.66406427 -187.16174617 184.81157247 -173.6875 184.9375 C-172.43324219 184.94652344 -171.17898437 184.95554688 -169.88671875 184.96484375 C-168.45779297 184.98224609 -168.45779297 184.98224609 -167 185 C-167.00444122 184.29050705 -167.00888245 183.5810141 -167.01345825 182.85002136 C-167.05399907 176.07182022 -167.08421534 169.29363782 -167.10362434 162.51534557 C-167.11393899 159.03288167 -167.12786399 155.5505202 -167.15087891 152.06811523 C-167.40559837 112.41668074 -167.40559837 112.41668074 -162.8125 96.375 C-162.59819336 95.60124023 -162.38388672 94.82748047 -162.16308594 94.03027344 C-153.0550159 62.40324099 -132.88081561 34.6723918 -105 17 C-103.89269531 16.29359375 -102.78539062 15.5871875 -101.64453125 14.859375 C-72.56249006 -2.67686158 -33.00578067 -9.33803123 0 0 Z M-97.13671875 72.8984375 C-125.37859851 104.75196226 -119 143.88341521 -119 185 C-62.24 185 -5.48 185 53 185 C55.75936603 118.83916795 55.75936603 118.83916795 26 67 C11.86618027 53.55067154 -8.4901726 44.84031092 -28 44 C-29.12535156 43.94005859 -29.12535156 43.94005859 -30.2734375 43.87890625 C-56.26586879 43.16390409 -79.3554777 54.44015521 -97.13671875 72.8984375 Z " fill="#FCB341" transform="translate(240,3)"/>
<path d="M0 0 C0.99338379 0.29003906 0.99338379 0.29003906 2.00683594 0.5859375 C18.99406842 5.679749 33.02587432 13.98886611 46 26 C47.23169922 27.10988281 47.23169922 27.10988281 48.48828125 28.2421875 C68.64248481 47.24770588 78.62179886 75.19237946 80.12890625 102.3203125 C80.65646212 123.07084323 75.05448013 142.03811608 65 160 C64.44441406 160.99773437 63.88882813 161.99546875 63.31640625 163.0234375 C48.91527249 187.12893239 24.2090036 203.81801162 -2.625 210.9375 C-30.78470683 217.6594094 -60.35422417 212.95882514 -85.32421875 198.6796875 C-113.56156819 180.95405208 -129.20735945 154.50543637 -136.53979492 122.65527344 C-141.26352656 95.40046954 -134.67370568 66.78084904 -119.15722656 44.10791016 C-117.18058749 41.34016383 -115.1115347 38.66682942 -113 36 C-112.40574219 35.23429687 -111.81148438 34.46859375 -111.19921875 33.6796875 C-97.13726223 16.56370224 -76.86840026 6.05631187 -56 0 C-54.81921875 -0.34417969 -53.6384375 -0.68835938 -52.421875 -1.04296875 C-35.85154476 -5.0720559 -16.35412833 -4.82940702 0 0 Z " fill="#01CFFA" transform="translate(415,299)"/>
<path d="M0 0 C1.21357178 0.33862061 1.21357178 0.33862061 2.45166016 0.68408203 C37.63574916 10.81412139 66.48898025 33.07613039 84.875 64.875 C96.67231656 86.27274484 101.18751128 109.32403412 101.09765625 133.53515625 C101.09578768 135.02444918 101.09436585 136.51374273 101.09336853 138.0030365 C101.08957789 141.89425397 101.0797777 145.78543322 101.06866455 149.67663574 C101.0565618 154.36075806 101.05203173 159.04489327 101.04621124 163.72902679 C101.0365636 170.81937766 101.01738306 177.9096449 101 185 C85.16 185 69.32 185 53 185 C52.96132813 178.25755859 52.96132813 178.25755859 52.921875 171.37890625 C52.89664402 168.49408736 52.8702636 165.60936693 52.83984375 162.72460938 C52.79189584 158.16756106 52.74770969 153.61074127 52.72900391 149.0534668 C52.59204748 117.95622138 48.87051447 91.34582825 26 68 C11.5401687 54.69541487 -8.24291718 45.8509605 -28 45 C-28.75023437 44.96003906 -29.50046875 44.92007813 -30.2734375 44.87890625 C-55.28060679 44.19100677 -76.83731335 54.51210243 -94.6875 71.375 C-112.67977969 90.16600239 -117.98353842 113.78909261 -118.31640625 139.00390625 C-118.33718735 140.32293442 -118.35796844 141.64196259 -118.37937927 143.0009613 C-118.4341089 146.47782612 -118.48373093 149.95474505 -118.53222656 153.43170166 C-118.58280437 156.99162502 -118.63825261 160.55147246 -118.69335938 164.11132812 C-118.8007917 171.07415901 -118.90019543 178.03703894 -119 185 C-134.84 185 -150.68 185 -167 185 C-167.0422667 177.51175038 -167.08229695 170.02394804 -167.10350037 162.53568268 C-167.11393967 159.04644011 -167.12781919 155.55729916 -167.15087891 152.06811523 C-167.40559837 112.41668074 -167.40559837 112.41668074 -162.8125 96.375 C-162.59819336 95.60124023 -162.38388672 94.82748047 -162.16308594 94.03027344 C-153.0550159 62.40324099 -132.88081561 34.6723918 -105 17 C-103.89269531 16.29359375 -102.78539062 15.5871875 -101.64453125 14.859375 C-72.56249006 -2.67686158 -33.00578067 -9.33803123 0 0 Z " fill="#DAD7EC" transform="translate(240,3)"/>
<path d="M0 0 C0.65613281 0.53238281 1.31226563 1.06476563 1.98828125 1.61328125 C2.92607422 2.36544922 2.92607422 2.36544922 3.8828125 3.1328125 C10.4559379 9.01855223 15.69938653 18.40762071 16.19140625 27.2734375 C16.43877247 41.000697 14.59229719 51.16965521 5.11328125 61.6953125 C0.60879918 66.30302229 0.60879918 66.30302229 -2.01171875 67.61328125 C-1.84043457 68.72662842 -1.66915039 69.83997559 -1.49267578 70.98706055 C-0.43522135 77.86051432 0.62223307 84.7339681 1.6796875 91.60742188 C1.81256165 92.47062042 1.94543579 93.33381897 2.08233643 94.22317505 C2.34720605 95.94580212 2.61149076 97.66851923 2.87518311 99.3913269 C3.44660694 103.12077882 4.02254709 106.84896549 4.62988281 110.57275391 C4.81260742 111.70632324 4.99533203 112.83989258 5.18359375 114.0078125 C5.41973389 115.43830933 5.41973389 115.43830933 5.66064453 116.89770508 C6.0154405 119.83838729 6.1113438 122.65418622 5.98828125 125.61328125 C4.24528737 127.35627513 1.84421873 126.74086807 -0.52539062 126.74267578 C-1.70331177 126.74582794 -2.88123291 126.7489801 -4.09484863 126.75222778 C-5.37710327 126.75020355 -6.65935791 126.74817932 -7.98046875 126.74609375 C-9.28624878 126.74705048 -10.59202881 126.7480072 -11.93737793 126.74899292 C-14.70484597 126.75046958 -17.47228179 126.74831636 -20.23974609 126.74365234 C-23.79434524 126.73795506 -27.34886889 126.74123423 -30.90346527 126.74722481 C-34.28330589 126.75169872 -37.66312598 126.74857011 -41.04296875 126.74609375 C-42.32522339 126.74811798 -43.60747803 126.75014221 -44.92858887 126.75222778 C-46.69547058 126.74749954 -46.69547058 126.74749954 -48.49804688 126.74267578 C-49.54093872 126.74188019 -50.58383057 126.74108459 -51.6583252 126.74026489 C-54.01171875 126.61328125 -54.01171875 126.61328125 -55.01171875 125.61328125 C-54.88051813 115.84743106 -53.27622843 106.26757343 -51.57421875 96.67578125 C-49.82503041 86.67374584 -48.28339883 76.68573819 -47.01171875 66.61328125 C-47.924375 66.18982422 -47.924375 66.18982422 -48.85546875 65.7578125 C-57.88001607 60.96760894 -61.85639555 51.32488772 -65.26171875 42.30078125 C-67.69990599 30.31302731 -65.48761972 19.5438232 -58.82421875 9.30078125 C-44.57546251 -9.66711435 -19.40350397 -14.29545174 0 0 Z " fill="#035F7F" transform="translate(232.01171875,269.38671875)"/>
<path d="M0 0 C1.14525146 0.00563965 2.29050293 0.0112793 3.47045898 0.01708984 C12.09816362 0.14050861 19.93551207 0.85721497 28.25 3.3125 C28.91225586 3.50585938 29.57451172 3.69921875 30.25683594 3.8984375 C47.24406842 8.992249 61.27587432 17.30136611 74.25 29.3125 C75.48169922 30.42238281 75.48169922 30.42238281 76.73828125 31.5546875 C96.89248481 50.56020588 106.87179886 78.50487946 108.37890625 105.6328125 C108.90646212 126.38334323 103.30448013 145.35061608 93.25 163.3125 C92.41662109 164.80910156 92.41662109 164.80910156 91.56640625 166.3359375 C77.09096861 190.56580674 52.30442093 207.22793859 25.3125 214.25 C13.41022993 217.13184886 1.41307412 216.80447251 -10.75 216.3125 C-8.16618298 213.72868298 -6.17032195 213.55162175 -2.625 212.6875 C24.18704193 205.25038295 46.14600726 186.43536038 60 162.625 C74.23461507 137.2133466 76.66888569 107.28589148 69.25390625 79.37109375 C60.77205517 51.69501911 41.89594774 28.66192358 16.37695312 15.02246094 C3.55459836 8.4736778 -9.44220283 4.81034752 -23.75 3.3125 C-23.75 2.9825 -23.75 2.6525 -23.75 2.3125 C-15.78006368 0.57640539 -8.14809976 -0.04219003 0 0 Z " fill="#01C0F9" transform="translate(386.75,295.6875)"/>
<path d="M0 0 C7.22451141 -0.0933465 14.44888938 -0.16408832 21.67388535 -0.20724869 C25.03012398 -0.22798112 28.38563338 -0.25824185 31.74169922 -0.30175781 C35.61436659 -0.35068783 39.48645316 -0.3730637 43.359375 -0.390625 C44.544245 -0.41127014 45.72911499 -0.43191528 46.94989014 -0.45318604 C61.17857339 -0.45695602 73.40736819 4.4598961 83.75 14.25 C93.11145402 24.10764416 98.13991536 35.94358803 98.11352539 49.53442383 C98.11341209 51.48588066 98.11341209 51.48588066 98.11329651 53.47676086 C98.10819062 54.88685139 98.10297464 56.29694151 98.09765625 57.70703125 C98.09578979 59.15720063 98.09436696 60.60737065 98.09336853 62.05754089 C98.0895613 65.86332966 98.07974642 69.66907991 98.06866455 73.47485352 C98.05841177 77.36278767 98.05386264 81.25072808 98.04882812 85.13867188 C98.03812246 92.75913209 98.0210677 100.37956064 98 108 C97.35792099 108.02047394 96.71584198 108.04094788 96.05430603 108.06204224 C93.08666626 108.16114845 90.11956575 108.27192449 87.15234375 108.3828125 C86.1428064 108.41479736 85.13326904 108.44678223 84.09313965 108.47973633 C73.04173196 108.9098212 62.00424216 110.62030257 51.65234375 114.6328125 C48 116 48 116 45 116 C44.98786972 114.72119209 44.98786972 114.72119209 44.97549438 113.41654968 C44.89721225 105.34068922 44.80982314 97.2649879 44.71247292 89.18933392 C44.66275086 85.03860942 44.61642092 80.88790744 44.578125 76.73706055 C44.54096505 72.72337909 44.4945267 68.70989802 44.44193649 64.69639015 C44.42355419 63.17321132 44.40838817 61.6499898 44.39665604 60.12674522 C44.26179539 43.206119 42.23417891 27.51576969 30.00390625 14.73828125 C21.54681644 7.40220919 11.23479396 1.9769386 0 1 C0 0.67 0 0.34 0 0 Z " fill="#FD9901" transform="translate(299,188)"/>
<path d="M0 0 C8.20877329 7.08757498 13.99451321 16.82691872 14.90234375 27.6953125 C15.24318472 40.32006199 12.28057086 51.22642389 3.515625 60.640625 C-3.22788523 66.91906556 -9.58925149 69.89481262 -18.375 72.375 C-18.33572388 73.69890747 -18.33572388 73.69890747 -18.2956543 75.04956055 C-18.21019725 78.3391158 -18.14764255 81.62748422 -18.1003418 84.91772461 C-18.07526853 86.33881291 -18.04120001 87.75977313 -17.99780273 89.18041992 C-17.93682142 91.22867462 -17.90872238 93.27521883 -17.88671875 95.32421875 C-17.86053467 96.55487061 -17.83435059 97.78552246 -17.80737305 99.0534668 C-18.53489013 103.31061514 -20.01070274 104.75269702 -23.375 107.375 C-26.9375 108 -26.9375 108 -30.375 107.375 C-33.48586302 104.55929784 -34.61959154 102.309668 -34.90844727 98.21484375 C-34.94143622 96.58102525 -34.95113082 94.94662258 -34.94140625 93.3125 C-34.94760483 92.44359131 -34.95380341 91.57468262 -34.96018982 90.67944336 C-34.96727575 88.84717934 -34.96413539 87.01485076 -34.95141602 85.18261719 C-34.93754242 82.3835584 -34.9716452 79.58783954 -35.00976562 76.7890625 C-35.01071683 75.00520752 -35.00885794 73.22134836 -35.00390625 71.4375 C-35.01716446 70.60404053 -35.03042267 69.77058105 -35.04408264 68.91186523 C-34.97437101 64.54935696 -34.77341463 62.87691679 -31.96728516 59.34179688 C-29.32941783 57.34041628 -28.40163595 56.82675781 -25.1875 56.875 C-18.98487124 56.491866 -13.40340089 54.0636996 -8.73828125 49.921875 C-2.8217215 43.17024526 -1.69591812 36.87687763 -1.91015625 28.14453125 C-2.61346195 22.44125395 -4.42111905 18.5386153 -8.375 14.375 C-15.98481329 8.61749785 -22.85340817 6.29073496 -32.375 7.375 C-40.88970317 10.08754115 -46.03296494 15.0139692 -50.1875 22.75 C-51.17870779 25.77579221 -51.57842094 27.9533194 -51.8125 31.0625 C-52.08782543 34.10666421 -52.31692057 35.2834132 -54 37.9375 C-57.35219234 39.96645852 -59.52751431 39.92464081 -63.375 39.375 C-66.08726806 37.29236559 -67.23109083 36.09666215 -67.90625 32.7109375 C-67.78120013 20.86246185 -63.6819777 11.1305343 -55.5625 2.43359375 C-39.7647919 -12.31305716 -17.18620906 -12.57906265 0 0 Z " fill="#EEE9FA" transform="translate(412.375,338.625)"/>
<path d="M0 0 C11.88559113 -0.96587197 22.75392831 2.49778466 32 10 C32.62519531 10.50144531 33.25039062 11.00289063 33.89453125 11.51953125 C40.46765665 17.40527098 45.71110528 26.79433946 46.203125 35.66015625 C46.45049122 49.38741575 44.60401594 59.55637396 35.125 70.08203125 C30.62051793 74.68974104 30.62051793 74.68974104 28 76 C28.17128418 77.11334717 28.34256836 78.22669434 28.51904297 79.3737793 C29.5764974 86.24723307 30.63395182 93.12068685 31.69140625 99.99414062 C31.8242804 100.85733917 31.95715454 101.72053772 32.09405518 102.6098938 C32.3589248 104.33252087 32.62320951 106.05523798 32.88690186 107.77804565 C33.45832569 111.50749757 34.03426584 115.23568424 34.64160156 118.95947266 C34.82432617 120.09304199 35.00705078 121.22661133 35.1953125 122.39453125 C35.43145264 123.82502808 35.43145264 123.82502808 35.67236328 125.28442383 C36.02715925 128.22510604 36.12306255 131.04090497 36 134 C35 135 35 135 32.95874023 135.11352539 C32.08419189 135.10828857 31.20964355 135.10305176 30.30859375 135.09765625 C29.36435547 135.09443359 28.42011719 135.09121094 27.44726562 135.08789062 C26.45404297 135.07951172 25.46082031 135.07113281 24.4375 135.0625 C23.44041016 135.05798828 22.44332031 135.05347656 21.41601562 135.04882812 C18.94395151 135.03700007 16.47200482 135.02051849 14 135 C13.84144531 133.86691406 13.68289062 132.73382813 13.51953125 131.56640625 C13.28425052 129.89838154 13.0485306 128.23041876 12.8125 126.5625 C12.68447998 125.65685303 12.55645996 124.75120605 12.42456055 123.81811523 C11.55061369 117.69546168 10.63360165 111.58057589 9.6875 105.46875 C9.45857143 103.98364351 9.22964892 102.49853609 9.00073242 101.01342773 C8.6586442 98.79554212 8.31493319 96.57796827 7.96621704 94.3611145 C7.63628831 92.26347139 7.31185815 90.16503718 6.98828125 88.06640625 C6.70271362 86.2402478 6.70271362 86.2402478 6.41137695 84.37719727 C6.02355155 81.19334631 5.82612552 78.20211483 6 75 C7.3203125 73.41796875 7.3203125 73.41796875 9.125 72.1875 C16.62141679 66.37209788 21.32895455 57.26642044 23.75 48.1875 C23.8325 47.135625 23.915 46.08375 24 45 C24.07476562 44.16082031 24.14953125 43.32164062 24.2265625 42.45703125 C24.81673615 30.70015083 21.00680941 20.1113665 13.3359375 11.19140625 C9.93215692 7.99822748 6.17711806 5.6653276 2.125 3.375 C1.42375 2.92125 0.7225 2.4675 0 2 C0 1.34 0 0.68 0 0 Z " fill="#044D67" transform="translate(202,261)"/>
<path d="M0 0 C2.4375 1.5 2.4375 1.5 4 4 C4.57853498 6.96424623 4.39353376 8.90092167 4 12 C1.73077752 14.90460477 0.15004537 14.97856495 -3.5 15.5 C-7 15 -7 15 -9.5 12.9375 C-11.45640324 9.10621033 -11.13891039 7.1000774 -10 3 C-7.67133148 -1.01048467 -4.26353269 -0.52359173 0 0 Z " fill="#ECE9FA" transform="translate(389,463)"/>
</svg>
