<?xml version="1.0" encoding="UTF-8"?>
<svg version="1.1" xmlns="http://www.w3.org/2000/svg" width="512" height="512">
<path d="M0 0 C1.45108658 0.00273422 1.45108658 0.00273422 2.93148804 0.00552368 C17.26440977 0.05095174 31.21023917 0.55983928 45.3125 3.3125 C46.65803955 3.55395752 46.65803955 3.55395752 48.03076172 3.80029297 C107.84088904 14.62287989 165.35495829 48.68064457 202.3125 97.3125 C202.72918945 97.85277832 203.14587891 98.39305664 203.57519531 98.94970703 C211.2584873 108.9447116 218.00092968 119.40459036 224.3125 130.3125 C224.70679199 130.98974121 225.10108398 131.66698242 225.50732422 132.36474609 C238.68961173 155.2833756 247.29510918 180.85822563 252.625 206.6875 C252.77243652 207.39817627 252.91987305 208.10885254 253.07177734 208.84106445 C256.05713787 224.48358366 256.6873098 240.11919606 256.625 256 C256.62226578 257.45108658 256.62226578 257.45108658 256.61947632 258.93148804 C256.57404826 273.26440977 256.06516072 287.21023917 253.3125 301.3125 C253.15152832 302.20952637 252.99055664 303.10655273 252.82470703 304.03076172 C244.01471851 352.71843124 220.57143453 397.74255908 186.3125 433.3125 C185.68037598 433.97185547 185.04825195 434.63121094 184.39697266 435.31054688 C175.25252521 444.79880305 165.95515991 453.5387044 155.3125 461.3125 C154.16144983 462.17056152 153.01040823 463.02863451 151.859375 463.88671875 C143.66819386 469.92486829 135.15445895 475.28345521 126.3125 480.3125 C125.68069824 480.67698242 125.04889648 481.04146484 124.39794922 481.41699219 C101.37828699 494.59268166 75.85904551 503.27606895 49.9375 508.625 C49.22682373 508.77243652 48.51614746 508.91987305 47.78393555 509.07177734 C32.14141634 512.05713787 16.50580394 512.6873098 0.625 512.625 C-0.34239105 512.62317719 -1.3097821 512.62135437 -2.30648804 512.61947632 C-16.63940977 512.57404826 -30.58523917 512.06516072 -44.6875 509.3125 C-45.58452637 509.15152832 -46.48155273 508.99055664 -47.40576172 508.82470703 C-107.21588904 498.00212011 -164.72995829 463.94435543 -201.6875 415.3125 C-202.10418945 414.77222168 -202.52087891 414.23194336 -202.95019531 413.67529297 C-210.6334873 403.6802884 -217.37592968 393.22040964 -223.6875 382.3125 C-224.08179199 381.63525879 -224.47608398 380.95801758 -224.88232422 380.26025391 C-238.06461173 357.3416244 -246.67010918 331.76677437 -252 305.9375 C-252.14743652 305.22682373 -252.29487305 304.51614746 -252.44677734 303.78393555 C-255.43213787 288.14141634 -256.0623098 272.50580394 -256 256.625 C-255.99817719 255.65760895 -255.99635437 254.6902179 -255.99447632 253.69351196 C-255.94904826 239.36059023 -255.44016072 225.41476083 -252.6875 211.3125 C-252.44604248 209.96696045 -252.44604248 209.96696045 -252.19970703 208.59423828 C-241.37712011 148.78411096 -207.31935543 91.27004171 -158.6875 54.3125 C-158.14722168 53.89581055 -157.60694336 53.47912109 -157.05029297 53.04980469 C-147.0552884 45.3665127 -136.59540964 38.62407032 -125.6875 32.3125 C-125.01025879 31.91820801 -124.33301758 31.52391602 -123.63525391 31.11767578 C-100.7166244 17.93538827 -75.14177437 9.32989082 -49.3125 4 C-48.60182373 3.85256348 -47.89114746 3.70512695 -47.15893555 3.55322266 C-31.51641634 0.56786213 -15.88080394 -0.0623098 0 0 Z " fill="#273B79" transform="translate(255.6875,-0.3125)"/>
<path d="M0 0 C3.82208316 1.58317765 6.26748342 4.00055466 9.1885376 6.89419556 C9.69831579 7.39662037 10.20809398 7.89904519 10.73332 8.416695 C12.43930715 10.10066493 14.13809148 11.79171496 15.83691406 13.48291016 C17.05879441 14.6922573 18.28105322 15.90122216 19.50366211 17.10983276 C23.51486006 21.07900535 27.51543003 25.05880647 31.515625 29.0390625 C32.89370751 30.40904889 34.27185869 31.7789662 35.65007782 33.14881516 C42.12226474 39.58291709 48.58963293 46.02181494 55.05113435 52.46664774 C62.51105579 59.90700718 69.98724537 67.33050564 77.47765565 74.74016726 C83.26668416 80.46891668 89.04031421 86.21289432 94.8025949 91.96854627 C98.24471786 95.40596474 101.69315441 98.83643554 105.15796661 102.25099564 C108.41610092 105.46263065 111.65473653 108.69271133 114.87939453 111.93794632 C116.06569326 113.12523742 117.25885883 114.305713 118.45928192 115.47872162 C120.09847786 117.08255553 121.71105111 118.70921657 123.31939697 120.34390259 C124.22862034 121.24834925 125.1378437 122.15279591 126.07461929 123.08465004 C128.71111421 127.07674642 128.40622223 129.27869027 128 134 C127.44018555 136.56274414 127.44018555 136.56274414 126.63671875 138.78515625 C126.3327417 139.63368164 126.02876465 140.48220703 125.71557617 141.35644531 C125.37631104 142.24944336 125.0370459 143.14244141 124.6875 144.0625 C124.33212158 145.01350586 123.97674316 145.96451172 123.6105957 146.94433594 C113.05913752 174.49498964 98.15709165 199.58139633 79 222 C78.36320312 222.74894531 77.72640625 223.49789062 77.0703125 224.26953125 C65.25297532 237.76520621 52.51448412 250.43558025 38 261 C36.85005169 261.85649066 35.70031411 262.71326433 34.55078125 263.5703125 C26.35910474 269.6109414 17.84354922 274.97005071 9 280 C8.36819824 280.36448242 7.73639648 280.72896484 7.08544922 281.10449219 C-16.20794264 294.4368554 -41.97912111 303.04888936 -68.1875 308.5 C-69.00710205 308.67257324 -69.8267041 308.84514648 -70.67114258 309.02294922 C-71.43322021 309.17006348 -72.19529785 309.31717773 -72.98046875 309.46875 C-73.63942139 309.59701172 -74.29837402 309.72527344 -74.97729492 309.85742188 C-78.37614869 310.09700312 -80.83235636 309.90362021 -83.62036765 307.74602413 C-85.57442904 305.93480381 -87.45210971 304.06604535 -89.32087708 302.16687012 C-90.04793797 301.44393249 -90.77499886 300.72099486 -91.5240919 299.97615004 C-93.96423405 297.54495652 -96.38978371 295.09970546 -98.81567383 292.65429688 C-100.5593799 290.91109941 -102.303959 289.16877485 -104.04934692 287.42726135 C-108.29878015 283.18269324 -112.53886063 278.92898241 -116.77486012 274.67102253 C-121.70472916 269.71647892 -126.6454558 264.77282282 -131.58677538 259.82970351 C-140.39914652 251.01345559 -149.20218322 242.18794669 -157.99975586 233.35693359 C-166.54456593 224.77967024 -175.09496789 216.20803754 -183.65209961 207.64306641 C-184.17948421 207.11519632 -184.70686881 206.58732623 -185.25023476 206.04346007 C-187.36983319 203.92193311 -189.48943982 201.80041435 -191.60906481 199.67891392 C-199.75455858 191.52589654 -207.89599654 183.36882974 -216.03657613 175.210906 C-218.4985595 172.74368079 -220.96069729 170.27661014 -223.42320848 167.80991173 C-229.03792783 162.18553399 -234.65019032 156.55872927 -240.25841141 150.9278698 C-241.96202242 149.21811462 -243.66648825 147.50921073 -245.37184334 145.80119514 C-247.68825467 143.48082895 -250.00156996 141.15742185 -252.31404114 138.83312988 C-252.99932839 138.148027 -253.68461564 137.46292411 -254.39066917 136.75706053 C-259 132.11423592 -259 132.11423592 -259 131 C-210.16 131 -161.32 131 -111 131 C-110.67 142.22 -110.34 153.44 -110 165 C-108.46235823 169.03682978 -108.46235823 169.03682978 -105.69995117 170.2332859 C-102.93137974 171.01948632 -100.67340424 171.25658996 -97.80078125 171.26742554 C-96.77460693 171.27595551 -95.74843262 171.28448547 -94.69116211 171.29327393 C-93.57620361 171.29236755 -92.46124512 171.29146118 -91.3125 171.29052734 C-90.12986572 171.29724457 -88.94723145 171.30396179 -87.72875977 171.31088257 C-84.49324593 171.32660625 -81.25788631 171.33323635 -78.02233887 171.33451414 C-75.99958196 171.33593779 -73.97685181 171.34021134 -71.95410156 171.34550858 C-64.89386288 171.36399444 -57.83369959 171.37218064 -50.7734375 171.37060547 C-44.19712875 171.3694031 -37.62114768 171.39052743 -31.04492188 171.4220928 C-25.39296935 171.44825298 -19.74112392 171.45897295 -14.08911133 171.45769465 C-10.71586572 171.45718511 -7.34291174 171.46286373 -3.96972656 171.48405075 C-0.2087058 171.50360412 3.55146612 171.49791415 7.3125 171.48583984 C8.4274585 171.49707886 9.54241699 171.50831787 10.69116211 171.51989746 C15.1244978 171.48365493 18.1523956 171.45181412 22.10546875 169.34463501 C26.42370763 164.0004666 26.2975475 158.35668167 26.29052734 151.80102539 C26.29724457 150.89455765 26.30396179 149.9880899 26.31088257 149.05415344 C26.32982364 146.06859808 26.33378454 143.0832679 26.3359375 140.09765625 C26.34236717 138.01549691 26.34909566 135.93333848 26.35610962 133.85118103 C26.36807196 129.49101669 26.37179142 125.13093154 26.37060547 120.77075195 C26.37040212 115.19105196 26.39772536 109.61186039 26.43214989 104.03228092 C26.4544128 99.73336974 26.45844322 95.43458114 26.45738602 91.13561821 C26.45974207 89.07877281 26.46856582 87.02192403 26.48405075 84.96513557 C26.50370195 82.08585308 26.49787638 79.20767029 26.48583984 76.32836914 C26.49707886 75.48399292 26.50831787 74.6396167 26.51989746 73.76965332 C26.45934293 68.05357426 25.31044131 64.69407122 22 60 C18.52598093 57.96448637 15.16637026 57.66262918 11.1875 57.375 C10.21167969 57.30023438 9.23585938 57.22546875 8.23046875 57.1484375 C7.49441406 57.09945312 6.75835937 57.05046875 6 57 C5.97812622 55.3754187 5.97812622 55.3754187 5.95581055 53.71801758 C5.89713402 49.63795565 5.81991654 45.5584064 5.73754883 41.47875977 C5.70462144 39.72461365 5.67649331 37.97036975 5.65356445 36.21606445 C5.48235173 23.45525255 4.1404887 12.16570035 0 0 Z " fill="#121149" transform="translate(373,200)"/>
<path d="M0 0 C11.52892973 8.26522536 18.5446639 19.39170063 20.98010254 33.25369263 C21.92667112 40.47422134 21.54609425 47.86147878 21.4375 55.125 C21.42241466 56.8964729 21.40873312 58.66795834 21.39648438 60.43945312 C21.36380946 64.73078474 21.31224392 69.02149961 21.25 73.3125 C22.38127319 73.29401001 22.38127319 73.29401001 23.53540039 73.27514648 C24.52531982 73.26555908 25.51523926 73.25597168 26.53515625 73.24609375 C27.51621338 73.23376709 28.49727051 73.22144043 29.50805664 73.20874023 C33.19749024 73.34835463 35.30090979 74.08270008 38.25 76.3125 C42.14274666 81.86976396 42.82848421 85.93212002 42.75170898 92.625 C42.75981346 93.98492065 42.75981346 93.98492065 42.76808167 95.37231445 C42.78053257 98.35271404 42.76410199 101.33214075 42.74609375 104.3125 C42.74624882 106.39322968 42.74773916 108.47395965 42.75050354 110.5546875 C42.75188591 114.90898455 42.73935638 119.26295157 42.71655273 123.6171875 C42.68816887 129.18897127 42.69090773 134.76020692 42.70364285 140.33203125 C42.71060919 144.62667494 42.70279977 148.92119271 42.69038582 153.21582031 C42.68588063 155.26985185 42.68552634 157.32389696 42.68945122 159.37792969 C42.69237278 162.25223338 42.67581108 165.1257908 42.65405273 168 C42.66080521 169.26420776 42.66080521 169.26420776 42.66769409 170.55395508 C42.58640478 177.04123072 41.49033185 181.55804259 37.29296875 186.71864319 C32.51199359 189.22283908 27.88022081 188.86031972 22.5625 188.81420898 C21.37986572 188.81961197 20.19723145 188.82501495 18.97875977 188.83058167 C15.74304952 188.84093372 12.50800545 188.83338056 9.27233887 188.81687045 C5.88207608 188.80299533 2.49184345 188.80948282 -0.8984375 188.81300354 C-6.59123293 188.81570374 -12.2838173 188.8022467 -17.9765625 188.77905273 C-24.55284019 188.75244401 -31.12876504 188.75069651 -37.70507812 188.7624411 C-44.03813174 188.77323031 -50.37105804 188.76702289 -56.70410156 188.75288582 C-59.39618956 188.74713588 -62.0881841 188.74720084 -64.78027344 188.75195122 C-68.54123272 188.75485844 -72.30161374 188.73837851 -76.0625 188.71655273 C-77.73493774 188.72330521 -77.73493774 188.72330521 -79.44116211 188.73019409 C-80.46733643 188.72028946 -81.49351074 188.71038483 -82.55078125 188.70018005 C-83.43934814 188.69775016 -84.32791504 188.69532026 -85.2434082 188.69281673 C-90.45197942 187.90253776 -92.63983968 185.45938043 -95.75 181.3125 C-95.75 170.0925 -95.75 158.8725 -95.75 147.3125 C-144.59 147.3125 -193.43 147.3125 -243.75 147.3125 C-243.75 118.35216997 -233.18584651 93.05313373 -212.87109375 72.3046875 C-200.87100782 60.57993431 -185.66233812 51.33242743 -169.40063477 47.01831055 C-167.65219872 46.55273731 -165.91035357 46.06156203 -164.17675781 45.54345703 C-155.91953032 43.21505201 -148.11269262 42.8082714 -139.5625 42.875 C-138.88057587 42.87837372 -138.19865173 42.88174744 -137.49606323 42.88522339 C-117.29896405 43.02983693 -91.74976594 48.31273406 -76.75 63.3125 C-76.73541748 62.59819824 -76.72083496 61.88389648 -76.70581055 61.14794922 C-75.79770132 21.31308028 -75.79770132 21.31308028 -61.6640625 6.08984375 C-44.03224764 -10.28255577 -20.35801381 -12.32010836 0 0 Z " fill="#FE7E4F" transform="translate(357.75,183.6875)"/>
<path d="M0 0 C11.52892973 8.26522536 18.5446639 19.39170063 20.98010254 33.25369263 C21.92667112 40.47422134 21.54609425 47.86147878 21.4375 55.125 C21.42241466 56.8964729 21.40873312 58.66795834 21.39648438 60.43945312 C21.36380946 64.73078474 21.31224392 69.02149961 21.25 73.3125 C22.38127319 73.29401001 22.38127319 73.29401001 23.53540039 73.27514648 C24.52531982 73.26555908 25.51523926 73.25597168 26.53515625 73.24609375 C27.51621338 73.23376709 28.49727051 73.22144043 29.50805664 73.20874023 C33.19749024 73.34835463 35.30090979 74.08270008 38.25 76.3125 C42.14274666 81.86976396 42.82848421 85.93212002 42.75170898 92.625 C42.75981346 93.98492065 42.75981346 93.98492065 42.76808167 95.37231445 C42.78053257 98.35271404 42.76410199 101.33214075 42.74609375 104.3125 C42.74624882 106.39322968 42.74773916 108.47395965 42.75050354 110.5546875 C42.75188591 114.90898455 42.73935638 119.26295157 42.71655273 123.6171875 C42.68816887 129.18897127 42.69090773 134.76020692 42.70364285 140.33203125 C42.71060919 144.62667494 42.70279977 148.92119271 42.69038582 153.21582031 C42.68588063 155.26985185 42.68552634 157.32389696 42.68945122 159.37792969 C42.69237278 162.25223338 42.67581108 165.1257908 42.65405273 168 C42.65855438 168.84280518 42.66305603 169.68561035 42.66769409 170.55395508 C42.5859633 177.07646275 41.61582815 181.83044851 36.95368958 186.72161865 C33.69968948 188.6363089 31.75075516 188.7972312 27.9909668 188.76660156 C26.75005783 188.76629944 25.50914886 188.76599731 24.2306366 188.76568604 C22.88682404 188.74526278 21.54301811 188.72439885 20.19921875 188.703125 C18.81631795 188.69565866 17.43340652 188.68996758 16.05049133 188.68597412 C12.42197123 188.6707483 8.79409812 188.63149424 5.16583252 188.5871582 C1.45895293 188.54613875 -2.24803498 188.52772935 -5.95507812 188.5078125 C-13.22062228 188.46712057 -20.48439303 188.38882385 -27.75 188.3125 C-27.75 179.4025 -27.75 170.4925 -27.75 161.3125 C-25.77 160.3225 -23.79 159.3325 -21.75 158.3125 C-19.7283509 155.48741685 -19.50996309 153.14443773 -19.51171875 149.72265625 C-19.49560547 148.85576172 -19.47949219 147.98886719 -19.46289062 147.09570312 C-19.44600066 145.28587861 -19.44074114 143.47590719 -19.44726562 141.66601562 C-19.2929074 134.95890187 -19.2929074 134.95890187 -16.33203125 131.43359375 C-15.47996094 130.73363281 -14.62789063 130.03367187 -13.75 129.3125 C-11.1246901 125.15178158 -11.08793882 121.10033272 -11.75 116.3125 C-13.33415467 112.05814648 -15.68205061 108.45947329 -19.75 106.3125 C-22.39 105.6525 -25.03 104.9925 -27.75 104.3125 C-27.75 94.4125 -27.75 84.5125 -27.75 74.3125 C-30.95396484 74.32990234 -30.95396484 74.32990234 -34.22265625 74.34765625 C-36.34773613 74.35550912 -38.47281424 74.36155019 -40.59790039 74.36743164 C-42.04745232 74.37238546 -43.49699946 74.37915038 -44.9465332 74.38793945 C-54.93114937 74.44685597 -64.79478062 74.11517972 -74.75 73.3125 C-74.84964557 67.39010399 -74.92183264 61.46820706 -74.96972656 55.54516602 C-74.98971393 53.53466276 -75.01691326 51.52421667 -75.05175781 49.51391602 C-75.41380559 28.07323394 -75.41380559 28.07323394 -70.75 19.3125 C-70.22019531 18.25675781 -69.69039063 17.20101562 -69.14453125 16.11328125 C-61.43744054 3.99126451 -50.97087708 -4.0107935 -36.83178711 -7.30371094 C-23.45871217 -9.76911188 -11.58536218 -7.01114159 0 0 Z " fill="#E9A12E" transform="translate(357.75,183.6875)"/>
<path d="M0 0 C1.10714355 0.01095703 2.21428711 0.02191406 3.35498047 0.03320312 C17.76133884 0.21604006 32.16499096 0.74921708 46.5625 1.25 C46.5625 11.15 46.5625 21.05 46.5625 31.25 C49.2025 31.58 51.8425 31.91 54.5625 32.25 C59.09590157 35.24375575 61.7799823 38.10050443 63.5625 43.25 C64.26445692 48.06837096 64.07790751 51.29027567 61.75 55.625 C59.5625 58.25 59.5625 58.25 57.95117188 59.63330078 C56.13404579 61.74880868 56.18102463 62.98037955 56.15625 65.7421875 C56.12337891 67.04736328 56.12337891 67.04736328 56.08984375 68.37890625 C56.08082031 69.28511719 56.07179688 70.19132812 56.0625 71.125 C55.95153883 82.17356178 55.95153883 82.17356178 52.5625 86.25 C49.5625 88.25 49.5625 88.25 46.5625 88.25 C46.5625 97.16 46.5625 106.07 46.5625 115.25 C38.83259412 115.31295851 31.10361993 115.37305706 23.37368011 115.40525055 C19.77382914 115.42107449 16.17419101 115.44221082 12.57446289 115.47631836 C9.10555609 115.50897965 5.63685536 115.52686714 2.16780663 115.53463173 C0.20411248 115.54285018 -1.75949908 115.56625892 -3.72306824 115.58988953 C-4.9239357 115.59011612 -6.12480316 115.59034271 -7.36206055 115.59057617 C-8.41685104 115.59723801 -9.47164154 115.60389984 -10.55839539 115.61076355 C-14.72493085 115.08867966 -17.14208061 113.40693948 -20.22573853 110.65292358 C-22.15839909 106.82045677 -21.85417759 103.03514813 -21.82568359 98.80322266 C-21.83094055 97.84667282 -21.83619751 96.89012299 -21.84161377 95.90458679 C-21.8548226 92.74091281 -21.84607099 89.57774166 -21.8359375 86.4140625 C-21.83795831 84.21454776 -21.84086981 82.01503368 -21.84463501 79.81552124 C-21.84905985 75.20377224 -21.84262328 70.5921975 -21.82861328 65.98046875 C-21.81154156 60.07334796 -21.82134902 54.1666367 -21.83933067 48.25953102 C-21.85018125 43.71616543 -21.84671593 39.17289658 -21.8389473 34.62952805 C-21.83694778 32.45185676 -21.83939583 30.27417665 -21.84638596 28.09651566 C-21.85401897 25.0492967 -21.84236894 22.00273642 -21.82568359 18.95556641 C-21.83175629 18.05769913 -21.83782898 17.15983185 -21.84408569 16.23475647 C-21.79289684 11.17927834 -21.31458098 7.59561033 -18.4375 3.25 C-12.5477742 -0.43398092 -6.78901506 -0.13679591 0 0 Z " fill="#FEC51B" transform="translate(283.4375,256.75)"/>
<path d="M0 0 C1.37877319 0.00531738 1.37877319 0.00531738 2.78540039 0.01074219 C10.24187946 0.19217463 16.20665762 1.68838592 22.6875 5.5 C23.780625 6.139375 24.87375 6.77875 26 7.4375 C26.886875 8.118125 27.77375 8.79875 28.6875 9.5 C29.52861328 10.12648437 29.52861328 10.12648437 30.38671875 10.765625 C38.65834108 17.29679751 44.4461175 27.20650359 46.6875 37.5 C48.01625836 53.38095339 46.2135128 66.01800398 35.6875 78.5 C25.79327636 89.08648161 14.6379014 94.06790975 0.22265625 94.63671875 C-11.52662374 94.40247287 -24.36972922 90.55664816 -32.9375 82.078125 C-33.618125 81.29695313 -33.618125 81.29695313 -34.3125 80.5 C-34.828125 79.91734375 -35.34375 79.3346875 -35.875 78.734375 C-45.02027741 67.48568379 -48.48799541 54.31183293 -47.0703125 40.06640625 C-45.05991527 27.24499537 -37.83264334 16.25133618 -27.60546875 8.4296875 C-18.73422164 2.49897964 -10.65444534 -0.07425381 0 0 Z " fill="#D25833" transform="translate(220.3125,118.5)"/>
<path d="M0 0 C0.33 0 0.66 0 1 0 C1 11.88 1 23.76 1 36 C-6.425 36.99 -6.425 36.99 -14 38 C-14.99 38.33 -15.98 38.66 -17 39 C-18.87483028 43.25042877 -19.26504485 47.03884237 -19.31884766 51.64794922 C-19.33871735 52.94884491 -19.35858704 54.2497406 -19.37905884 55.59005737 C-19.3909326 56.99493236 -19.40259561 58.39980914 -19.4140625 59.8046875 C-19.43278925 61.25343918 -19.45236378 62.70218012 -19.4727478 64.15090942 C-19.52391603 67.94838105 -19.5636232 71.74588798 -19.60089111 75.54351807 C-19.64809436 80.1083711 -19.70962613 84.67305107 -19.76873779 89.23776245 C-19.85676334 96.15843785 -19.92666067 103.07908322 -20 110 C-33.86 110 -47.72 110 -62 110 C-62 75.68 -62 41.36 -62 6 C-39.74295162 6 -21.52951537 11.85002366 -3 24 C-2.34 24.66 -1.68 25.32 -1 26 C-0.67 17.42 -0.34 8.84 0 0 Z " fill="#D25933" transform="translate(282,221)"/>
<path d="M0 0 C7.95536476 4.24286121 13.41734331 9.79045085 17.05078125 18.09375 C18.74950101 23.87548776 19.32716208 28.96331003 19.24609375 34.96875 C19.24407959 35.68804687 19.24206543 36.40734375 19.23999023 37.1484375 C19.22964452 39.79694127 19.20172342 42.44535307 19.17578125 45.09375 C19.13453125 51.03375 19.09328125 56.97375 19.05078125 63.09375 C-2.39921875 63.09375 -23.84921875 63.09375 -45.94921875 63.09375 C-46.03171875 56.679375 -46.11421875 50.265 -46.19921875 43.65625 C-46.23563477 41.64990479 -46.27205078 39.64355957 -46.30957031 37.57641602 C-46.32126966 35.95850692 -46.33145852 34.34058591 -46.33984375 32.72265625 C-46.36030762 31.90502808 -46.38077148 31.0873999 -46.40185547 30.24499512 C-46.40740025 20.94224089 -42.34259015 12.78285003 -35.94921875 6.09375 C-25.62202038 -2.13516601 -12.64299758 -5.14291427 0 0 Z " fill="#121149" transform="translate(343.94921875,193.90625)"/>
<path d="M0 0 C0 30.69 0 61.38 0 93 C-12.78286233 93 -12.78286233 93 -19.25 89.875 C-20.28229736 89.3963147 -20.28229736 89.3963147 -21.33544922 88.90795898 C-26.20442801 86.57217295 -30.41793357 84.11123534 -34 80 C-34.515625 79.41734375 -35.03125 78.8346875 -35.5625 78.234375 C-44.70777741 66.98568379 -48.17549541 53.81183293 -46.7578125 39.56640625 C-44.74741527 26.74499537 -37.52014334 15.75133618 -27.29296875 7.9296875 C-17.97068099 1.69744477 -11.53131681 0 0 0 Z " fill="#FD7E4F" transform="translate(220,119)"/>
<path d="M0 0 C5.55439924 4.62491379 10.68525669 9.55360964 15.77734375 14.6796875 C16.58869278 15.49245148 17.40004181 16.30521545 18.23597717 17.14260864 C20.8055259 19.71771738 23.37155968 22.2962962 25.9375 24.875 C27.68791929 26.63043946 29.438568 28.38565017 31.18945312 30.140625 C35.46229302 34.42444082 39.73225899 38.71110472 44 43 C42.58508995 45.99007759 41.48890326 47.60878687 38.8125 49.5625 C30.06120377 56.81878312 24.64799121 68.58116851 23.20117188 79.75146484 C22.71973482 85.13257559 22.610168 90.53950196 22.4375 95.9375 C22.37272461 97.82178711 22.37272461 97.82178711 22.30664062 99.74414062 C22.20106381 102.82932968 22.09895449 105.91459263 22 109 C21.30237549 108.54326904 20.60475098 108.08653809 19.88598633 107.6159668 C6.0738985 98.68122469 -9.26246009 90.31648865 -26.01953125 89.73046875 C-39.14627224 89.12304433 -47.26216861 87.78304198 -56.5 77.875 C-58.57361818 75.53124322 -60.59002382 73.17106525 -62.53320312 70.71826172 C-63.90518527 68.88494308 -63.90518527 68.88494308 -66 68 C-65.505 67.01 -65.505 67.01 -65 66 C-64.16339844 66.42152344 -63.32679688 66.84304687 -62.46484375 67.27734375 C-50.46738063 72.92399029 -37.96460491 75.08214965 -25 71 C-12.61498526 66.21414574 -2.5765932 58.2302854 3 46 C5.60903765 39.65173524 6.51807945 33.96896968 6.4375 27.125 C6.43282715 26.25020996 6.4281543 25.37541992 6.42333984 24.47412109 C6.26802508 17.6718396 4.93825087 12.15686919 2 6 C1.32318977 4.00340982 0.65038501 2.00535378 0 0 Z " fill="#131149" transform="translate(260,139)"/>
<path d="M0 0 C11.52892973 8.26522536 18.5446639 19.39170063 20.98010254 33.25369263 C21.92667112 40.47422134 21.54609425 47.86147878 21.4375 55.125 C21.42241466 56.8964729 21.40873312 58.66795834 21.39648438 60.43945312 C21.36638909 64.73104114 21.30762042 69.02084579 21.25 73.3125 C15.97 73.3125 10.69 73.3125 5.25 73.3125 C5.21261719 70.75757813 5.17523438 68.20265625 5.13671875 65.5703125 C5.09035739 63.06469716 5.03917727 60.55922265 4.98754883 58.05371094 C4.95452714 56.3275628 4.92642625 54.60131259 4.90356445 52.875 C4.72466705 39.72033149 4.39980073 27.69285962 -4.75 17.3125 C-12.98198978 10.3100606 -21.37556615 8.78249301 -32.015625 8.9296875 C-37.43822774 9.485561 -41.27908298 11.28978962 -45.75 14.3125 C-46.8225 15.01375 -47.895 15.715 -49 16.4375 C-54.26635206 21.9432317 -58.78381313 29.55803764 -58.95532227 37.32495117 C-58.97526749 38.12555466 -58.99521271 38.92615814 -59.01576233 39.75102234 C-59.04083107 41.04022331 -59.04083107 41.04022331 -59.06640625 42.35546875 C-59.08718735 43.2390657 -59.10796844 44.12266266 -59.12937927 45.03303528 C-59.19475754 47.85527785 -59.25370528 50.67761335 -59.3125 53.5 C-59.35569637 55.41342106 -59.39931102 57.32683273 -59.44335938 59.24023438 C-59.55042695 63.93089437 -59.65172752 68.62164783 -59.75 73.3125 C-64.7 73.3125 -69.65 73.3125 -74.75 73.3125 C-74.84964557 67.39010399 -74.92183264 61.46820706 -74.96972656 55.54516602 C-74.98971393 53.53466276 -75.01691326 51.52421667 -75.05175781 49.51391602 C-75.41380559 28.07323394 -75.41380559 28.07323394 -70.75 19.3125 C-70.22019531 18.25675781 -69.69039063 17.20101562 -69.14453125 16.11328125 C-61.43744054 3.99126451 -50.97087708 -4.0107935 -36.83178711 -7.30371094 C-23.45871217 -9.76911188 -11.58536218 -7.01114159 0 0 Z " fill="#CECFD2" transform="translate(357.75,183.6875)"/>
<path d="M0 0 C0 4.95 0 9.9 0 15 C-1.959375 15.53625 -3.91875 16.0725 -5.9375 16.625 C-16.76446635 20.01063117 -23.47095245 24.95275569 -29 35 C-31.13180064 40.17100068 -31.33872847 44.83169274 -31.4140625 50.3359375 C-31.43342865 51.21528961 -31.4527948 52.09464172 -31.4727478 53.00064087 C-31.53222815 55.79199718 -31.5788021 58.58339543 -31.625 61.375 C-31.66320885 63.27475694 -31.70226226 65.1744971 -31.7421875 67.07421875 C-31.83790357 71.7160085 -31.9220504 76.35787929 -32 81 C-36.95 81 -41.9 81 -47 81 C-47.09964557 75.07760399 -47.17183264 69.15570706 -47.21972656 63.23266602 C-47.23971393 61.22216276 -47.26691326 59.21171667 -47.30175781 57.20141602 C-47.66380559 35.76073394 -47.66380559 35.76073394 -43 27 C-42.47019531 25.94425781 -41.94039063 24.88851562 -41.39453125 23.80078125 C-33.99129855 12.15668439 -24.13269832 4.37714837 -10.6875 0.625 C-7 0 -7 0 0 0 Z " fill="#FCFCFD" transform="translate(330,176)"/>
<path d="M0 0 C9.38801262 1.17350158 9.38801262 1.17350158 14 6 C17.24984554 10.76644013 17.92725629 15.37598904 17 21 C15.39512853 23.98838136 13.95853155 26.17711518 11.38867188 28.38330078 C9.57154579 30.49880868 9.61852463 31.73037955 9.59375 34.4921875 C9.57183594 35.36230469 9.54992187 36.23242188 9.52734375 37.12890625 C9.51832031 38.03511719 9.50929688 38.94132812 9.5 39.875 C9.38903883 50.92356178 9.38903883 50.92356178 6 55 C3 57 3 57 0 57 C0 38.19 0 19.38 0 0 Z " fill="#FD581A" transform="translate(330,288)"/>
<path d="M0 0 C0 18.81 0 37.62 0 57 C-5 55 -5 55 -6.7890625 52.99609375 C-8.82218834 47.96574692 -8.39866176 42.75796856 -8.3515625 37.39257812 C-8.46448816 31.11108827 -9.49164637 28.41139979 -14 24 C-16.56080568 20.34170616 -16.75042866 16.31496479 -16 12 C-13.06182391 4.75949463 -8.09303025 0 0 0 Z " fill="#EAA32E" transform="translate(330,288)"/>
</svg>
