<?xml version="1.0" encoding="UTF-8"?>
<svg version="1.1" xmlns="http://www.w3.org/2000/svg" width="512" height="512">
<path d="M0 0 C9.09493698 7.97158936 16.43178935 16.87413315 23 27 C23.63550781 27.96292969 24.27101563 28.92585938 24.92578125 29.91796875 C41.61807704 56.75148193 46.10594695 91.04563765 39.54345703 121.70751953 C34.02669941 144.97901731 22.51944816 164.85987893 6 182 C5.29359375 182.78117188 4.5871875 183.56234375 3.859375 184.3671875 C-15.8597695 205.51634629 -46.55399957 217.42257758 -75 219 C-76.76421753 219.02035322 -78.52864901 219.02685208 -80.29296875 219.01953125 C-81.17879639 219.01671143 -82.06462402 219.0138916 -82.97729492 219.01098633 C-83.6447876 219.00736084 -84.31228027 219.00373535 -85 219 C-84.86368164 219.90987671 -84.86368164 219.90987671 -84.72460938 220.83813477 C-77.55813188 269.82284601 -85.76158342 318.8033031 -115.5 359.375 C-116.98092933 361.26509876 -118.481587 363.13987985 -120 365 C-120.42780762 365.52787109 -120.85561523 366.05574219 -121.29638672 366.59960938 C-144.99943499 395.72269209 -144.99943499 395.72269209 -156.3671875 397.3359375 C-162.12461678 397.42561708 -165.50632672 396.95871218 -170 393 C-174.09760606 388.4594095 -175.08442365 385.33518763 -175.328125 379.23046875 C-174.29268037 372.19191058 -169.45557567 368.28329649 -164.4375 363.8125 C-134.77099375 336.59771621 -117.24422821 301.30619784 -114.87573242 260.87890625 C-114.24367389 244.69194599 -116.69359221 228.8062421 -120 213 C-120.90480103 212.77812012 -120.90480103 212.77812012 -121.82788086 212.55175781 C-133.65826101 209.54662584 -144.68530351 203.17596194 -154.765625 196.4453125 C-156.7942534 195.13308784 -158.81781914 194.0310304 -161 193 C-160.64808594 193.50144531 -160.29617188 194.00289062 -159.93359375 194.51953125 C-144.37824423 218.36023665 -140.38922934 250.41371093 -146 278 C-151.06802694 299.86032748 -161.16130245 321.67211544 -178 337 C-182.27203459 339.14908162 -186.27178568 339.58637304 -191 339 C-196.67507225 336.99703332 -200.30675089 333.38649821 -203 328 C-203.815086 321.73548186 -203.2693187 317.2180734 -199.6171875 312.0390625 C-198.47633761 310.6005996 -197.31252328 309.18020559 -196.1328125 307.7734375 C-182.28787534 291.2349328 -175.45402932 269.52281062 -177 248 C-180.12135717 223.73632516 -190.24709852 202.70468968 -209.625 187.3125 C-228.0997318 174.12976298 -249.38805009 167.94833395 -272.0625 170.625 C-295.01775357 174.621791 -314.46845116 185.44908659 -329 204 C-342.39919309 223.49602782 -347.95393644 246.72916821 -343.875 270.0625 C-340.71410662 286.07847648 -333.13936093 299.35836525 -322.69921875 311.80859375 C-318.83901093 316.78693073 -318.32182697 320.8210902 -319 327 C-320.82534591 332.27322153 -323.60719203 334.79691086 -328 338 C-332.96475954 339.65491985 -337.16544761 339.75269894 -341.9609375 337.78515625 C-358.90510832 327.83208933 -369.2801716 303.3545009 -374.375 285.25 C-382.26986636 252.2732131 -377.33589874 220.27042247 -360.27148438 191.05175781 C-357.31711695 186.28437997 -353.78052479 182.13705115 -350 178 C-349.31679688 177.17628906 -348.63359375 176.35257813 -347.9296875 175.50390625 C-329.13142016 153.27200705 -300.68054217 140.23924602 -272.01171875 137.46484375 C-241.26716537 135.08742485 -212.59053751 143.32531891 -188 162 C-188.27150879 161.51869629 -188.54301758 161.03739258 -188.82275391 160.54150391 C-193.77037836 151.68686835 -198.38647078 142.90830283 -201.5625 133.25 C-201.8011377 132.52506348 -202.03977539 131.80012695 -202.28564453 131.05322266 C-203.64041591 126.71452445 -204.47412633 122.51424139 -205 118 C-207.5328731 117.30490801 -210.06661492 116.61327989 -212.6015625 115.92578125 C-214.95270225 115.28529835 -217.30153159 114.63629578 -219.6484375 113.98046875 C-258.04622411 103.4111811 -298.6530177 107.18243246 -333.5625 127 C-366.13858368 146.59892885 -391.7071814 176.87244422 -401.81396484 213.98925781 C-410.7996674 250.40530349 -408.53238808 287.42525377 -391 321 C-390.67692871 321.63856934 -390.35385742 322.27713867 -390.02099609 322.93505859 C-381.0879588 340.48564614 -368.0801601 356.267047 -352.7421875 368.6640625 C-349.29973947 371.59651823 -348.21401279 373.64383646 -347 378 C-346.62879014 383.4886029 -347.27143381 387.68601073 -350.8125 392 C-353.6045017 394.98579102 -356.24024526 396.74650099 -360.33203125 397.3359375 C-361.15058594 397.34882813 -361.96914063 397.36171875 -362.8125 397.375 C-363.62332031 397.40335937 -364.43414062 397.43171875 -365.26953125 397.4609375 C-371.91175004 396.33964735 -376.73635546 391.7547875 -381.4375 387.25 C-382.28924805 386.44405396 -382.28924805 386.44405396 -383.15820312 385.62182617 C-384.28021895 384.55690265 -385.39931614 383.48889358 -386.51513672 382.41748047 C-387.71406659 381.27295781 -388.93399351 380.15045436 -390.16015625 379.03515625 C-420.67000808 350.46860708 -438.31686259 305.37357948 -440.1262207 264.12231445 C-440.90426719 233.64018199 -436.20369647 204.65794993 -423 177 C-422.65598145 176.27619141 -422.31196289 175.55238281 -421.95751953 174.80664062 C-414.57050878 159.52982025 -405.12761202 145.75792918 -393.375 133.515625 C-390.97373383 131.04165799 -390.97373383 131.04165799 -388.89453125 128.36328125 C-385.99223822 124.7428951 -382.56082579 121.95839001 -379 119 C-378.1961084 118.32759277 -378.1961084 118.32759277 -377.37597656 117.64160156 C-368.96883055 110.64104465 -360.53681727 104.40419645 -351 99 C-349.8759375 98.34515625 -348.751875 97.6903125 -347.59375 97.015625 C-305.56960911 73.12340438 -256.16283179 70.2172537 -210 82 C-209.01 82.33 -208.02 82.66 -207 83 C-206.87044922 81.68902344 -206.87044922 81.68902344 -206.73828125 80.3515625 C-203.55322669 52.47502989 -192.48408901 28.28788806 -173 8 C-172.15695312 7.09378906 -171.31390625 6.18757813 -170.4453125 5.25390625 C-155.04238191 -10.84104007 -135.3076791 -21.09486953 -114 -27 C-112.81148438 -27.3403125 -111.62296875 -27.680625 -110.3984375 -28.03125 C-71.20555447 -37.25310483 -30.29486968 -25.5544854 0 0 Z " fill="#E95B70" transform="translate(455,30)"/>
<path d="M0 0 C3.31029114 3.41013751 6.43428283 6.96784531 9.53955078 10.56445312 C10.20986328 11.32242188 10.88017578 12.08039063 11.57080078 12.86132812 C12.72089463 14.16275012 13.86341977 15.47091853 14.99658203 16.78710938 C15.99511635 17.93731979 17.01245935 19.0715773 18.05126953 20.18554688 C36.40647335 40.27510066 41.60688001 70.29458104 40.53955078 96.56445312 C38.85701184 123.98156302 27.11002765 152.83961447 6.53955078 171.56445312 C2.26751619 173.71353475 -1.7322349 174.15082616 -6.46044922 173.56445312 C-12.13552147 171.56148645 -15.76720011 167.95095134 -18.46044922 162.56445312 C-19.27553522 156.29993498 -18.72976791 151.78252653 -15.07763672 146.60351562 C-13.93678683 145.16505273 -12.7729725 143.74465871 -11.59326172 142.33789062 C2.25167544 125.79938592 9.08552147 104.08726374 7.53955078 82.56445312 C4.41819362 58.30077829 -5.70754774 37.2691428 -25.08544922 21.87695312 C-43.56018102 8.69421611 -64.84849931 2.51278707 -87.52294922 5.18945312 C-110.47820279 9.18624413 -129.92890038 20.01353972 -144.46044922 38.56445312 C-157.8596423 58.06048095 -163.41438565 81.29362133 -159.33544922 104.62695312 C-156.17455584 120.64292961 -148.59981015 133.92281838 -138.15966797 146.37304688 C-134.29946015 151.35138386 -133.78227619 155.38554332 -134.46044922 161.56445312 C-136.28579513 166.83767465 -139.06764125 169.36136398 -143.46044922 172.56445312 C-148.42520875 174.21937297 -152.62589682 174.31715206 -157.42138672 172.34960938 C-174.36555753 162.39654246 -184.74062082 137.91895403 -189.83544922 119.81445312 C-197.73031557 86.83766622 -192.79634796 54.83487559 -175.73193359 25.61621094 C-172.77756617 20.84883309 -169.24097401 16.70150428 -165.46044922 12.56445312 C-164.77724609 11.74074219 -164.09404297 10.91703125 -163.39013672 10.06835938 C-144.19265954 -12.63566806 -115.6154689 -24.96075652 -86.52294922 -28.24804688 C-56.04047515 -29.99844104 -22.35011749 -21.96902221 0 0 Z " fill="#DEDDF5" transform="translate(270.46044921875,195.435546875)"/>
<path d="M0 0 C0.99 17.325 0.99 17.325 2 35 C-9 32 -9 32 -12.93359375 30.90234375 C-51.20345814 20.36426515 -91.79062928 24.26055241 -126.5625 44 C-159.13858368 63.59892885 -184.7071814 93.87244422 -194.81396484 130.98925781 C-203.7996674 167.40530349 -201.53238808 204.42525377 -184 238 C-183.67692871 238.63856934 -183.35385742 239.27713867 -183.02099609 239.93505859 C-174.0879588 257.48564614 -161.0801601 273.267047 -145.7421875 285.6640625 C-142.29973947 288.59651823 -141.21401279 290.64383646 -140 295 C-139.62879014 300.4886029 -140.27143381 304.68601073 -143.8125 309 C-146.6045017 311.98579102 -149.24024526 313.74650099 -153.33203125 314.3359375 C-154.15058594 314.34882813 -154.96914062 314.36171875 -155.8125 314.375 C-156.62332031 314.40335937 -157.43414062 314.43171875 -158.26953125 314.4609375 C-164.91175004 313.33964735 -169.73635546 308.7547875 -174.4375 304.25 C-175.28924805 303.44405396 -175.28924805 303.44405396 -176.15820312 302.62182617 C-177.28021895 301.55690265 -178.39931614 300.48889358 -179.51513672 299.41748047 C-180.71406659 298.27295781 -181.93399351 297.15045436 -183.16015625 296.03515625 C-213.67000808 267.46860708 -231.31686259 222.37357948 -233.1262207 181.12231445 C-233.90426719 150.64018199 -229.20369647 121.65794993 -216 94 C-215.65598145 93.27619141 -215.31196289 92.55238281 -214.95751953 91.80664062 C-207.57050878 76.52982025 -198.12761202 62.75792918 -186.375 50.515625 C-183.97373383 48.04165799 -183.97373383 48.04165799 -181.89453125 45.36328125 C-178.99223822 41.7428951 -175.56082579 38.95839001 -172 36 C-171.1961084 35.32759277 -171.1961084 35.32759277 -170.37597656 34.64160156 C-161.96883055 27.64104465 -153.53681727 21.40419645 -144 16 C-142.8759375 15.34515625 -141.751875 14.6903125 -140.59375 14.015625 C-99.14510323 -9.54940672 -45.34198565 -15.11399522 0 0 Z " fill="#DEDDF5" transform="translate(248,113)"/>
<path d="M0 0 C1.06347656 -0.04898438 2.12695312 -0.09796875 3.22265625 -0.1484375 C12.38447075 1.14250166 18.90192278 6.61122545 25.1328125 13.08203125 C25.85113251 13.80742599 26.56945251 14.53282074 27.30953979 15.28019714 C29.57267545 17.57103817 31.81767048 19.87873241 34.0625 22.1875 C35.60559839 23.75571182 37.14985937 25.32278057 38.6953125 26.88867188 C42.45623725 30.70434886 46.20247657 34.53397447 49.9375 38.375 C54.71003154 34.40621491 59.16969463 30.24881993 63.5 25.8046875 C64.7210628 24.56611894 65.942426 23.32784646 67.1640625 22.08984375 C69.05643799 20.16650212 70.946357 18.24092603 72.83105469 16.31005859 C74.67217399 14.42637835 76.52281001 12.55247479 78.375 10.6796875 C78.92937744 10.10668915 79.48375488 9.5336908 80.05493164 8.94332886 C84.52474163 4.44479107 88.95709087 0.83197367 95.40234375 -0.15625 C103.80128718 -0.08066896 109.70076779 0.34041803 115.90234375 6.24609375 C121.39982262 12.19326414 123.41181959 16.70990693 123.171875 24.83203125 C121.86780794 38.98115888 106.89982725 49.54460142 97.375 59 C96.16317574 60.2067946 94.95158566 61.41382439 93.74023438 62.62109375 C90.80867529 65.54177407 87.87398979 68.45927747 84.9375 71.375 C86.24886768 74.28464857 87.63644321 76.30597436 89.9309082 78.51611328 C90.53526199 79.10417755 91.13961578 79.69224182 91.76228333 80.29812622 C92.41436264 80.92419769 93.06644196 81.55026917 93.73828125 82.1953125 C95.12218468 83.54902961 96.50563366 84.90321144 97.88867188 86.2578125 C100.06237743 88.37599525 102.23968016 90.49005886 104.42553711 92.59570312 C122.68652247 110.22442596 122.68652247 110.22442596 123.5 121.4375 C123.12528673 128.05743447 120.758527 133.28081895 116.4375 138.25 C110.41844581 143.36619606 105.82355701 145.99658333 97.73812866 145.72953796 C88.90722102 144.61161324 82.45642367 138.60343038 76.5234375 132.44921875 C75.78292145 131.70162796 75.0424054 130.95403717 74.27944946 130.18379211 C71.94499926 127.821624 69.62866409 125.44258655 67.3125 123.0625 C65.72122342 121.44611165 64.12878554 119.83086569 62.53515625 118.21679688 C58.65575707 114.28262867 54.79103004 110.33450187 50.9375 106.375 C46.18284534 110.32218386 41.76552915 114.46117973 37.48046875 118.91015625 C36.27339929 120.14447981 35.06569728 121.37818503 33.85742188 122.61132812 C31.98873266 124.52315037 30.1241841 126.43834769 28.27026367 128.36450195 C12.17429869 145.05764068 12.17429869 145.05764068 0.9375 146 C-5.35247155 145.64340319 -10.9986942 143.10897025 -15.6953125 138.91796875 C-17 137.4375 -17 137.4375 -19.0625 134.375 C-19.660625 133.529375 -20.25875 132.68375 -20.875 131.8125 C-23.11405922 125.33101279 -23.47665797 117.97821725 -20.52075195 111.67529297 C-17.9305606 106.67006907 -14.24556615 103.05291231 -10.234375 99.15625 C-9.48536926 98.41290405 -8.73636353 97.66955811 -7.96466064 96.90368652 C-5.58989699 94.55116324 -3.20155553 92.2129991 -0.8125 89.875 C0.80821196 88.2743688 2.42801352 86.67281523 4.046875 85.0703125 C7.99994775 81.16114327 11.96423863 77.26364224 15.9375 73.375 C14.60177725 70.40063812 13.14341417 68.34176502 10.82055664 66.06274414 C10.18972672 65.43852066 9.55889679 64.81429718 8.90895081 64.17115784 C8.2287236 63.50752731 7.5484964 62.84389679 6.84765625 62.16015625 C6.14732773 61.46740097 5.44699921 60.77464569 4.72544861 60.06089783 C1.73301757 57.10112565 -1.27106875 54.15328466 -4.27416992 51.2043457 C-6.46682741 49.04789505 -8.65344226 46.8854466 -10.83984375 44.72265625 C-11.51804672 44.06104996 -12.19624969 43.39944366 -12.89500427 42.7177887 C-19.14340052 36.5345042 -22.1141699 31.61240046 -22.5 22.75 C-22.43409502 16.00297807 -20.37050248 11.51074095 -16.0625 6.375 C-11.12985781 1.85861454 -6.62355485 0.20525915 0 0 Z " fill="#DEDCF4" transform="translate(322.0625,51.625)"/>
<path d="M0 0 C8.73288112 6.36464217 15.19399188 14.81641017 17.4296875 25.4921875 C18.61110437 37.56212683 17.24347617 48.72495166 9.4296875 58.4921875 C4.62555344 63.97190291 0.18617746 67.69639855 -6.5703125 70.4921875 C-7.2303125 70.4921875 -7.8903125 70.4921875 -8.5703125 70.4921875 C-8.48269905 71.36610138 -8.3950856 72.24001526 -8.3048172 73.14041138 C-6.17225912 94.4146837 -4.04407281 115.6893894 -1.92073822 136.96458435 C-0.89380071 147.25313521 0.13461035 157.54153477 1.16650391 167.82958984 C2.06600437 176.79771379 2.96272633 185.76611049 3.85612726 194.73484421 C4.3291739 199.48271706 4.803601 204.23044274 5.28135681 208.97784424 C5.73128023 213.44911945 6.17747871 217.92075097 6.62086296 222.39267921 C6.78395923 224.03104065 6.94839846 225.66926906 7.1143055 227.30734825 C7.341305 229.55066127 7.56338461 231.79441107 7.78430176 234.03833008 C7.9096656 235.29196854 8.03502945 236.54560699 8.1641922 237.8372345 C9.00961225 249.47574773 9.00961225 249.47574773 6.8046875 253.7421875 C6.50304687 254.36609375 6.20140625 254.99 5.890625 255.6328125 C3.3970018 258.80651475 0.43299562 261.12162475 -3.61245728 261.86993408 C-5.98206798 262.01948102 -8.32108201 262.04673472 -10.6953125 262.0234375 C-11.99299561 262.02917786 -11.99299561 262.02917786 -13.31689453 262.03503418 C-15.13900929 262.03774615 -16.96116346 262.03043516 -18.78320312 262.01367188 C-21.56208619 261.99225091 -24.33838423 262.01349672 -27.1171875 262.0390625 C-28.89323484 262.0364191 -30.66928057 262.03129385 -32.4453125 262.0234375 C-33.27047363 262.03153442 -34.09563477 262.03963135 -34.94580078 262.04797363 C-40.28094453 261.96184304 -43.3448701 261.03579715 -47.5703125 257.4921875 C-54.81327929 247.96196804 -51.15509717 234.93942499 -50.00976562 223.75146484 C-49.84185433 222.07517687 -49.67438073 220.398845 -49.50730896 218.72247314 C-49.05514339 214.1979622 -48.59689866 209.67408571 -48.13751793 205.15030241 C-47.65749179 200.41278468 -47.18311724 195.67470111 -46.70812988 190.93667603 C-45.80899757 181.97636601 -44.90482107 173.01657257 -43.99880838 164.05695593 C-42.96708934 153.85175032 -41.94102962 143.64597817 -40.91543293 133.44015574 C-38.8066667 112.4568655 -36.69083333 91.4742929 -34.5703125 70.4921875 C-35.33996338 70.35876953 -36.10961426 70.22535156 -36.90258789 70.08789062 C-43.77140666 68.55408283 -50.05861912 62.77904128 -54.0078125 57.1171875 C-54.89747813 55.59573034 -55.752804 54.05360245 -56.5703125 52.4921875 C-56.98152344 51.76773438 -57.39273438 51.04328125 -57.81640625 50.296875 C-62.33528143 41.07148969 -62.14195739 29.0733473 -58.9453125 19.4296875 C-54.29419156 8.6586706 -46.34803219 0.98470392 -35.5703125 -3.5078125 C-24.12284737 -7.99701451 -10.49074712 -6.15414649 0 0 Z " fill="#4A66A0" transform="translate(215.5703125,250.5078125)"/>
<path d="M0 0 C5.86655204 0.96240121 11.72415849 1.94039101 17.5625 3.0625 C23.01590245 4.07209491 28.47224972 4.59370501 34 5 C45.69462683 42.73728322 36.21642052 89.25545196 18.66552734 123.61230469 C13.27688986 133.69179806 7.23176022 143.14078782 0 152 C-0.42780762 152.52787109 -0.85561523 153.05574219 -1.29638672 153.59960938 C-24.99943499 182.72269209 -24.99943499 182.72269209 -36.3671875 184.3359375 C-42.12461678 184.42561708 -45.50632672 183.95871218 -50 180 C-54.09760606 175.4594095 -55.08442365 172.33518763 -55.328125 166.23046875 C-54.29268037 159.19191058 -49.45557567 155.28329649 -44.4375 150.8125 C-14.77099375 123.59771621 2.75577179 88.30619784 5.12426758 47.87890625 C5.75632611 31.69194599 3.30640779 15.8062421 0 0 Z " fill="#DEDDF5" transform="translate(335,243)"/>
<path d="M0 0 C10.71747663 -0.72660859 20.78234395 1.92210367 29.00390625 9.02734375 C37.76448256 17.68505615 42.31997747 26.53161016 42.5 39 C42.37231089 50.66364496 38.22833274 59.57837749 30.375 68.0625 C25.63943685 72.67414187 20.070304 76.43433842 13.4140625 77.359375 C11 77 11 77 9.19140625 75.453125 C-2.28388017 59.93259373 -8.16202498 42.31179283 -6 23 C-4.71357664 15.14849618 -2.59487375 7.51578298 0 0 Z " fill="#677CAA" transform="translate(191,245)"/>
<path d="M0 0 C5.40843403 0.54574108 9.75166931 1.88446426 14.6875 4.125 C15.38375488 4.43703369 16.08000977 4.74906738 16.79736328 5.07055664 C32.2185383 12.11604186 43.91662317 21.21580143 55 34 C55.97646484 35.10601562 55.97646484 35.10601562 56.97265625 36.234375 C58.12927121 37.54605263 59.27938908 38.86349763 60.421875 40.1875 C61.43415878 41.35012296 62.46417601 42.49767325 63.515625 43.625 C74.62381933 55.78554959 83.44645457 75.43813704 84.125 92.0625 C84.08375 92.701875 84.0425 93.34125 84 94 C69.64783987 87.15176115 57.21310693 79.26441215 45 69 C44.11699219 68.29617187 43.23398437 67.59234375 42.32421875 66.8671875 C39.66319355 64.72942272 37.36227734 62.46965358 35 60 C34.01 58.96746094 34.01 58.96746094 33 57.9140625 C21.09889165 45.145165 0 18.49983916 0 0 Z " fill="#C7C4EA" transform="translate(225,172)"/>
<path d="M0 0 C7.10165989 0.50371127 13.75003206 1.74525361 20.625 3.5625 C25.265625 4.7690625 25.265625 4.7690625 30 6 C30.66 17.55 31.32 29.1 32 41 C28.37 40.01 24.74 39.02 21 38 C17.16142343 36.98337416 13.32137513 35.97262635 9.48046875 34.96484375 C7.75763672 34.48724609 7.75763672 34.48724609 6 34 C4.88238281 33.69191406 3.76476562 33.38382813 2.61328125 33.06640625 C1.31970703 32.53853516 1.31970703 32.53853516 0 32 C-1.04316223 28.87051332 -1.12913269 26.66156237 -1.1328125 23.37890625 C-1.13410156 22.27869141 -1.13539063 21.17847656 -1.13671875 20.04492188 C-1.13285156 18.89572266 -1.12898437 17.74652344 -1.125 16.5625 C-1.13080078 14.84450195 -1.13080078 14.84450195 -1.13671875 13.09179688 C-1.13542969 11.99029297 -1.13414062 10.88878906 -1.1328125 9.75390625 C-1.13168457 8.74658447 -1.13055664 7.7392627 -1.12939453 6.70141602 C-1.01454555 4.30367261 -0.68646802 2.29015822 0 0 Z " fill="#C7C4EA" transform="translate(218,107)"/>
<path d="M0 0 C5.86655204 0.96240121 11.72415849 1.94039101 17.5625 3.0625 C23.01590245 4.07209491 28.47224972 4.59370501 34 5 C36.34839145 12.67141207 37.15165998 19.93367711 37.0625 27.9375 C37.05798828 28.71673828 37.05347656 29.49597656 37.04882812 30.29882812 C37.03716908 32.19925268 37.01923877 34.09963706 37 36 C11.75 36.5 11.75 36.5 5 32 C4.41577148 29.91210938 4.41577148 29.91210938 4.12109375 27.34375 C4.00443359 26.40273438 3.88777344 25.46171875 3.76757812 24.4921875 C3.65865234 23.50476563 3.54972656 22.51734375 3.4375 21.5 C2.58277379 14.2519217 1.54847677 7.1356936 0 0 Z " fill="#C7C4E9" transform="translate(335,243)"/>
<path d="M0 0 C0.99 0.33 1.98 0.66 3 1 C3.338329 4.20782685 3.66976146 7.41633098 4 10.625 C4.09539062 11.52863281 4.19078125 12.43226563 4.2890625 13.36328125 C4.75579891 17.93063039 5.12222799 22.40117188 5 27 C-0.04878098 28.01946539 -4.87586409 28.15036701 -10 28.125 C-10.78117188 28.12886719 -11.56234375 28.13273437 -12.3671875 28.13671875 C-16.68992831 28.12944141 -20.74356845 27.85947175 -25 27 C-24.85721774 24.3539713 -24.71083736 21.70821857 -24.5625 19.0625 C-24.52318359 18.32708984 -24.48386719 17.59167969 -24.44335938 16.83398438 C-24.14216828 11.5283874 -23.62366671 6.27758299 -23 1 C-22.37432129 1.00523682 -21.74864258 1.01047363 -21.10400391 1.01586914 C-18.27767943 1.03661618 -15.45137095 1.04965286 -12.625 1.0625 C-11.64015625 1.07087891 -10.6553125 1.07925781 -9.640625 1.08789062 C-8.69960937 1.09111328 -7.75859375 1.09433594 -6.7890625 1.09765625 C-5.91975098 1.10289307 -5.05043945 1.10812988 -4.15478516 1.11352539 C-1.94950006 1.14122351 -1.94950006 1.14122351 0 0 Z " fill="#2B4F95" transform="translate(204,321)"/>
</svg>
