<?xml version="1.0" encoding="UTF-8"?>
<svg version="1.1" xmlns="http://www.w3.org/2000/svg" width="512" height="512">
<path d="M0 0 C1.82380804 -0.00532841 3.64761169 -0.01239579 5.471407 -0.02104706 C10.47135702 -0.03966214 15.47101062 -0.03337325 20.4709729 -0.02289402 C25.86781061 -0.01589886 31.26458764 -0.03190237 36.66140747 -0.04489136 C47.22942821 -0.06653114 57.79734127 -0.06640451 68.36537688 -0.05826581 C76.9549046 -0.05196549 85.54440092 -0.05310315 94.1339283 -0.05953789 C95.35653133 -0.06043954 96.57913436 -0.0613412 97.83878596 -0.06227018 C100.32250886 -0.06412138 102.80623174 -0.06598394 105.28995461 -0.06785773 C128.57986553 -0.08443611 151.86971587 -0.07571663 175.15962315 -0.05887216 C196.46603932 -0.04417492 217.77225019 -0.05880388 239.07865327 -0.08764232 C260.95830198 -0.11703604 282.83788561 -0.12800867 304.7175532 -0.11846012 C307.19243498 -0.11743757 309.66731676 -0.11644296 312.14219856 -0.11547661 C313.35987329 -0.11500022 314.57754802 -0.11452383 315.83212198 -0.114033 C324.41015982 -0.11186886 332.98813603 -0.12167299 341.5661602 -0.13624763 C352.02171044 -0.15376457 362.47708088 -0.15366263 372.93262403 -0.13089598 C378.26656243 -0.11974818 383.60018397 -0.11660377 388.93410873 -0.13519669 C393.81898309 -0.15200514 398.70326431 -0.14564515 403.58810026 -0.1209799 C405.35313621 -0.11609746 407.11822003 -0.11960997 408.8832159 -0.13246734 C419.28090477 -0.20273187 428.3219337 0.01195593 436.33222908 7.50439733 C443.94293256 15.43052069 444.64290361 22.66797934 444.56573486 33.27709961 C444.56829814 34.56531602 444.57086141 35.85353244 444.57350236 37.18078572 C444.5801939 40.74516651 444.56823323 44.30927563 444.55316818 47.87362182 C444.54019275 51.72152356 444.54459834 55.56941042 444.546875 59.41732788 C444.54844678 66.08035336 444.53904753 72.74329059 444.52216148 79.40629387 C444.49776316 89.03982112 444.48996536 98.67330577 444.48619751 108.30686057 C444.47963434 123.937269 444.4596768 139.5676304 444.43128967 155.19801331 C444.40374564 170.37997706 444.38251374 185.56192804 444.36976624 200.74391174 C444.36897806 201.67998929 444.36818989 202.61606684 444.36737784 203.58051037 C444.36346268 208.27661422 444.35967157 212.97271817 444.35594213 217.66882217 C444.32485039 256.61746893 444.27201823 295.56606321 444.20497131 334.5146637 C442.97738098 334.30136414 442.97738098 334.30136414 441.72499084 334.08375549 C440.64846252 333.89982239 439.5719342 333.71588928 438.46278381 333.52638245 C437.39689026 333.34293274 436.3309967 333.15948303 435.23280334 332.97047424 C428.04114611 331.88784047 421.52133438 332.78302739 414.20497131 333.5146637 C414.53497131 345.3946637 414.86497131 357.2746637 415.20497131 369.5146637 C417.51497131 367.5346637 419.82497131 365.5546637 422.20497131 363.5146637 C426.15646005 361.53891933 430.89811589 362.08276153 435.20497131 362.5146637 C439.02475333 364.28813392 440.68834008 365.77415893 443.07997131 369.2021637 C444.49080919 373.35629746 445.12136511 377.18524418 444.20497131 381.5146637 C441.0266577 386.96737148 436.85218248 391.12665566 432.37684631 395.5381012 C431.62784058 396.28427704 430.87883484 397.03045288 430.10713196 397.79924011 C427.7277553 400.16747498 425.34149889 402.52863733 422.95497131 404.8896637 C421.33471954 406.49987794 419.7149228 408.11055018 418.09559631 409.72169495 C414.13730777 413.65800276 410.17335637 417.58853628 406.20497131 421.5146637 C410.24740745 426.38257503 414.50141325 430.91437926 419.02919006 435.33106995 C420.31788695 436.60226503 421.60628981 437.87375824 422.89442444 439.14552307 C424.89908427 441.11917159 426.90598546 443.09036837 428.91810608 445.05641174 C430.878629 446.974496 432.82948519 448.90199853 434.77919006 450.83106995 C435.67924019 451.70318871 435.67924019 451.70318871 436.59747314 452.59292603 C440.51486001 456.48619248 443.60238103 460.25741891 444.63856506 465.8584137 C444.65008352 472.21660072 442.81293098 475.48943048 438.64247131 480.3271637 C435.85493761 482.62990893 432.86095876 482.72593288 429.39247131 482.8271637 C428.561026 482.86454651 427.72958069 482.90192932 426.87294006 482.94044495 C419.92429311 481.83151007 414.89253594 475.46576991 410.18153381 470.6865387 C409.43535797 469.93753296 408.68918213 469.18852722 407.9203949 468.41682434 C405.55216003 466.03744769 403.19099768 463.65119127 400.82997131 461.2646637 C399.21975707 459.64441192 397.60908483 458.02461518 395.99794006 456.4052887 C392.06163225 452.44700016 388.13109873 448.48304875 384.20497131 444.5146637 C379.25052165 448.66124951 374.62329664 452.98384517 370.09950256 457.5927887 C368.77346216 458.93146061 367.44728637 460.26999842 366.12098694 461.6084137 C364.0585906 463.69571761 361.9978463 465.78460461 359.93959045 467.87599182 C357.93477259 469.91097339 355.92381105 471.93972129 353.91200256 473.9677887 C352.99158928 474.90839142 352.99158928 474.90839142 352.05258179 475.86799622 C351.1859919 476.73965424 351.1859919 476.73965424 350.30189514 477.62892151 C349.79894424 478.13932983 349.29599335 478.64973816 348.77780151 479.1756134 C344.67279545 482.67046591 340.90204819 482.94648425 335.67762756 482.83106995 C330.93755823 482.22452079 328.25614026 479.85581028 325.39247131 476.2021637 C323.26868732 471.39570518 322.82724576 467.91994728 324.20033264 462.8115387 C326.31316362 457.4887813 330.09447898 453.99720426 334.15419006 450.0771637 C334.92680679 449.3116217 335.69942352 448.54607971 336.49545288 447.75733948 C338.9495752 445.33105504 341.42055453 442.92280305 343.89247131 440.5146637 C345.5661439 438.8660873 347.23868285 437.21635917 348.91004944 435.56544495 C352.99532927 431.5350939 357.09456751 427.51938003 361.20497131 423.5146637 C355.80611887 412.22957947 344.28894771 399.40041128 333.20497131 393.5146637 C321.90459588 389.75448064 308.84839922 391.22313371 297.20497131 392.5146637 C300.98852425 400.37183287 305.21148151 406.09898071 311.64247131 411.9521637 C313.11049818 413.29308867 314.56818405 414.64545295 316.01356506 416.01075745 C316.6509259 416.59011047 317.28828674 417.1694635 317.94496155 417.76637268 C319.20497131 419.5146637 319.20497131 419.5146637 319.07289124 421.55567932 C317.58839355 424.90634301 314.72044187 427.11853068 312.07997131 429.5771637 C302.84818793 438.49265202 294.74903863 449.35452286 294.03700256 462.65138245 C294.03055725 463.82314026 294.02411194 464.99489807 294.01747131 466.2021637 C294.00329163 467.36103088 293.98911194 468.51989807 293.97450256 469.71388245 C294.15913812 472.75880436 294.53869247 475.30843076 295.21937561 478.25221252 C295.40292099 479.05322891 295.58646637 479.8542453 295.77557373 480.67953491 C295.91727493 481.28512741 296.05897614 481.89071991 296.20497131 482.5146637 C256.48384067 482.60623058 216.76272379 482.67670819 177.04150868 482.71892501 C172.35144852 482.72392781 167.66138858 482.7291051 162.97132874 482.73439026 C162.03762711 482.7354395 161.10392548 482.73648874 160.14192986 482.73756978 C145.0260055 482.75497229 129.91014202 482.78650915 114.79425377 482.82327488 C99.28253389 482.86068856 83.77084589 482.88290046 68.25908273 482.89101768 C58.68842897 482.89650456 49.11794731 482.91383086 39.54734652 482.94632956 C32.98332494 482.96748271 26.41939225 482.97386193 19.85533906 482.96866921 C16.06888283 482.96610866 12.28272723 482.97001794 8.49632454 482.9914856 C4.38733787 483.01461157 0.27898947 483.00660337 -3.83004761 482.99568176 C-5.02169885 483.00733313 -6.21335009 483.01898449 -7.44111198 483.03098893 C-16.77704064 482.96389666 -24.33137426 480.80459249 -31.23791224 474.29377693 C-38.91571878 465.52135195 -38.50326368 455.5809588 -38.42321777 444.59265137 C-38.42826715 442.7672662 -38.43549899 440.941886 -38.44471592 439.11651713 C-38.46360927 434.11682289 -38.45142079 429.11761914 -38.43399298 424.11793745 C-38.42060661 418.71977326 -38.43606061 413.32168024 -38.44781494 407.92352295 C-38.46618597 397.35527377 -38.45768289 386.78720958 -38.43972672 376.21896618 C-38.4256971 367.62992782 -38.4218087 359.04093966 -38.42516899 350.45189095 C-38.42564643 349.22913468 -38.42612388 348.00637842 -38.42661579 346.74656894 C-38.42764212 344.26252185 -38.42869748 341.77847477 -38.42978155 339.2944277 C-38.43834744 317.33354163 -38.42167678 295.37274484 -38.39195251 273.41188049 C-38.36311187 252.10354863 -38.35603339 230.79542185 -38.3714447 209.48707581 C-38.38820595 186.28047171 -38.39224209 163.07392866 -38.37473434 139.86732298 C-38.37288996 137.39275556 -38.37105523 134.91818812 -38.36923027 132.44362068 C-38.36831818 131.22610023 -38.36740609 130.00857978 -38.36646636 128.75416477 C-38.36086078 120.1751592 -38.36416833 111.59618344 -38.37077522 103.01717949 C-38.37850685 92.56273443 -38.37176173 82.10841595 -38.34660018 71.6539964 C-38.33410173 66.3202219 -38.32796298 60.98664453 -38.33914185 55.65286255 C-38.34918371 50.76937759 -38.3407255 45.88628571 -38.31756067 41.00284857 C-38.31240215 39.23719139 -38.31396182 37.47149897 -38.32295532 35.70585715 C-38.36942642 25.75381177 -38.12009278 17.62868374 -32.18955994 9.24513245 C-31.66748962 8.73595276 -31.14541931 8.22677307 -30.60752869 7.7021637 C-30.098349 7.18009338 -29.58916931 6.65802307 -29.06455994 6.12013245 C-19.92742521 -0.3434861 -10.77085169 -0.05486257 0 0 Z M376.20497131 392.5146637 C377.11247131 393.6696637 378.01997131 394.8246637 378.95497131 396.0146637 C379.46544006 396.6643512 379.97590881 397.3140387 380.50184631 397.9834137 C382.31901427 399.96038884 382.31901427 399.96038884 386.20497131 399.5146637 C387.9825789 398.00456443 387.9825789 398.00456443 389.45497131 396.0146637 C390.81622131 394.2821637 390.81622131 394.2821637 392.20497131 392.5146637 C386.92497131 392.5146637 381.64497131 392.5146637 376.20497131 392.5146637 Z " fill="#FEFEFE" transform="translate(37.79502868652344,-0.5146636962890625)"/>
<path d="M0 0 C1.82380804 -0.00532841 3.64761169 -0.01239579 5.471407 -0.02104706 C10.47135702 -0.03966214 15.47101062 -0.03337325 20.4709729 -0.02289402 C25.86781061 -0.01589886 31.26458764 -0.03190237 36.66140747 -0.04489136 C47.22942821 -0.06653114 57.79734127 -0.06640451 68.36537688 -0.05826581 C76.9549046 -0.05196549 85.54440092 -0.05310315 94.1339283 -0.05953789 C95.35653133 -0.06043954 96.57913436 -0.0613412 97.83878596 -0.06227018 C100.32250886 -0.06412138 102.80623174 -0.06598394 105.28995461 -0.06785773 C128.57986553 -0.08443611 151.86971587 -0.07571663 175.15962315 -0.05887216 C196.46603932 -0.04417492 217.77225019 -0.05880388 239.07865327 -0.08764232 C260.95830198 -0.11703604 282.83788561 -0.12800867 304.7175532 -0.11846012 C307.19243498 -0.11743757 309.66731676 -0.11644296 312.14219856 -0.11547661 C313.35987329 -0.11500022 314.57754802 -0.11452383 315.83212198 -0.114033 C324.41015982 -0.11186886 332.98813603 -0.12167299 341.5661602 -0.13624763 C352.02171044 -0.15376457 362.47708088 -0.15366263 372.93262403 -0.13089598 C378.26656243 -0.11974818 383.60018397 -0.11660377 388.93410873 -0.13519669 C393.81898309 -0.15200514 398.70326431 -0.14564515 403.58810026 -0.1209799 C405.35313621 -0.11609746 407.11822003 -0.11960997 408.8832159 -0.13246734 C419.28090477 -0.20273187 428.3219337 0.01195593 436.33222908 7.50439733 C443.94293256 15.43052069 444.64290361 22.66797934 444.56573486 33.27709961 C444.56829814 34.56531602 444.57086141 35.85353244 444.57350236 37.18078572 C444.5801939 40.74516651 444.56823323 44.30927563 444.55316818 47.87362182 C444.54019275 51.72152356 444.54459834 55.56941042 444.546875 59.41732788 C444.54844678 66.08035336 444.53904753 72.74329059 444.52216148 79.40629387 C444.49776316 89.03982112 444.48996536 98.67330577 444.48619751 108.30686057 C444.47963434 123.937269 444.4596768 139.5676304 444.43128967 155.19801331 C444.40374564 170.37997706 444.38251374 185.56192804 444.36976624 200.74391174 C444.36897806 201.67998929 444.36818989 202.61606684 444.36737784 203.58051037 C444.36346268 208.27661422 444.35967157 212.97271817 444.35594213 217.66882217 C444.32485039 256.61746893 444.27201823 295.56606321 444.20497131 334.5146637 C442.97738098 334.30136414 442.97738098 334.30136414 441.72499084 334.08375549 C440.64846252 333.89982239 439.5719342 333.71588928 438.46278381 333.52638245 C437.39689026 333.34293274 436.3309967 333.15948303 435.23280334 332.97047424 C429.71825576 332.14031295 424.49982692 332.4581309 418.96278381 333.02638245 C417.62304504 333.16306335 417.62304504 333.16306335 416.25624084 333.30250549 C415.5793219 333.3725177 414.90240295 333.44252991 414.20497131 333.5146637 C414.2039945 332.90119485 414.2030177 332.287726 414.20201129 331.65566719 C414.14375374 295.30573761 414.06996795 258.95587042 413.97598503 222.60601502 C413.96471671 218.24255705 413.95357829 213.87909876 413.94252014 209.51564026 C413.93921462 208.2125977 413.93921462 208.2125977 413.93584231 206.88323106 C413.90045889 192.81289894 413.87560066 178.74256688 413.85462429 164.67220674 C413.83287056 150.23736372 413.79982422 135.80257849 413.75626975 121.36778462 C413.72974566 112.45897465 413.71205588 103.55023671 413.70562527 94.64138921 C413.70037371 88.53430063 413.68416453 82.42730272 413.65930565 76.32026272 C413.64528267 72.79551138 413.63612279 69.27092241 413.63996315 65.74614143 C413.64399998 61.92519777 413.62497906 58.10456721 413.60369873 54.28367615 C413.60854631 53.16888724 413.61339388 52.05409834 413.61838835 50.90552795 C413.56742748 45.37853812 413.41354384 41.24141228 410.20497131 36.5146637 C405.49317257 32.26255264 403.01403031 31.38972496 396.72868729 31.38044262 C395.71489791 31.37691427 395.71489791 31.37691427 394.68062794 31.37331465 C392.39349951 31.36660534 390.10642763 31.36708345 387.81929016 31.36749268 C386.17191918 31.36419525 384.524549 31.36046994 382.87717986 31.3563512 C378.3326515 31.34630927 373.78813635 31.34261089 369.24359846 31.33996189 C364.34912521 31.33606533 359.45466248 31.32648657 354.56019592 31.31774902 C342.73146011 31.29796642 330.90272343 31.28791621 319.07397521 31.27902123 C313.50799797 31.27464134 307.9420217 31.26927377 302.37604523 31.26403236 C283.88103559 31.24701842 265.38602655 31.23252324 246.89101028 31.22528362 C242.08908843 31.22337363 237.28716658 31.22145331 232.48524475 31.21949768 C230.69493319 31.21877207 230.69493319 31.21877207 228.86845371 31.2180318 C209.52475751 31.20972777 190.18112308 31.1843853 170.83745387 31.151917 C150.99208255 31.1188773 131.14674266 31.10083767 111.30134368 31.09763938 C100.1530536 31.09547144 89.0048536 31.08668126 77.85659027 31.06117821 C68.3640424 31.03951339 58.87160648 31.03139996 49.37903669 31.04114499 C44.53375441 31.04570193 39.6887033 31.04372276 34.84345245 31.02438354 C30.4094725 31.00683833 25.97589384 31.00767888 21.54191014 31.02328084 C19.93621619 31.02567011 18.33049509 31.02126543 16.72484282 31.00945219 C14.54427842 30.99440044 12.3651483 31.00395711 10.1846199 31.01967907 C8.97287731 31.01870226 7.76113472 31.01772545 6.51267266 31.01671904 C1.452192 31.77852884 -1.6079611 34.31264296 -5.13759232 37.88673592 C-7.7533191 43.61224551 -7.35126465 49.36104817 -7.31401062 55.56150818 C-7.31988761 57.01449931 -7.32751557 58.46748423 -7.33674169 59.92045796 C-7.35700715 63.90896345 -7.35244677 67.89711337 -7.34383416 71.88564682 C-7.33889202 76.18828089 -7.35697086 80.49082535 -7.37225342 84.79342651 C-7.39557588 92.24657615 -7.40431351 99.69962847 -7.40314484 107.15281296 C-7.40147622 117.92884233 -7.42180395 128.70474187 -7.44750014 139.48073663 C-7.48859309 156.96404453 -7.51189709 174.4473291 -7.52403259 191.93067932 C-7.53585914 208.91410064 -7.5560978 225.89747778 -7.58750916 242.88087463 C-7.59042743 244.467178 -7.59042743 244.467178 -7.59340465 246.0855279 C-7.60868554 254.35615326 -7.62445433 262.62677767 -7.64037728 270.89740181 C-7.7182999 311.43648191 -7.75366641 351.97549797 -7.79502869 392.5146637 C92.85497131 392.5146637 193.50497131 392.5146637 297.20497131 392.5146637 C299.18497131 396.1446637 301.16497131 399.7746637 303.20497131 403.5146637 C305.97335792 406.49297536 308.65405684 409.23225007 311.64247131 411.9521637 C313.11049818 413.29308867 314.56818405 414.64545295 316.01356506 416.01075745 C316.6509259 416.59011047 317.28828674 417.1694635 317.94496155 417.76637268 C319.20497131 419.5146637 319.20497131 419.5146637 319.07289124 421.55567932 C317.58839355 424.90634301 314.72044187 427.11853068 312.07997131 429.5771637 C302.84818793 438.49265202 294.74903863 449.35452286 294.03700256 462.65138245 C294.03055725 463.82314026 294.02411194 464.99489807 294.01747131 466.2021637 C294.00329163 467.36103088 293.98911194 468.51989807 293.97450256 469.71388245 C294.15913812 472.75880436 294.53869247 475.30843076 295.21937561 478.25221252 C295.40292099 479.05322891 295.58646637 479.8542453 295.77557373 480.67953491 C295.91727493 481.28512741 296.05897614 481.89071991 296.20497131 482.5146637 C256.48384067 482.60623058 216.76272379 482.67670819 177.04150868 482.71892501 C172.35144852 482.72392781 167.66138858 482.7291051 162.97132874 482.73439026 C162.03762711 482.7354395 161.10392548 482.73648874 160.14192986 482.73756978 C145.0260055 482.75497229 129.91014202 482.78650915 114.79425377 482.82327488 C99.28253389 482.86068856 83.77084589 482.88290046 68.25908273 482.89101768 C58.68842897 482.89650456 49.11794731 482.91383086 39.54734652 482.94632956 C32.98332494 482.96748271 26.41939225 482.97386193 19.85533906 482.96866921 C16.06888283 482.96610866 12.28272723 482.97001794 8.49632454 482.9914856 C4.38733787 483.01461157 0.27898947 483.00660337 -3.83004761 482.99568176 C-5.02169885 483.00733313 -6.21335009 483.01898449 -7.44111198 483.03098893 C-16.77704064 482.96389666 -24.33137426 480.80459249 -31.23791224 474.29377693 C-38.91571878 465.52135195 -38.50326368 455.5809588 -38.42321777 444.59265137 C-38.42826715 442.7672662 -38.43549899 440.941886 -38.44471592 439.11651713 C-38.46360927 434.11682289 -38.45142079 429.11761914 -38.43399298 424.11793745 C-38.42060661 418.71977326 -38.43606061 413.32168024 -38.44781494 407.92352295 C-38.46618597 397.35527377 -38.45768289 386.78720958 -38.43972672 376.21896618 C-38.4256971 367.62992782 -38.4218087 359.04093966 -38.42516899 350.45189095 C-38.42564643 349.22913468 -38.42612388 348.00637842 -38.42661579 346.74656894 C-38.42764212 344.26252185 -38.42869748 341.77847477 -38.42978155 339.2944277 C-38.43834744 317.33354163 -38.42167678 295.37274484 -38.39195251 273.41188049 C-38.36311187 252.10354863 -38.35603339 230.79542185 -38.3714447 209.48707581 C-38.38820595 186.28047171 -38.39224209 163.07392866 -38.37473434 139.86732298 C-38.37288996 137.39275556 -38.37105523 134.91818812 -38.36923027 132.44362068 C-38.36831818 131.22610023 -38.36740609 130.00857978 -38.36646636 128.75416477 C-38.36086078 120.1751592 -38.36416833 111.59618344 -38.37077522 103.01717949 C-38.37850685 92.56273443 -38.37176173 82.10841595 -38.34660018 71.6539964 C-38.33410173 66.3202219 -38.32796298 60.98664453 -38.33914185 55.65286255 C-38.34918371 50.76937759 -38.3407255 45.88628571 -38.31756067 41.00284857 C-38.31240215 39.23719139 -38.31396182 37.47149897 -38.32295532 35.70585715 C-38.36942642 25.75381177 -38.12009278 17.62868374 -32.18955994 9.24513245 C-31.66748962 8.73595276 -31.14541931 8.22677307 -30.60752869 7.7021637 C-30.098349 7.18009338 -29.58916931 6.65802307 -29.06455994 6.12013245 C-19.92742521 -0.3434861 -10.77085169 -0.05486257 0 0 Z " fill="#CCCCCC" transform="translate(37.79502868652344,-0.5146636962890625)"/>
<path d="M0 0 C0.66 0 1.32 0 2 0 C3.26171875 1.35424805 3.26171875 1.35424805 4.6875 3.26171875 C5.21625732 3.96200195 5.74501465 4.66228516 6.28979492 5.38378906 C6.8541626 6.14401367 7.41853027 6.90423828 8 7.6875 C9.18339932 9.25926099 10.36699489 10.83087424 11.55078125 12.40234375 C12.13682129 13.18464355 12.72286133 13.96694336 13.32666016 14.77294922 C15.589268 17.78425775 17.88501842 20.76914188 20.1875 23.75 C20.98542969 24.78640625 21.78335937 25.8228125 22.60546875 26.890625 C23.39566406 27.91671875 24.18585938 28.9428125 25 30 C26.66695292 32.16644651 28.33347413 34.33322497 30 36.5 C30.83332547 37.58333938 31.6666588 38.66667272 32.5 39.75 C44.16666667 54.91666667 55.83333333 70.08333333 67.5 85.25 C67.9122583 85.78592773 68.3245166 86.32185547 68.74926758 86.87402344 C69.58507376 87.96058779 70.42084835 89.04717645 71.2565918 90.13378906 C73.30183636 92.79288548 75.34769991 95.4514994 77.39453125 98.109375 C82.66896038 104.96016824 87.92625547 111.82383909 93.17626953 118.69335938 C98.10385391 125.13947094 103.04943004 131.57152742 108 138 C109.24847791 139.62257768 110.49671499 141.24534033 111.74487305 142.86816406 C112.57567098 143.94831449 113.40656155 145.02839367 114.23754883 146.10839844 C116.39685547 148.91485885 118.55484922 151.7223161 120.7109375 154.53125 C121.15695312 155.11197266 121.60296875 155.69269531 122.0625 156.29101562 C123.2998068 157.90209218 124.53663757 159.51353429 125.7734375 161.125 C127.82316366 163.77166395 129.90065825 166.39259837 132 169 C131.67 169.66 131.34 170.32 131 171 C130.39414062 170.34773437 129.78828125 169.69546875 129.1640625 169.0234375 C119.00184612 158.42346411 107.53853447 150.97402108 92.4375 150.5625 C79.40298845 151.02968679 68.67808466 155.80938494 59.14453125 164.625 C50.97662574 173.67069499 48.32098005 183.11117955 47 195 C-47.38 195 -141.76 195 -239 195 C-235.7912099 189.22417782 -232.81213141 184.10899088 -228.875 178.9375 C-225.03711668 173.79888155 -221.30098412 168.61143487 -217.6875 163.3125 C-213.55907994 157.26436833 -209.39113199 151.24614385 -205.1875 145.25 C-204.59864014 144.40993408 -204.00978027 143.56986816 -203.40307617 142.7043457 C-202.20167417 140.99092421 -201.0000945 139.27762729 -199.79833984 137.56445312 C-196.86275016 133.37826875 -193.93156391 129.18900408 -191 125 C-189.83335519 123.33331803 -188.6666885 121.66665138 -187.5 120 C-186.9225 119.175 -186.345 118.35 -185.75 117.5 C-160.375 81.25 -160.375 81.25 -135 45 C-130.78151061 49.05259374 -127.07128918 53.40789904 -123.375 57.9375 C-122.75890869 58.68894287 -122.14281738 59.44038574 -121.50805664 60.21459961 C-117.31321794 65.34729331 -113.18979164 70.53145917 -109.11474609 75.75952148 C-105.63278601 80.21971022 -102.0779274 84.6165404 -98.5 89 C-90.46895494 98.84676994 -82.55938303 108.78461753 -75 119 C-71.46420025 114.80175533 -68.58300355 110.3335927 -65.6875 105.6875 C-65.16969971 104.86209717 -64.65189941 104.03669434 -64.1184082 103.1862793 C-62.40908187 100.45950283 -60.70438981 97.72986435 -59 95 C-57.80225025 93.08583305 -56.60433074 91.1717723 -55.40625 89.2578125 C-52.24214329 84.20068629 -49.08220074 79.14097056 -45.92333984 74.08056641 C-42.78410775 69.05253511 -39.64189167 64.02636963 -36.5 59 C-35.88294189 58.01257813 -35.26588379 57.02515625 -34.63012695 56.0078125 C-31.4813866 50.96917101 -28.33154276 45.93122492 -25.1796875 40.89453125 C-18.97775747 30.98190925 -12.78585351 21.06321717 -6.625 11.125 C-6.07118652 10.23272705 -5.51737305 9.3404541 -4.94677734 8.42114258 C-4.1880835 7.19560669 -4.1880835 7.19560669 -3.4140625 5.9453125 C-2.9701416 5.22875488 -2.5262207 4.51219727 -2.06884766 3.77392578 C-0.96203166 1.98952234 -0.96203166 1.98952234 0 0 Z " fill="#75A64B" transform="translate(285,181)"/>
<path d="M0 0 C0.92425781 -0.02835937 1.84851563 -0.05671875 2.80078125 -0.0859375 C8.96873082 0.89893131 13.2532897 5.66523893 17.4609375 9.98828125 C17.98837555 10.52092087 18.5158136 11.05356049 19.05923462 11.6023407 C20.73188074 13.29264876 22.39764907 14.9895165 24.0625 16.6875 C33.72208621 27.32461242 33.72208621 27.32461242 44.6875 36.375 C49.15796417 36.375 49.43000442 36.14123129 52.4453125 33.2265625 C53.14865723 32.55560547 53.85200195 31.88464844 54.57666016 31.19335938 C55.68340088 30.10764648 55.68340088 30.10764648 56.8125 29 C57.57224121 28.26845703 58.33198242 27.53691406 59.11474609 26.78320312 C61.31600656 24.65746001 63.50345429 22.51840745 65.6875 20.375 C66.71871623 19.3723611 67.74996109 18.36975165 68.78125 17.3671875 C73.13414801 13.08146385 77.25517976 8.70407607 81.1171875 3.96875 C84.39940049 0.63754875 87.47684258 0.06422489 92.0625 0 C97.05939987 0.10660053 99.95762352 0.83161735 103.6875 4.375 C106.58151936 8.52309441 107.05020818 12.12266091 107.18359375 17.03125 C105.75341184 23.78801492 99.57210164 28.75299052 94.859375 33.3984375 C94.11036926 34.14461334 93.36136353 34.89078918 92.58966064 35.65957642 C90.21028399 38.02781128 87.82402757 40.38897363 85.4375 42.75 C83.81724823 44.36021424 82.19745148 45.97088649 80.578125 47.58203125 C76.61983646 51.51833907 72.65588506 55.44887258 68.6875 59.375 C72.72993613 64.24291133 76.98394194 68.77471557 81.51171875 73.19140625 C82.80041564 74.46260133 84.0888185 75.73409454 85.37695312 77.00585938 C87.38161295 78.97950789 89.38851415 80.95070468 91.40063477 82.91674805 C93.36115768 84.83483231 95.31201387 86.76233483 97.26171875 88.69140625 C98.16176888 89.56352501 98.16176888 89.56352501 99.08000183 90.45326233 C102.99738869 94.34652878 106.08490971 98.11775521 107.12109375 103.71875 C107.1326122 110.07693702 105.29545967 113.34976678 101.125 118.1875 C98.3374663 120.49024523 95.34348745 120.58626918 91.875 120.6875 C90.62783203 120.74357422 90.62783203 120.74357422 89.35546875 120.80078125 C82.4068218 119.69184638 77.37506463 113.32610622 72.6640625 108.546875 C71.91788666 107.79786926 71.17171082 107.04886353 70.40292358 106.27716064 C68.03468872 103.89778399 65.67352637 101.51152757 63.3125 99.125 C61.70228576 97.50474823 60.09161351 95.88495148 58.48046875 94.265625 C54.54416093 90.30733646 50.61362742 86.34338506 46.6875 82.375 C41.73305034 86.52158582 37.10582533 90.84418147 32.58203125 95.453125 C31.25599085 96.79179691 29.92981506 98.13033472 28.60351562 99.46875 C26.54111928 101.55605392 24.48037498 103.64494092 22.42211914 105.73632812 C20.41730128 107.77130969 18.40633974 109.8000576 16.39453125 111.828125 C15.78092239 112.45519348 15.16731354 113.08226196 14.53511047 113.72833252 C13.95738388 114.30943787 13.37965729 114.89054321 12.78442383 115.48925781 C12.28147293 115.99966614 11.77852203 116.51007446 11.2603302 117.03594971 C7.15532414 120.53080222 3.38457687 120.80682055 -1.83984375 120.69140625 C-6.57991309 120.08485709 -9.26133105 117.71614659 -12.125 114.0625 C-14.24878399 109.25604149 -14.69022555 105.78028359 -13.31713867 100.671875 C-11.20430769 95.34911761 -7.42299233 91.85754056 -3.36328125 87.9375 C-2.59066452 87.17195801 -1.81804779 86.40641602 -1.02201843 85.61767578 C1.43210389 83.19139134 3.90308322 80.78313936 6.375 78.375 C8.04867258 76.7264236 9.72121154 75.07669548 11.39257812 73.42578125 C15.47785796 69.3954302 19.5770962 65.37971633 23.6875 61.375 C21.84461231 57.37671615 19.21556924 54.68067271 16.0859375 51.6484375 C15.53064362 51.10071686 14.97534973 50.55299622 14.40322876 49.98867798 C12.03952928 47.65742314 9.66438919 45.33796501 7.28955078 43.01806641 C-13.37987432 22.78584595 -13.37987432 22.78584595 -13.6875 14.125 C-13.66216722 10.25921832 -13.49385665 7.83059078 -11 4.8125 C-7.18663842 1.35386973 -5.09777248 0.07050861 0 0 Z " fill="#EC7161" transform="translate(375.3125,361.625)"/>
<path d="M0 0 C11.34274553 6.35749597 18.17773189 15.31127927 22.61206055 27.41796875 C23.75735416 31.55442102 23.76852144 35.66078053 23.73828125 39.9296875 C23.73328613 40.85483154 23.72829102 41.77997559 23.72314453 42.7331543 C23.38372822 56.09094155 17.52248839 65.80068709 8.05078125 74.8671875 C-3.68098243 84.9855847 -16.97552599 85.76261162 -31.76171875 84.6796875 C-35.5542847 83.8923814 -38.47245942 82.69568515 -41.76171875 80.6796875 C-42.53386719 80.23238281 -43.30601563 79.78507812 -44.1015625 79.32421875 C-54.20180852 73.05568004 -61.83115689 64.4077508 -65.33325195 52.7824707 C-67.45090703 42.38967119 -67.37687894 28.84126466 -61.76171875 19.6796875 C-61.31441406 18.90753906 -60.86710937 18.13539062 -60.40625 17.33984375 C-53.12148758 5.60219705 -43.84948458 -0.43077567 -30.76171875 -4.3203125 C-20.48132057 -7.74711189 -9.42956438 -4.50805199 0 0 Z " fill="#FFCC66" transform="translate(156.76171875,95.3203125)"/>
</svg>
