<?xml version="1.0" encoding="UTF-8"?>
<svg version="1.1" xmlns="http://www.w3.org/2000/svg" width="512" height="512">
<path d="M0 0 C1.08066742 0.00273422 1.08066742 0.00273422 2.1831665 0.00552368 C13.95883209 0.05549092 25.35288763 0.7642923 36.875 3.3125 C37.64875977 3.47878906 38.42251953 3.64507812 39.21972656 3.81640625 C65.33845066 9.59914959 89.43727994 21.45546436 110.875 37.3125 C111.76131104 37.963396 111.76131104 37.963396 112.66552734 38.62744141 C130.82375823 52.08041882 146.78451182 68.31497461 160.890625 85.921875 C163.17991933 88.67984376 165.63833857 91.16588026 168.2109375 93.65625 C170.56374688 95.99801333 172.6997667 98.50707261 174.8671875 101.01953125 C177.28573862 103.78157309 179.7644817 106.48594267 182.25 109.1875 C182.71680176 109.69692139 183.18360352 110.20634277 183.66455078 110.73120117 C185.94646096 113.22080852 188.23769465 115.69958639 190.546875 118.1640625 C191.35640625 119.03804688 192.1659375 119.91203125 193 120.8125 C193.72445313 121.5859375 194.44890625 122.359375 195.1953125 123.15625 C196.87142965 125.30791666 197.59850682 126.61669154 197.875 129.3125 C196.75 131.0625 196.75 131.0625 194.875 132.3125 C193.20907539 132.36222909 191.54077157 132.36711546 189.875 132.3125 C190.18091064 132.91795654 190.48682129 133.52341309 190.80200195 134.1472168 C206.44654834 165.34018781 218.39892927 197.74358729 223.875 232.3125 C224.06707031 233.52292969 224.25914062 234.73335937 224.45703125 235.98046875 C227.5713459 262.55441422 225.73812167 292.26701766 209 314.1875 C207.62610324 315.89672072 206.25139852 317.60529325 204.875 319.3125 C204.545 319.9725 204.215 320.6325 203.875 321.3125 C204.40609375 321.75980469 204.9371875 322.20710938 205.484375 322.66796875 C216.93656167 332.4692015 220.22503838 342.48091069 221.875 357.3125 C222.15752512 362.25401172 222.20935816 367.17618617 222.1875 372.125 C222.18258545 373.44290527 222.1776709 374.76081055 222.17260742 376.11865234 C222.00085051 390.3894496 221.205678 407.88978265 210.875 418.9375 C203.89523806 424.46314487 196.47114029 424.05399254 187.875 423.3125 C184.03357101 422.30505568 180.47251725 420.98785107 176.875 419.3125 C176.483125 420.22 176.09125 421.1275 175.6875 422.0625 C173.23495786 426.46016177 170.64792642 428.72152453 165.875 430.3125 C156.66083665 431.26193237 148.81198167 429.35872273 140.9375 424.5 C138.26526611 421.66581254 136.66936302 418.76831025 134.875 415.3125 C134.1015625 415.34730469 133.328125 415.38210938 132.53125 415.41796875 C124.76677234 415.61976829 118.67483643 415.4303145 112.4375 410.3125 C108.797363 405.65312464 109.56114119 399.93276234 109.875 394.3125 C110.38970331 390.93783657 111.06924837 387.62903124 111.875 384.3125 C111.26011719 384.03535156 110.64523437 383.75820313 110.01171875 383.47265625 C106.73750038 381.69488138 105.60247522 379.5887461 103.875 376.3125 C103.47924805 374.00805664 103.47924805 374.00805664 103.26171875 371.59765625 C103.18526123 370.79336182 103.10880371 369.98906738 103.0300293 369.16040039 C102.97886963 368.55059326 102.92770996 367.94078613 102.875 367.3125 C101.90735718 367.47069214 101.90735718 367.47069214 100.92016602 367.63208008 C97.76101429 368.14133545 94.59966687 368.63480806 91.4375 369.125 C90.25003174 369.31167236 89.06256348 369.49834473 87.83911133 369.69067383 C80.87428173 370.73443224 73.97578147 371.50443204 66.9453125 371.9296875 C65.45238888 372.02883437 63.95946894 372.12803652 62.46655273 372.22729492 C60.27507588 372.37095226 58.08809818 372.49906184 55.89334106 372.57949829 C47.63328555 372.62017506 47.63328555 372.62017506 40.67041016 376.39697266 C39.19337893 378.64613899 38.04890638 380.89847292 36.875 383.3125 C36.215 383.6425 35.555 383.9725 34.875 384.3125 C35.03548828 386.24802734 35.03548828 386.24802734 35.19921875 388.22265625 C35.32121869 389.94004003 35.44226178 391.65749198 35.5625 393.375 C35.63533203 394.22255859 35.70816406 395.07011719 35.78320312 395.94335938 C36.15675547 401.63453916 35.68453806 405.30700116 32.875 410.3125 C26.68683207 415.42446481 20.61857935 415.80553689 12.875 415.3125 C11.885 414.9825 10.895 414.6525 9.875 414.3125 C9.71 415.158125 9.545 416.00375 9.375 416.875 C7.00142944 422.31443252 2.98016343 425.70325472 -2.265625 428.421875 C-8.67896593 430.8672496 -15.94078715 431.69818088 -22.53125 429.515625 C-26.17288777 427.80036083 -27.84013344 426.73979984 -30.125 423.3125 C-30.25 420.625 -30.25 420.625 -30.125 418.3125 C-30.81722656 418.6734375 -31.50945312 419.034375 -32.22265625 419.40625 C-41.23239691 423.67964478 -49.8130247 424.9336046 -59.64453125 422.75390625 C-66.67645543 419.94382565 -69.43716581 413.21454379 -72.27734375 406.6484375 C-76.3043144 395.37291968 -76.92438692 383.14573149 -78.125 371.3125 C-78.95821777 371.19245605 -79.79143555 371.07241211 -80.64990234 370.94873047 C-164.5711187 358.71669249 -164.5711187 358.71669249 -194.125 333.3125 C-195.43984375 332.21808594 -195.43984375 332.21808594 -196.78125 331.1015625 C-202.00589314 326.59914944 -206.30208044 322.03732204 -210.125 316.3125 C-210.846875 315.28253906 -211.56875 314.25257813 -212.3125 313.19140625 C-217.723015 305.30924162 -221.53159324 297.58774298 -224.125 288.3125 C-224.44339844 287.219375 -224.76179688 286.12625 -225.08984375 285 C-237.48838262 232.89185509 -215.065671 172.75847962 -191.125 127.3125 C-190.72587402 126.54615234 -190.32674805 125.77980469 -189.91552734 124.99023438 C-181.00583364 107.96690207 -170.79399145 91.80829359 -158.125 77.3125 C-157.45726562 76.53519531 -156.78953125 75.75789063 -156.1015625 74.95703125 C-145.18458772 62.51817337 -133.53308859 51.03345916 -120.125 41.3125 C-119.58568848 40.91289063 -119.04637695 40.51328125 -118.49072266 40.1015625 C-84.8849961 15.41904867 -41.78297346 -0.22073796 0 0 Z " fill="#F7C600" transform="translate(257.125,40.6875)"/>
<path d="M0 0 C1.08066742 0.00273422 1.08066742 0.00273422 2.1831665 0.00552368 C13.95883209 0.05549092 25.35288763 0.7642923 36.875 3.3125 C37.64875977 3.47878906 38.42251953 3.64507812 39.21972656 3.81640625 C65.33845066 9.59914959 89.43727994 21.45546436 110.875 37.3125 C111.76131104 37.963396 111.76131104 37.963396 112.66552734 38.62744141 C130.82375823 52.08041882 146.78451182 68.31497461 160.890625 85.921875 C163.17991933 88.67984376 165.63833857 91.16588026 168.2109375 93.65625 C170.56374688 95.99801333 172.6997667 98.50707261 174.8671875 101.01953125 C177.28573862 103.78157309 179.7644817 106.48594267 182.25 109.1875 C182.71680176 109.69692139 183.18360352 110.20634277 183.66455078 110.73120117 C185.94646096 113.22080852 188.23769465 115.69958639 190.546875 118.1640625 C191.35640625 119.03804688 192.1659375 119.91203125 193 120.8125 C193.72445313 121.5859375 194.44890625 122.359375 195.1953125 123.15625 C196.87142965 125.30791666 197.59850682 126.61669154 197.875 129.3125 C196.75 131.0625 196.75 131.0625 194.875 132.3125 C193.20907539 132.36222909 191.54077157 132.36711546 189.875 132.3125 C190.18091064 132.91795654 190.48682129 133.52341309 190.80200195 134.1472168 C206.44654834 165.34018781 218.39892927 197.74358729 223.875 232.3125 C224.06707031 233.52292969 224.25914062 234.73335937 224.45703125 235.98046875 C227.5713459 262.55441422 225.73812167 292.26701766 209 314.1875 C207.62610324 315.89672072 206.25139852 317.60529325 204.875 319.3125 C204.545 319.9725 204.215 320.6325 203.875 321.3125 C204.40609375 321.75980469 204.9371875 322.20710938 205.484375 322.66796875 C216.93656167 332.4692015 220.22503838 342.48091069 221.875 357.3125 C222.15752512 362.25401172 222.20935816 367.17618617 222.1875 372.125 C222.18258545 373.44290527 222.1776709 374.76081055 222.17260742 376.11865234 C222.00085051 390.3894496 221.205678 407.88978265 210.875 418.9375 C203.89523806 424.46314487 196.47114029 424.05399254 187.875 423.3125 C184.03357101 422.30505568 180.47251725 420.98785107 176.875 419.3125 C176.483125 420.22 176.09125 421.1275 175.6875 422.0625 C173.23495786 426.46016177 170.64792642 428.72152453 165.875 430.3125 C156.66083665 431.26193237 148.81198167 429.35872273 140.9375 424.5 C138.26526611 421.66581254 136.66936302 418.76831025 134.875 415.3125 C134.1015625 415.34730469 133.328125 415.38210938 132.53125 415.41796875 C124.76677234 415.61976829 118.67483643 415.4303145 112.4375 410.3125 C108.797363 405.65312464 109.56114119 399.93276234 109.875 394.3125 C110.38970331 390.93783657 111.06924837 387.62903124 111.875 384.3125 C111.26011719 384.03535156 110.64523437 383.75820313 110.01171875 383.47265625 C106.73750038 381.69488138 105.60247522 379.5887461 103.875 376.3125 C103.47924805 374.00805664 103.47924805 374.00805664 103.26171875 371.59765625 C103.18526123 370.79336182 103.10880371 369.98906738 103.0300293 369.16040039 C102.97886963 368.55059326 102.92770996 367.94078613 102.875 367.3125 C101.90735718 367.47069214 101.90735718 367.47069214 100.92016602 367.63208008 C97.76101429 368.14133545 94.59966687 368.63480806 91.4375 369.125 C90.25003174 369.31167236 89.06256348 369.49834473 87.83911133 369.69067383 C80.87428173 370.73443224 73.97578147 371.50443204 66.9453125 371.9296875 C65.45238888 372.02883437 63.95946894 372.12803652 62.46655273 372.22729492 C60.27507588 372.37095226 58.08809818 372.49906184 55.89334106 372.57949829 C47.63328555 372.62017506 47.63328555 372.62017506 40.67041016 376.39697266 C39.19337893 378.64613899 38.04890638 380.89847292 36.875 383.3125 C36.215 383.6425 35.555 383.9725 34.875 384.3125 C35.03548828 386.24802734 35.03548828 386.24802734 35.19921875 388.22265625 C35.32121869 389.94004003 35.44226178 391.65749198 35.5625 393.375 C35.63533203 394.22255859 35.70816406 395.07011719 35.78320312 395.94335938 C36.15675547 401.63453916 35.68453806 405.30700116 32.875 410.3125 C26.68683207 415.42446481 20.61857935 415.80553689 12.875 415.3125 C11.885 414.9825 10.895 414.6525 9.875 414.3125 C9.71 415.158125 9.545 416.00375 9.375 416.875 C7.00142944 422.31443252 2.98016343 425.70325472 -2.265625 428.421875 C-8.67896593 430.8672496 -15.94078715 431.69818088 -22.53125 429.515625 C-26.17288777 427.80036083 -27.84013344 426.73979984 -30.125 423.3125 C-30.25 420.625 -30.25 420.625 -30.125 418.3125 C-30.81722656 418.6734375 -31.50945312 419.034375 -32.22265625 419.40625 C-41.23239691 423.67964478 -49.8130247 424.9336046 -59.64453125 422.75390625 C-66.67645543 419.94382565 -69.43716581 413.21454379 -72.27734375 406.6484375 C-76.3043144 395.37291968 -76.92438692 383.14573149 -78.125 371.3125 C-78.95821777 371.19245605 -79.79143555 371.07241211 -80.64990234 370.94873047 C-164.5711187 358.71669249 -164.5711187 358.71669249 -194.125 333.3125 C-195.43984375 332.21808594 -195.43984375 332.21808594 -196.78125 331.1015625 C-202.00589314 326.59914944 -206.30208044 322.03732204 -210.125 316.3125 C-210.846875 315.28253906 -211.56875 314.25257813 -212.3125 313.19140625 C-217.723015 305.30924162 -221.53159324 297.58774298 -224.125 288.3125 C-224.44339844 287.219375 -224.76179688 286.12625 -225.08984375 285 C-237.48838262 232.89185509 -215.065671 172.75847962 -191.125 127.3125 C-190.72587402 126.54615234 -190.32674805 125.77980469 -189.91552734 124.99023438 C-181.00583364 107.96690207 -170.79399145 91.80829359 -158.125 77.3125 C-157.45726562 76.53519531 -156.78953125 75.75789063 -156.1015625 74.95703125 C-145.18458772 62.51817337 -133.53308859 51.03345916 -120.125 41.3125 C-119.58568848 40.91289063 -119.04637695 40.51328125 -118.49072266 40.1015625 C-84.8849961 15.41904867 -41.78297346 -0.22073796 0 0 Z M-37.125 10.3125 C-37.97320312 10.50054199 -38.82140625 10.68858398 -39.6953125 10.88232422 C-74.70198967 18.90043523 -105.64416427 36.34075019 -132.125 60.3125 C-132.78419434 60.90466309 -133.44338867 61.49682617 -134.12255859 62.10693359 C-142.83783454 69.96973956 -151.06630509 77.89534438 -158.125 87.3125 C-158.58293945 87.92254883 -159.04087891 88.53259766 -159.51269531 89.16113281 C-186.1916213 125.09492305 -204.57179107 165.9355948 -215.125 209.3125 C-215.32899414 210.14523438 -215.53298828 210.97796875 -215.74316406 211.8359375 C-222.73418572 240.69903876 -227.0672401 276.45352288 -210.98388672 303.2109375 C-189.47436238 336.4722138 -154.40819116 350.8057531 -117.0703125 359.2578125 C-110.02313888 360.72276106 -102.92128427 361.87828668 -95.8125 363 C-94.59409424 363.19758911 -94.59409424 363.19758911 -93.35107422 363.39916992 C-87.57623797 364.27085439 -81.96061592 364.45829397 -76.125 364.3125 C-75.94324219 363.14074219 -75.76148438 361.96898437 -75.57421875 360.76171875 C-71.11279641 332.5471307 -71.11279641 332.5471307 -60.1171875 323.96484375 C-41.49699746 310.8567088 -17.4815277 305.98261412 4.875 304.3125 C5.59413574 304.25610352 6.31327148 304.19970703 7.05419922 304.14160156 C21.17638588 303.10774861 35.34844675 303.20993457 49.5 303.1875 C50.47394714 303.18482117 51.44789429 303.18214233 52.45135498 303.17938232 C55.25146227 303.17354348 58.05145458 303.17525063 60.8515625 303.1796875 C61.70171936 303.17771362 62.55187622 303.17573975 63.42779541 303.17370605 C64.61329987 303.17835876 64.61329987 303.17835876 65.82275391 303.18310547 C66.85573105 303.18429886 66.85573105 303.18429886 67.90957642 303.18551636 C69.875 303.3125 69.875 303.3125 72.06576538 303.88308716 C72.66281281 304.0247934 73.25986023 304.16649963 73.875 304.3125 C74.205 303.9825 74.535 303.6525 74.875 303.3125 C76.64740031 303.21121998 78.42392819 303.18167059 80.19921875 303.1796875 C81.35373535 303.17735107 82.50825195 303.17501465 83.69775391 303.17260742 C89.9845608 303.19683327 96.27086267 303.23268734 102.55743408 303.29290771 C104.89490063 303.31266824 107.23229751 303.32436711 109.56982422 303.33447266 C137.58057568 303.48081143 163.40054395 305.91920152 189.94482422 315.65429688 C192.22473572 316.43176227 194.49488161 316.94706768 196.875 317.3125 C212.13370596 299.47676814 219.31168532 281.44714819 219.1875 257.875 C219.18186035 256.73683838 219.1762207 255.59867676 219.17041016 254.42602539 C219.0249884 244.16227285 217.94992734 234.35635116 215.875 224.3125 C215.58496094 222.90097656 215.58496094 222.90097656 215.2890625 221.4609375 C208.74953733 190.539479 197.53045561 161.27290848 182.875 133.3125 C179.575 133.3125 176.275 133.3125 172.875 133.3125 C174.47988563 138.2960922 176.21011331 143.15221327 178.1875 148 C188.75692075 175.39747131 190.51346434 203.32181248 191.875 232.3125 C193.195 232.9725 194.515 233.6325 195.875 234.3125 C195.545 235.6325 195.215 236.9525 194.875 238.3125 C193.97265625 238.168125 193.0703125 238.02375 192.140625 237.875 C163.8836245 233.76622011 134.17995396 235.47720151 107.43359375 246.00390625 C103.875 247.3125 103.875 247.3125 99.875 247.3125 C100.75 243.4375 100.75 243.4375 101.875 242.3125 C101.99920471 239.33235603 102.06188928 236.37213014 102.0859375 233.390625 C102.11144867 231.49250245 102.13776764 229.59439063 102.16479492 227.69628906 C102.17803802 226.69505005 102.19128113 225.69381104 102.20492554 224.66223145 C103.40064874 142.43339086 103.40064874 142.43339086 124.875 120.3125 C126.1980957 119.31954335 127.53105069 118.33954414 128.875 117.375 C130.67046349 116.05465521 130.67046349 116.05465521 131.875 114.3125 C132.24235152 110.81692066 131.62362615 107.72290803 130.875 104.3125 C128.68385091 92.91217359 128.51393682 82.13817601 133.78125 71.6328125 C135.08819182 69.28775849 135.08819182 69.28775849 134.875 66.3125 C128.21732546 58.26894219 119.82627744 51.79942875 111.52246094 45.55419922 C110.03883752 44.43598513 108.56927019 43.2991801 107.1015625 42.16015625 C99.48123469 36.38197976 91.28185186 31.8226977 82.875 27.3125 C81.34359375 26.47525391 81.34359375 26.47525391 79.78125 25.62109375 C72.08777039 21.57356258 64.0929034 18.70202759 55.86035156 15.9765625 C54.1464063 15.40328027 52.44312059 14.79830889 50.7421875 14.1875 C23.67569154 4.94880271 -9.26142327 3.97723909 -37.125 10.3125 Z " fill="#060503" transform="translate(257.125,40.6875)"/>
<path d="M0 0 C2.375 0.6875 2.375 0.6875 3.375 1.6875 C4.91156754 18.58043042 3.20079001 35.54262582 -4.625 50.6875 C-4.955 51.6775 -5.285 52.6675 -5.625 53.6875 C-4.9959375 54.01621094 -4.366875 54.34492188 -3.71875 54.68359375 C13.11132813 64.03645343 21.92162201 82.46008695 27.16455078 100.38720703 C35.1804651 129.44308012 35.80966089 157.78505999 35.375 187.6875 C37.025 188.3475 38.675 189.0075 40.375 189.6875 C40.045 191.0075 39.715 192.3275 39.375 193.6875 C32.31295439 193.33132726 25.44318421 192.58532296 18.5 191.25 C-20.32098506 184.11060894 -68.92757394 183.45337149 -107.13671875 194.234375 C-109.9307502 194.74317821 -111.89985729 194.41420472 -114.625 193.6875 C-114.295 192.0375 -113.965 190.3875 -113.625 188.6875 C-111.315 188.3575 -109.005 188.0275 -106.625 187.6875 C-106.65980469 186.58277344 -106.69460937 185.47804688 -106.73046875 184.33984375 C-107.56073949 146.12652846 -97.54996858 104.79226958 -74.625 73.6875 C-73.965 73.0275 -73.305 72.3675 -72.625 71.6875 C-73.66398437 71.46835938 -74.70296875 71.24921875 -75.7734375 71.0234375 C-95.3019681 66.67204785 -95.3019681 66.67204785 -100.625 58.6875 C-100.48828125 56.65771484 -100.48828125 56.65771484 -99.625 54.6875 C-97.98046875 53.35400391 -97.98046875 53.35400391 -95.8125 52.1640625 C-94.99749023 51.70789551 -94.18248047 51.25172852 -93.34277344 50.78173828 C-92.4459082 50.29688965 -91.54904297 49.81204102 -90.625 49.3125 C-89.68946289 48.79284668 -88.75392578 48.27319336 -87.79003906 47.73779297 C-85.77761734 46.62077617 -83.76219899 45.5091446 -81.74414062 44.40234375 C-77.64064286 42.14631931 -73.55988796 39.85077765 -69.47802734 37.5559082 C-65.2637565 35.18815776 -61.04335663 32.83143556 -56.82324219 30.47412109 C-43.11905131 22.81860439 -29.42216761 15.15008784 -15.75 7.4375 C-14.77466309 6.88827881 -13.79932617 6.33905762 -12.79443359 5.77319336 C-11.44599365 5.01147827 -11.44599365 5.01147827 -10.0703125 4.234375 C-9.28156738 3.78932617 -8.49282227 3.34427734 -7.68017578 2.88574219 C-2.26764823 -0.26995812 -2.26764823 -0.26995812 0 0 Z " fill="#060503" transform="translate(294.625,96.3125)"/>
<path d="M0 0 C0.89337067 -0.00535767 1.78674133 -0.01071533 2.70718384 -0.01623535 C5.23985568 -0.02781301 7.77201414 -0.02457026 10.3046875 -0.015625 C11.06773697 -0.01957275 11.83078644 -0.02352051 12.61695862 -0.02758789 C17.89427595 0.01927595 17.89427595 0.01927595 20.125 2.25 C21.33904478 9.70770362 19.23465221 16.7841428 15.375 23.125 C6.37126156 31.62853074 -9.98440871 32.37373963 -21.72412109 32.16113281 C-41.85717451 31.46887967 -41.85717451 31.46887967 -60.875 36.25 C-60.875 37.24 -60.875 38.23 -60.875 39.25 C-53.36591902 39.47483525 -46.1809308 38.78752619 -38.75 37.75 C-32.06797256 36.82402616 -25.62691844 36.05570019 -18.875 36.25 C-14.85540801 42.9925414 -13.66472436 47.69238985 -13.5625 55.625 C-13.51899414 56.73875 -13.51899414 56.73875 -13.47460938 57.875 C-13.4124987 63.28340607 -14.48014483 66.03154091 -17.875 70.25 C-19.99404859 67.70714169 -21.39421278 65.18015228 -22.75 62.1875 C-24.58423453 58.49849847 -25.91754527 56.79856924 -29.875 55.25 C-40.67623013 52.35401801 -51.75986498 52.07541673 -62.875 52.25 C-62.875 53.24 -62.875 54.23 -62.875 55.25 C-61.96210205 55.37528076 -61.0492041 55.50056152 -60.10864258 55.62963867 C-56.70463949 56.10695675 -53.30443633 56.60292809 -49.9050293 57.11157227 C-48.43670784 57.32738303 -46.96728275 57.53582454 -45.49682617 57.73657227 C-43.37601949 58.02743806 -41.26067207 58.34509388 -39.14453125 58.66796875 C-37.87198486 58.85125732 -36.59943848 59.0345459 -35.28833008 59.22338867 C-31.2285567 60.44442773 -29.5471513 62.00526652 -26.875 65.25 C-22.37560547 74.24878906 -19.18735302 86.06384503 -20.875 96.25 C-22.79231526 98.7030357 -23.84553444 99.24017815 -26.875 100.25 C-28.76970816 100.3185495 -30.6666834 100.33480372 -32.5625 100.3125 C-33.55636719 100.30347656 -34.55023438 100.29445313 -35.57421875 100.28515625 C-36.33347656 100.27355469 -37.09273438 100.26195312 -37.875 100.25 C-37.8843457 99.67556152 -37.89369141 99.10112305 -37.90332031 98.50927734 C-37.95735031 95.88034696 -38.04092894 93.25313433 -38.125 90.625 C-38.13917969 89.72136719 -38.15335937 88.81773437 -38.16796875 87.88671875 C-38.37382079 82.24637282 -38.97444284 78.63466886 -42.875 74.25 C-45.88451677 72.38103258 -48.12428357 72.0096062 -51.640625 72.0546875 C-52.53007812 72.06113281 -53.41953125 72.06757813 -54.3359375 72.07421875 C-55.25632812 72.09097656 -56.17671875 72.10773438 -57.125 72.125 C-58.52878906 72.13853516 -58.52878906 72.13853516 -59.9609375 72.15234375 C-62.26588657 72.17586364 -64.5703116 72.20873147 -66.875 72.25 C-67.37 74.23 -67.37 74.23 -67.875 76.25 C-67.25455811 76.2593457 -66.63411621 76.26869141 -65.99487305 76.27832031 C-63.18327323 76.33200995 -60.3733402 76.41565646 -57.5625 76.5 C-56.58603516 76.51417969 -55.60957031 76.52835937 -54.60351562 76.54296875 C-53.66572266 76.57519531 -52.72792969 76.60742188 -51.76171875 76.640625 C-50.89764404 76.66157227 -50.03356934 76.68251953 -49.14331055 76.70410156 C-46.875 77.25 -46.875 77.25 -45.09448242 79.06689453 C-43.31586181 82.25096371 -43.42870112 85.32456459 -43.5 88.875 C-43.51305176 89.9419812 -43.51305176 89.9419812 -43.52636719 91.03051758 C-43.72177434 98.09320493 -44.94413908 104.12067369 -48.6875 110.1875 C-53.34881093 114.5824503 -57.7566572 115.66555204 -64.0625 115.625 C-65.87814453 115.63660156 -65.87814453 115.63660156 -67.73046875 115.6484375 C-70.875 115.25 -70.875 115.25 -72.80078125 114.1015625 C-74.41844614 111.31329647 -74.28241549 109.42230311 -73.875 106.25 C-72.37890625 103.6171875 -72.37890625 103.6171875 -70.4375 101.125 C-68.15779419 98.16829065 -66.48402981 95.97280191 -65.875 92.25 C-66.865 91.92 -67.855 91.59 -68.875 91.25 C-69.596875 91.971875 -70.31875 92.69375 -71.0625 93.4375 C-71.990625 94.365625 -72.91875 95.29375 -73.875 96.25 C-75.0196875 97.4875 -75.0196875 97.4875 -76.1875 98.75 C-82.8625851 104.95938149 -90.79636 109.27416287 -100 109.6875 C-104.68283172 109.51512583 -107.36581863 108.50852556 -110.875 105.25 C-118.87721625 93.360993 -120.24049395 80.04147599 -120.125 66 C-120.11823242 64.812854 -120.11146484 63.62570801 -120.10449219 62.40258789 C-119.76496952 33.53329128 -119.76496952 33.53329128 -110.625 23.125 C-82.89381499 -2.3424148 -34.94249259 0.12076582 0 0 Z " fill="#FCEAD6" transform="translate(306.875,348.75)"/>
<path d="M0 0 C103.44362487 -0.67910672 103.44362487 -0.67910672 130.23046875 24.0078125 C141.32839592 36.50216759 139.85883883 58.61999339 139.18457031 74.16455078 C138.80485718 79.99786872 137.78650364 85.41896263 136 91 C135.63648438 92.18207031 135.27296875 93.36414063 134.8984375 94.58203125 C131.62335618 104.16428532 131.62335618 104.16428532 127.875 106.75 C120.41191429 109.99481988 114.43885775 109.83359381 106.9375 106.9375 C98.87706682 103.30722857 93.3747259 97.88636755 88 91 C86.515 91.495 86.515 91.495 85 92 C85.61375824 95.44947672 86.95692624 97.48239004 89.0625 100.25 C92.19916421 104.8117352 92.86338949 107.53186654 92 113 C87.10865954 116.26089364 81.71696549 115.55859373 76 115 C71.09506895 113.43818891 67.76080636 110.29458767 65 106 C62.68484868 100.61186005 62.66663814 95.57454608 62.6875 89.8125 C62.67138672 88.91080078 62.65527344 88.00910156 62.63867188 87.08007812 C62.63802734 86.21447266 62.63738281 85.34886719 62.63671875 84.45703125 C62.63373779 83.67303955 62.63075684 82.88904785 62.62768555 82.08129883 C63 80 63 80 64.21728516 78.23974609 C66.56924214 76.60413427 68.03753943 76.65522799 70.88671875 76.70703125 C72.2934082 76.7215332 72.2934082 76.7215332 73.72851562 76.73632812 C74.70498047 76.76146484 75.68144531 76.78660156 76.6875 76.8125 C77.67556641 76.82603516 78.66363281 76.83957031 79.68164062 76.85351562 C82.12164231 76.88887797 84.56054719 76.93822967 87 77 C87 75.35 87 73.7 87 72 C83.43765572 71.91258876 79.87558892 71.85947104 76.3125 71.8125 C75.30509766 71.78736328 74.29769531 71.76222656 73.25976562 71.73632812 C66.02394318 71.47985331 66.02394318 71.47985331 60 75 C57.517883 80.00991714 57.57337962 85.38649724 57.375 90.875 C57.33632813 91.75414062 57.29765625 92.63328125 57.2578125 93.5390625 C57.16418966 95.69238793 57.08103541 97.84616414 57 100 C54.91731407 100.08126087 52.83371342 100.13930839 50.75 100.1875 C49.00976562 100.23970703 49.00976562 100.23970703 47.234375 100.29296875 C43.67723596 99.97076413 42.30469401 99.72322197 40 97 C37.77451047 85.16653499 41.61668835 73.30487743 46.546875 62.66015625 C50.182027 58.71821595 53.81876119 58.56842893 59 58 C60.37526855 57.83709473 60.37526855 57.83709473 61.77832031 57.67089844 C64.55842703 57.36848039 67.33874847 57.11370975 70.125 56.875 C71.08148438 56.78863281 72.03796875 56.70226562 73.0234375 56.61328125 C75.3485733 56.40401903 77.6740237 56.19966288 80 56 C80.66 54.35 81.32 52.7 82 51 C62.66762813 51.1087225 62.66762813 51.1087225 45 57 C41.85123491 60.90412922 39.62923727 65.26040068 38 70 C37.34 70 36.68 70 36 70 C31.82431742 63.98701709 31.28669232 58.16160906 32 51 C34.80088496 39.19911504 34.80088496 39.19911504 38 36 C40.78125 35.91796875 40.78125 35.91796875 44.5 36.1875 C45.17546875 36.23575928 45.8509375 36.28401855 46.546875 36.33374023 C57.72871521 37.20487792 68.86866043 38.64553412 80 40 C79.01 37.525 79.01 37.525 78 35 C73.46595471 34.42322557 68.93105905 33.85386203 64.39526367 33.29101562 C62.85595297 33.0989844 61.31688268 32.90501487 59.77807617 32.70898438 C47.92950208 31.13613353 47.92950208 31.13613353 36 31 C35.505 31.495 35.505 31.495 35 32 C28.21379843 32.19468611 21.62269645 30.58803333 15.125 28.8125 C14.39990234 28.62864746 13.67480469 28.44479492 12.92773438 28.25537109 C6.23374674 26.3151073 3.62400757 22.85601332 0.1875 16.8125 C-1.40228441 11.70845533 -2.48807051 4.97614102 0 0 Z " fill="#FCEAD6" transform="translate(334,349)"/>
<path d="M0 0 C0.67992811 2.11533189 1.12540903 3.5318063 0.54223633 5.70898438 C-0.80761424 11.41227016 -0.29301052 17.6478044 -0.3125 23.5 C-0.31511841 24.24309418 -0.31773682 24.98618835 -0.32043457 25.75180054 C-0.325026 37.89891992 0.6473202 49.2671055 4 61 C4.30035156 62.09183594 4.60070312 63.18367188 4.91015625 64.30859375 C5.81863811 67.27000866 6.85943533 70.12016893 8 73 C8.48082031 74.2271875 8.96164063 75.454375 9.45703125 76.71875 C16.98904594 95.22456093 28.46808159 110.42716479 42 125 C42.53882813 125.59296875 43.07765625 126.1859375 43.6328125 126.796875 C63.99329386 148.2828101 92.72463964 162.08882025 120.26171875 171.66015625 C123.00935443 172.64494103 125.42982564 173.66677756 128 175 C127.35714676 181.23505228 126.49994065 187.3861106 125.4375 193.5625 C125.29892578 194.38041016 125.16035156 195.19832031 125.01757812 196.04101562 C124.6806501 198.02772915 124.34065416 200.01392199 124 202 C116.74556151 202.23987326 109.95108366 201.57378196 102.8125 200.3125 C101.77440186 200.13243408 100.73630371 199.95236816 99.66674805 199.7668457 C59.51755881 192.66098254 17.68424102 181.22170812 -7.27368164 146.33544922 C-25.15800973 119.99849779 -23.22093408 87.24244 -17.64160156 57.21484375 C-13.771684 37.82402394 -8.10336137 18.0632204 0 0 Z " fill="#F7A622" transform="translate(57,203)"/>
<path d="M0 0 C5.52858022 3.55548268 10.103045 7.72025452 14 13 C14 13.33 14 13.66 14 14 C12.81664062 13.95359375 11.63328125 13.9071875 10.4140625 13.859375 C-2.05177283 13.51240551 -10.9839813 14.69280609 -20.8984375 22.890625 C-32.19382715 34.22800495 -35.982855 49.67639322 -36.25 65.1875 C-36.1527956 70.72207535 -35.68159922 75.72458301 -34 81 C-33.74347656 81.82113281 -33.48695313 82.64226562 -33.22265625 83.48828125 C-29.90681702 92.86655616 -24.00095105 99.65935445 -15 104 C-6.50532795 107.31187624 2.99931716 107.09733654 11.59375 104.09765625 C22.00704282 99.34743663 29.44766953 91.44358167 34 81 C34.33 81 34.66 81 35 81 C35.95788619 90.96439215 36.12238132 100.81683927 36.0625 110.8125 C36.05746824 112.29492034 36.05290834 113.77734236 36.04882812 115.25976562 C36.0379707 118.8398795 36.02080135 122.41992843 36 126 C29.03130567 126.1850808 22.51899021 125.28903794 15.65625 124.15429688 C-0.00128762 121.72998025 -15.94266214 121.7964031 -31.75 121.8125 C-33.12848618 121.81240936 -33.12848618 121.81240936 -34.53482056 121.81231689 C-48.1160072 121.82500973 -61.52191778 122.1968716 -75 124 C-76.12124268 124.14405273 -76.12124268 124.14405273 -77.26513672 124.29101562 C-80.54834939 124.71354332 -83.82589829 125.15434469 -87.1015625 125.6328125 C-90 126 -90 126 -94 126 C-94.2519106 117.40597294 -93.33802167 108.96270086 -92.375 100.4375 C-92.28796814 99.66465668 -92.20093628 98.89181335 -92.11126709 98.09555054 C-88.76448705 68.99434022 -81.28165112 38.85863587 -62 16 C-61.2471875 15.07574219 -60.494375 14.15148437 -59.71875 13.19921875 C-56.22714257 10.37482941 -53.4265397 10.34233131 -49.125 10.375 C-34.40544609 9.96128004 -20.82904234 6.65808095 -7.7421875 -0.1796875 C-4.75932739 -1.5841732 -3.12124803 -1.00115503 0 0 Z " fill="#FCFCFC" transform="translate(288,156)"/>
<path d="M0 0 C1.0209375 1.051875 1.0209375 1.051875 2.0625 2.125 C3.03813313 3.08693042 4.01764627 4.04493388 5 5 C5.79664063 5.79083984 5.79664063 5.79083984 6.609375 6.59765625 C10.88416783 10.58811653 14.2412285 11.98968921 20 13 C20 13.66 20 14.32 20 15 C19.13375 15.66 18.2675 16.32 17.375 17 C7.57243405 24.92990595 4.0392809 38.99383972 2.31640625 50.9453125 C0.95774708 64.06224422 1.8112007 78.58249522 9 90 C13.20914484 95.00546953 17.88554228 98.61069279 24.5 99.4375 C31.22690655 98.59663668 35.64620822 96.15580606 40 91 C44.06705807 85.42800606 46.63342361 79.45189541 49 73 C49.33 73 49.66 73 50 73 C51.65595391 86.07020768 52.20538032 98.833547 52 112 C50.93789307 111.98428955 49.87578613 111.9685791 48.78149414 111.95239258 C44.75390534 111.89714614 40.72634815 111.86331428 36.69848633 111.83520508 C34.9715406 111.82033002 33.24463115 111.80002364 31.51782227 111.77368164 C15.96352 111.5427444 1.69652662 113.42195365 -13.3125 117.625 C-14.89192228 118.05470517 -16.47134918 118.48439332 -18.05078125 118.9140625 C-18.71762939 119.0992041 -19.38447754 119.2843457 -20.0715332 119.47509766 C-22.04134244 120.01125285 -24.01790098 120.51144475 -26 121 C-27.31698698 31.71503646 -27.31698698 31.71503646 -8 7 C-5.47232127 4.46775042 -2.83867546 2.17583754 0 0 Z " fill="#FBFBFB" transform="translate(391,160)"/>
<path d="M0 0 C1.1032663 0.00081573 1.1032663 0.00081573 2.2288208 0.00164795 C41.36454575 0.13365274 79.68848569 13.13839593 110.5625 37.375 C111.37460937 37.99632812 112.18671875 38.61765625 113.0234375 39.2578125 C117.83339933 43.00563765 122.42532884 46.96497195 126.9375 51.0625 C127.43757568 51.51407471 127.93765137 51.96564941 128.45288086 52.4309082 C131.46897021 55.20758495 134.08225274 58.11306344 136.5625 61.375 C135.964375 62.344375 135.36625 63.31375 134.75 64.3125 C132.3589999 68.46484181 130.9316995 72.80062895 129.5625 77.375 C125.27928592 73.8532462 121.35889346 70.17197875 117.5 66.1875 C111.3613908 59.92306437 104.58823174 54.60474432 97.5625 49.375 C96.28246094 48.41980469 96.28246094 48.41980469 94.9765625 47.4453125 C67.01135989 27.28435248 32.36954134 12.2358193 -2.4375 11.375 C-3.4879248 11.3443042 -3.4879248 11.3443042 -4.55957031 11.31298828 C-39.30376425 10.40498667 -76.53813953 17.73298321 -106.44921875 36.23828125 C-107.10535156 36.61339844 -107.76148438 36.98851562 -108.4375 37.375 C-109.0975 37.045 -109.7575 36.715 -110.4375 36.375 C-77.507754 13.58107652 -40.36009772 -0.11359991 0 0 Z " fill="#FBE357" transform="translate(256.4375,47.625)"/>
<path d="M0 0 C0.6246379 14.59801897 -0.22432196 30.68728397 -9 43 C-22.76009964 56.08082815 -43.36318107 57.24363632 -61.3125 57.4375 C-62.58810791 57.45989746 -63.86371582 57.48229492 -65.17797852 57.50537109 C-73.30105331 57.48526316 -82.4578476 57.13018257 -88.7980957 51.36499023 C-89.19472412 50.91454346 -89.59135254 50.46409668 -90 50 C-79.751935 43.83039792 -69.3587172 37.94609895 -58.875 32.1875 C-49.85096142 27.22940533 -40.83808635 22.25542405 -31.875 17.1875 C-30.49477661 16.40729492 -30.49477661 16.40729492 -29.08666992 15.61132812 C-24.51606454 13.01939816 -19.96195979 10.40174815 -15.42578125 7.75 C-14.54229004 7.2341333 -13.65879883 6.7182666 -12.74853516 6.18676758 C-11.08294353 5.21170579 -9.41971692 4.23258891 -7.75927734 3.2487793 C-7.02789551 2.81992432 -6.29651367 2.39106934 -5.54296875 1.94921875 C-4.5842688 1.38207153 -4.5842688 1.38207153 -3.60620117 0.8034668 C-2 0 -2 0 0 0 Z " fill="#5E331A" transform="translate(292,104)"/>
<path d="M0 0 C3.3 0 6.6 0 10 0 C21.9722735 23.90499726 32.36073797 48.01641009 39 74 C39.23058105 74.88558594 39.46116211 75.77117187 39.69873047 76.68359375 C47.12959948 105.43760182 52.04304856 139.73447448 37 167 C29.80525164 178.09737418 29.80525164 178.09737418 26 180 C26.62080377 176.37980725 27.61369109 172.96984815 28.76489258 169.484375 C40.80513778 132.84357073 31.91416024 88.94568788 16.37890625 54.30078125 C15.00458283 51.01097024 14.23242179 47.99524411 13.5625 44.5 C11.08914288 32.43919674 7.83246543 21.00870519 3.3671875 9.55859375 C2.15199646 6.39562507 1.04293482 3.22316524 0 0 Z " fill="#F9E157" transform="translate(430,174)"/>
<path d="M0 0 C0.66 0 1.32 0 2 0 C2.598125 0.928125 3.19625 1.85625 3.8125 2.8125 C7.96771863 8.86724715 13.71304013 9.94125192 20.5 11.625 C21.34175781 11.8415625 22.18351562 12.058125 23.05078125 12.28125 C27.01603077 13.29285697 30.9738508 14.25747248 35 15 C34.855625 15.54269531 34.71125 16.08539063 34.5625 16.64453125 C33.69525583 20.27611619 33.12389548 23.95671025 32.5 27.63671875 C32 30 32 30 31 31 C28.20835321 31.52303992 25.43512141 31.97193048 22.625 32.375 C21.72974609 32.50366455 20.83449219 32.6323291 19.91210938 32.76489258 C10.47008719 34.04770846 0.99207576 34.88067722 -8.5 35.6875 C-9.27865417 35.75402771 -10.05730835 35.82055542 -10.85955811 35.88909912 C-24.97482211 37.08491732 -24.97482211 37.08491732 -30 37 C-30.04898437 36.16597656 -30.09796875 35.33195312 -30.1484375 34.47265625 C-30.22320312 33.34730469 -30.29796875 32.22195313 -30.375 31.0625 C-30.44460938 29.96035156 -30.51421875 28.85820312 -30.5859375 27.72265625 C-31.06827068 23.38620796 -31.9768888 19.2361132 -33 15 C-31.80503906 14.75765625 -30.61007812 14.5153125 -29.37890625 14.265625 C-13.32720441 11.41272754 -13.32720441 11.41272754 -1.19140625 1.390625 C-0.79824219 0.93171875 -0.40507812 0.4728125 0 0 Z " fill="#F5A422" transform="translate(329,371)"/>
<path d="M0 0 C3.24956601 1.08318867 3.83392636 1.70216017 5.9375 4.25 C9.19581715 8.09633616 12.56762322 11.81000905 16 15.5 C19.78949624 19.58506069 23.52174228 23.70396005 27.16796875 27.91796875 C29.99213208 31.12751897 32.89408277 34.26542968 35.78857422 37.41137695 C40.22986489 42.24083858 44.62155745 47.1134419 49 52 C40.18325437 57.87783042 23.62274479 55.68189545 13.48828125 53.6796875 C7.30960084 51.99194748 4.18577043 48.55910052 1.09765625 43.20703125 C-4.49995472 31.95204833 -6.50633904 16.73063774 -2.5625 4.6875 C-1.24550898 1.24550898 -1.24550898 1.24550898 0 0 Z " fill="#5E331A" transform="translate(396,114)"/>
<path d="M0 0 C3.3533649 1.08331906 5.02090951 2.71787379 7.53515625 5.171875 C14.90793737 12.00412965 20.84946919 14.40670324 30.55078125 16.83203125 C33.52217442 17.81378552 34.86889035 18.34907983 36.66015625 20.859375 C37.39568327 24.99671451 36.88503532 26.52205639 34.53515625 30.046875 C30.76643954 34.05771597 26.92495724 35.99589114 21.41015625 36.296875 C14.17854314 36.04034818 6.72077925 33.06057086 1.66015625 27.859375 C-4.10755705 20.4292882 -7.27611123 13.37809438 -6.33984375 3.859375 C-4.41319638 0.93372528 -3.57343572 -0.21476408 0 0 Z " fill="#5E321A" transform="translate(272.33984375,208.140625)"/>
<path d="M0 0 C5.41581293 3.46612028 8.75369543 7.95887451 11 14 C11.88159604 19.09025888 11.51425264 22.82750398 9.4375 27.5625 C7 30 7 30 3.625 31.125 C-1.00730377 30.96526539 -2.54360438 30.08869395 -6 27 C-11.47666307 19.89825232 -14.08539407 14.07389446 -13 5 C-9.34562573 -0.96881131 -6.70660075 -1.56487351 0 0 Z " fill="#F9F9F9" transform="translate(303,181)"/>
<path d="M0 0 C2.5 0 2.5 0 6 1 C7.21282354 2.22686085 8.37449583 3.50507167 9.5 4.8125 C13.95804205 9.66951079 18.71770325 10.72926035 25.0234375 12.11328125 C28 13 28 13 30 16 C30.5291588 19.96869102 30.15826216 21.71621958 28.1875 25.25 C26 28 26 28 23 30 C18.40056769 30.45240318 16.01935522 30.50967761 11.875 28.4375 C4.67183583 22.33046951 0.99340421 16.39566314 -1 7 C-1.02191731 4.38745651 -0.69229483 2.53841438 0 0 Z " fill="#5D321A" transform="translate(400,221)"/>
<path d="M0 0 C0.66 0 1.32 0 2 0 C2.598125 0.928125 3.19625 1.85625 3.8125 2.8125 C8.02850585 8.95582281 13.92685502 9.98791127 20.8125 11.6875 C21.69615234 11.91244141 22.57980469 12.13738281 23.49023438 12.36914062 C25.6584441 12.9199831 27.82824206 13.46335062 30 14 C30 14.33 30 14.66 30 15 C9.25056031 19.590584 -10.79826531 20.28315446 -32 20 C-32.33 18.35 -32.66 16.7 -33 15 C-31.80503906 14.75765625 -30.61007812 14.5153125 -29.37890625 14.265625 C-13.32720441 11.41272754 -13.32720441 11.41272754 -1.19140625 1.390625 C-0.79824219 0.93171875 -0.40507812 0.4728125 0 0 Z " fill="#F2C200" transform="translate(329,371)"/>
<path d="M0 0 C2.98593305 0.07109364 5.21143779 0.40054144 7.62890625 2.23828125 C12.65129023 7.5124138 14.95292154 14.15091906 15.0234375 21.4140625 C14.69620258 24.74701079 14.4082368 26.5917632 12 29 C8.85988511 29.07136625 6.82672211 28.68926711 4.37890625 26.6484375 C-1.17803483 20.5787612 -3.56014874 14.20561778 -3.3046875 5.98828125 C-2.90163869 3.35812943 -1.90818171 1.82867414 0 0 Z " fill="#F8F8F8" transform="translate(421,189)"/>
<path d="M0 0 C4.09561495 0.21425752 7.16471816 1.05102904 11.0078125 2.453125 C12.77511719 3.07960938 12.77511719 3.07960938 14.578125 3.71875 C17.88958471 5.20616689 20.27197145 6.68898177 22.8828125 9.203125 C23.74951143 13.70995944 22.95696331 16.53504885 20.6953125 20.390625 C18.47513188 23.63309218 16.17884329 26.00577114 12.8828125 28.203125 C12.2846875 28.615625 11.6865625 29.028125 11.0703125 29.453125 C7.57288678 30.65224239 4.57771689 30.4377221 0.8828125 30.203125 C-0.1071875 29.543125 -1.0971875 28.883125 -2.1171875 28.203125 C-1.7871875 26.553125 -1.4571875 24.903125 -1.1171875 23.203125 C-0.54871094 23.27273438 0.01976562 23.34234375 0.60546875 23.4140625 C5.26711188 23.74092229 8.17842096 23.52688715 11.8828125 20.515625 C14.71749794 17.9762193 15.37203715 15.95093912 15.8828125 12.203125 C13.84181315 11.4097395 11.7999816 10.6184947 9.7578125 9.828125 C8.05238281 9.16683594 8.05238281 9.16683594 6.3125 8.4921875 C4.07000542 7.64933646 1.80184016 6.87119259 -0.48828125 6.16796875 C-1.35582031 5.84957031 -2.22335937 5.53117187 -3.1171875 5.203125 C-4.0546875 3.140625 -4.0546875 3.140625 -4.1171875 1.203125 C-3.1171875 0.203125 -3.1171875 0.203125 0 0 Z " fill="#0B0900" transform="translate(331.1171875,300.796875)"/>
<path d="M0 0 C1.63671875 0.83984375 1.63671875 0.83984375 2.3815918 2.5534668 C2.63671875 4.83984375 2.63671875 4.83984375 1.06958008 7.05395508 C0.29380615 7.83536865 -0.48196777 8.61678223 -1.28125 9.421875 C-2.12365234 10.27072266 -2.96605469 11.11957031 -3.83398438 11.99414062 C-5.17879883 13.30995117 -5.17879883 13.30995117 -6.55078125 14.65234375 C-7.8665918 15.9971582 -7.8665918 15.9971582 -9.20898438 17.36914062 C-10.05783203 18.21154297 -10.90667969 19.05394531 -11.78125 19.921875 C-12.56266357 20.69764893 -13.34407715 21.47342285 -14.14916992 22.27270508 C-16.36328125 23.83984375 -16.36328125 23.83984375 -18.5871582 23.7722168 C-20.36328125 22.83984375 -20.36328125 22.83984375 -21.36328125 19.83984375 C-19.48939823 16.83728987 -16.80579014 14.38680203 -14.36328125 11.83984375 C-13.88503906 11.32518555 -13.40679687 10.81052734 -12.9140625 10.28027344 C-11.3492179 8.59816403 -9.7654167 6.93601979 -8.17578125 5.27734375 C-7.6650708 4.72828369 -7.15436035 4.17922363 -6.62817383 3.61352539 C-2.89859129 -0.19643346 -2.89859129 -0.19643346 0 0 Z " fill="#120F00" transform="translate(180.36328125,314.16015625)"/>
<path d="M0 0 C0.67675781 0.30292969 1.35351562 0.60585938 2.05078125 0.91796875 C1.28827457 7.51862121 -3.22738098 10.81833953 -7.76171875 15.29296875 C-8.58220703 16.13730469 -9.40269531 16.98164063 -10.24804688 17.8515625 C-11.44010742 19.04072266 -11.44010742 19.04072266 -12.65625 20.25390625 C-13.38303955 20.9814209 -14.1098291 21.70893555 -14.85864258 22.45849609 C-16.94921875 23.91796875 -16.94921875 23.91796875 -19.2175293 23.64697266 C-19.78898682 23.40640137 -20.36044434 23.16583008 -20.94921875 22.91796875 C-20.94921875 21.26796875 -20.94921875 19.61796875 -20.94921875 17.91796875 C-20.28921875 17.91796875 -19.62921875 17.91796875 -18.94921875 17.91796875 C-18.68278564 17.32991455 -18.41635254 16.74186035 -18.1418457 16.13598633 C-16.12679794 12.38845123 -13.10184301 9.61925146 -10.13671875 6.60546875 C-9.51990234 5.94740234 -8.90308594 5.28933594 -8.26757812 4.61132812 C-3.63395928 -0.10107701 -3.63395928 -0.10107701 0 0 Z " fill="#130F00" transform="translate(205.94921875,314.08203125)"/>
<path d="M0 0 C-0.76250668 6.60065246 -5.27816223 9.90037078 -9.8125 14.375 C-10.63298828 15.21933594 -11.45347656 16.06367188 -12.29882812 16.93359375 C-13.49088867 18.12275391 -13.49088867 18.12275391 -14.70703125 19.3359375 C-15.4338208 20.06345215 -16.16061035 20.7909668 -16.90942383 21.54052734 C-19 23 -19 23 -21.26831055 22.72900391 C-21.83976807 22.48843262 -22.41122559 22.24786133 -23 22 C-22.48129832 17.84495042 -21.35634207 15.83254313 -18.47265625 12.828125 C-17.76302734 12.08175781 -17.05339844 11.33539063 -16.32226562 10.56640625 C-15.57654297 9.80199219 -14.83082031 9.03757812 -14.0625 8.25 C-13.32064453 7.47011719 -12.57878906 6.69023437 -11.81445312 5.88671875 C-4.79004005 -1.43701202 -4.79004005 -1.43701202 0 0 Z " fill="#0D0A00" transform="translate(233,315)"/>
<path d="M0 0 C0.57145752 0.24057129 1.14291504 0.48114258 1.73168945 0.72900391 C0.96918278 7.32965636 -3.54647278 10.62937469 -8.08081055 15.10400391 C-8.90129883 15.94833984 -9.72178711 16.79267578 -10.56713867 17.66259766 C-11.75919922 18.85175781 -11.75919922 18.85175781 -12.9753418 20.06494141 C-13.70213135 20.79245605 -14.4289209 21.5199707 -15.17773438 22.26953125 C-17.26831055 23.72900391 -17.26831055 23.72900391 -19.53662109 23.45800781 C-20.10807861 23.21743652 -20.67953613 22.97686523 -21.26831055 22.72900391 C-20.50580387 16.12835145 -15.99014832 12.82863312 -11.45581055 8.35400391 C-10.63532227 7.50966797 -9.81483398 6.66533203 -8.96948242 5.79541016 C-7.77742188 4.60625 -7.77742188 4.60625 -6.5612793 3.39306641 C-5.83448975 2.66555176 -5.1077002 1.93803711 -4.35888672 1.18847656 C-2.26831055 -0.27099609 -2.26831055 -0.27099609 0 0 Z " fill="#060400" transform="translate(460.268310546875,314.27099609375)"/>
<path d="M0 0 C0.57145752 0.24057129 1.14291504 0.48114258 1.73168945 0.72900391 C0.96918278 7.32965636 -3.54647278 10.62937469 -8.08081055 15.10400391 C-8.90129883 15.94833984 -9.72178711 16.79267578 -10.56713867 17.66259766 C-11.75919922 18.85175781 -11.75919922 18.85175781 -12.9753418 20.06494141 C-13.70213135 20.79245605 -14.4289209 21.5199707 -15.17773438 22.26953125 C-17.26831055 23.72900391 -17.26831055 23.72900391 -19.53662109 23.45800781 C-20.10807861 23.21743652 -20.67953613 22.97686523 -21.26831055 22.72900391 C-20.50580387 16.12835145 -15.99014832 12.82863312 -11.45581055 8.35400391 C-10.63532227 7.50966797 -9.81483398 6.66533203 -8.96948242 5.79541016 C-7.77742188 4.60625 -7.77742188 4.60625 -6.5612793 3.39306641 C-5.83448975 2.66555176 -5.1077002 1.93803711 -4.35888672 1.18847656 C-2.26831055 -0.27099609 -2.26831055 -0.27099609 0 0 Z " fill="#050400" transform="translate(435.268310546875,314.27099609375)"/>
<path d="M0 0 C0.57145752 0.24057129 1.14291504 0.48114258 1.73168945 0.72900391 C0.96918278 7.32965636 -3.54647278 10.62937469 -8.08081055 15.10400391 C-8.90129883 15.94833984 -9.72178711 16.79267578 -10.56713867 17.66259766 C-11.75919922 18.85175781 -11.75919922 18.85175781 -12.9753418 20.06494141 C-13.70213135 20.79245605 -14.4289209 21.5199707 -15.17773438 22.26953125 C-17.26831055 23.72900391 -17.26831055 23.72900391 -19.53662109 23.45800781 C-20.10807861 23.21743652 -20.67953613 22.97686523 -21.26831055 22.72900391 C-20.50580387 16.12835145 -15.99014832 12.82863312 -11.45581055 8.35400391 C-10.63532227 7.50966797 -9.81483398 6.66533203 -8.96948242 5.79541016 C-7.77742188 4.60625 -7.77742188 4.60625 -6.5612793 3.39306641 C-5.83448975 2.66555176 -5.1077002 1.93803711 -4.35888672 1.18847656 C-2.26831055 -0.27099609 -2.26831055 -0.27099609 0 0 Z " fill="#050400" transform="translate(410.268310546875,314.27099609375)"/>
<path d="M0 0 C0.57145752 0.24057129 1.14291504 0.48114258 1.73168945 0.72900391 C0.96918278 7.32965636 -3.54647278 10.62937469 -8.08081055 15.10400391 C-8.90129883 15.94833984 -9.72178711 16.79267578 -10.56713867 17.66259766 C-11.75919922 18.85175781 -11.75919922 18.85175781 -12.9753418 20.06494141 C-13.70213135 20.79245605 -14.4289209 21.5199707 -15.17773438 22.26953125 C-17.26831055 23.72900391 -17.26831055 23.72900391 -19.53662109 23.45800781 C-20.10807861 23.21743652 -20.67953613 22.97686523 -21.26831055 22.72900391 C-20.50580387 16.12835145 -15.99014832 12.82863312 -11.45581055 8.35400391 C-10.63532227 7.50966797 -9.81483398 6.66533203 -8.96948242 5.79541016 C-7.77742187 4.60625 -7.77742187 4.60625 -6.5612793 3.39306641 C-5.83448975 2.66555176 -5.1077002 1.93803711 -4.35888672 1.18847656 C-2.26831055 -0.27099609 -2.26831055 -0.27099609 0 0 Z " fill="#060400" transform="translate(256.268310546875,314.27099609375)"/>
<path d="M0 0 C0.33 0.66 0.66 1.32 1 2 C0.2578125 4.20703125 0.2578125 4.20703125 -0.875 6.8125 C-2.03004756 9.482033 -2.96906618 11.83557482 -3.5078125 14.69921875 C-4 17 -4 17 -6 19 C-10.54991515 18.5985369 -14.77938576 16.64532419 -19 15 C-18.01 14.34 -17.02 13.68 -16 13 C-10.49520916 8.86073867 -5.18925942 4.52680077 0 0 Z " fill="#F3A723" transform="translate(460,339)"/>
<path d="M0 0 C3 0.25 3 0.25 5 2.25 C5.333728 5.38704316 5.52849028 7.41554166 3.8125 10.125 C1.38241919 11.63332602 -0.19015752 11.61023622 -3 11.25 C-5 9.25 -5 9.25 -5.25 5.75 C-4.93427155 1.32980166 -4.46370491 0.37197541 0 0 Z " fill="#F8F8F8" transform="translate(284,175.75)"/>
<path d="M0 0 C3.69230769 0.69230769 3.69230769 0.69230769 5 2 C5.23728814 8.52542373 5.23728814 8.52542373 4 11 C2.35 10.67 0.7 10.34 -1 10 C-1.02689216 8.52093108 -1.04634621 7.04172517 -1.0625 5.5625 C-1.07410156 4.73878906 -1.08570313 3.91507813 -1.09765625 3.06640625 C-1 1 -1 1 0 0 Z " fill="#F1F1F1" transform="translate(409,181)"/>
<path d="M0 0 C2 1 2 1 3 3 C0.37964982 4.36389525 -2.24556999 5.71632173 -4.875 7.0625 C-5.99455078 7.64741211 -5.99455078 7.64741211 -7.13671875 8.24414062 C-8.20986328 8.79038086 -8.20986328 8.79038086 -9.3046875 9.34765625 C-10.2944458 9.85824585 -10.2944458 9.85824585 -11.30419922 10.37915039 C-11.86381348 10.58403076 -12.42342773 10.78891113 -13 11 C-13.66 10.67 -14.32 10.34 -15 10 C-10.05 6.7 -5.1 3.4 0 0 Z " fill="#ECD34B" transform="translate(161,74)"/>
<path d="M0 0 C0.99928333 2.698065 1.03624754 3.88010429 0.1875 6.6875 C-1 9 -1 9 -3 10 C-2.39009109 6.44219804 -1.4216319 3.3171411 0 0 Z " fill="#E19A1C" transform="translate(57,203)"/>
</svg>
