<?xml version="1.0" encoding="UTF-8"?>
<svg version="1.1" xmlns="http://www.w3.org/2000/svg" width="512" height="512">
<path d="M0 0 C1.3104615 -0.00445784 2.62092299 -0.00891569 3.97109544 -0.01350862 C5.42382329 -0.01341933 6.87655113 -0.01322949 8.32927895 -0.01294994 C9.87382971 -0.01625027 11.41837961 -0.0199762 12.96292841 -0.02409142 C17.20966552 -0.03410063 21.4563885 -0.03782649 25.70313573 -0.04048073 C30.28279739 -0.04438708 34.8624479 -0.0539653 39.44210243 -0.0626936 C50.50433147 -0.08245032 61.5665614 -0.09252394 72.62880367 -0.10142139 C77.84096043 -0.10580623 83.05311618 -0.11117259 88.26527214 -0.11641026 C105.59715946 -0.13342296 122.92904616 -0.14791592 140.26094055 -0.155159 C144.75805474 -0.15706883 149.25516893 -0.15898917 153.7522831 -0.16094494 C155.42884658 -0.16167055 155.42884658 -0.16167055 157.13928004 -0.16241082 C175.23513446 -0.17070659 193.33092267 -0.19603568 211.4267482 -0.22852562 C230.01455423 -0.26162611 248.60232665 -0.27961053 267.1901623 -0.28280324 C277.62272917 -0.28496573 288.05519955 -0.2936761 298.48773766 -0.31926441 C307.37499589 -0.34101239 316.26213419 -0.34900175 325.14941601 -0.33929763 C329.67989896 -0.33476459 334.21013467 -0.33658086 338.74058342 -0.35605907 C342.89735906 -0.37377546 347.05370865 -0.37262503 351.21048935 -0.35716178 C352.70521853 -0.35479847 354.19997789 -0.35904215 355.69466119 -0.37099043 C375.33849513 -0.51814955 392.48918829 5.2852524 407.55452919 18.13422108 C408.36148232 18.74394764 409.16843544 19.3536742 409.99984169 19.98187733 C422.42142388 30.44715528 430.72368087 47.3693244 433.55452919 63.13422108 C433.89484169 64.83578358 433.89484169 64.83578358 434.24202919 66.57172108 C436.13301679 88.1289797 431.2269952 108.76810907 417.42171669 125.75922108 C411.33225284 132.71860834 404.7563813 139.69381439 396.55452919 144.13422108 C395.89452919 144.13422108 395.23452919 144.13422108 394.55452919 144.13422108 C394.87615028 144.72098621 395.19777138 145.30775135 395.52913857 145.91229725 C408.04311104 168.8984653 417.54286673 192.62225828 422.80452919 218.32172108 C422.95567177 219.05592274 423.10681435 219.7901244 423.262537 220.54657459 C426.21220477 235.92579607 426.92954186 251.13623633 426.86702919 266.75922108 C426.86487404 267.72977436 426.86271889 268.70032764 426.86049843 269.70029163 C426.80946259 284.02853005 426.46211357 298.0560789 423.55452919 312.13422108 C423.35585243 313.11729237 423.15717567 314.10036366 422.95247841 315.11322498 C416.23149103 347.42934332 403.95554812 379.23230749 384.55452919 406.13422108 C384.08337685 406.7963158 383.6122245 407.45841053 383.12679482 408.14056873 C369.78634639 426.78424616 354.66762176 444.00450571 336.55452919 458.13422108 C335.5709745 458.92312733 334.58741982 459.71203358 333.57406044 460.52484608 C303.55948233 484.40040089 267.7412054 500.79526852 230.17952919 508.44672108 C229.45700966 508.59399647 228.73449013 508.74127186 227.99007607 508.89301014 C212.65894287 511.78708347 197.49680728 512.50901084 181.92952919 512.44672108 C180.95897591 512.44456593 179.98842262 512.44241077 178.98845863 512.44019032 C164.66022021 512.38915447 150.63267137 512.04180546 136.55452919 509.13422108 C135.07992226 508.83620594 135.07992226 508.83620594 133.57552528 508.5321703 C78.23564836 497.02278633 25.55002031 467.11221858 -9.44547081 422.13422108 C-10.1901461 421.19618641 -10.1901461 421.19618641 -10.94986534 420.23920155 C-18.59258115 410.61172274 -25.52172188 400.90815926 -31.44547081 390.13422108 C-31.9134005 389.2911742 -32.38133018 388.44812733 -32.86343956 387.57953358 C-45.31267833 364.98528532 -54.51314937 341.25865966 -59.69547081 315.94672108 C-59.92218468 314.84541859 -59.92218468 314.84541859 -60.15347862 313.72186756 C-63.10314639 298.34264608 -63.82048348 283.13220582 -63.75797081 267.50922108 C-63.75581566 266.53866779 -63.75366051 265.56811451 -63.75144005 264.56815052 C-63.70040421 250.2399121 -63.35305519 236.21236326 -60.44547081 222.13422108 C-60.24679405 221.15114979 -60.04811729 220.1680785 -59.84342003 219.15521717 C-54.51195094 193.52023585 -46.12071433 166.14708635 -31.44547081 144.13422108 C-32.18281456 143.86738514 -32.92015831 143.6005492 -33.67984581 143.32562733 C-48.72683809 136.84351907 -60.05722058 120.86628473 -66.10440636 106.10638905 C-73.60796077 86.49691195 -73.54785136 65.15863333 -65.25797081 45.82172108 C-62.16078473 38.94361948 -58.20054718 32.99678318 -53.44547081 27.13422108 C-52.66172081 26.08234608 -51.87797081 25.03047108 -51.07047081 23.94672108 C-38.17405244 10.12912996 -19.15420174 0.03025929 0 0 Z " fill="#FE4155" transform="translate(74.44547080993652,-0.13422107696533203)"/>
<path d="M0 0 C3.44875161 0.37936268 6.34592749 1.48159125 9.5 2.875 C21.20835625 7.61615164 32.62401357 8.44609283 45.08129883 8.43237305 C46.75807915 8.44140991 48.43485291 8.45174178 50.11161804 8.46325684 C54.62311893 8.49062726 59.13449381 8.50008395 63.6460669 8.50611091 C68.37596689 8.51554701 73.10577465 8.54175429 77.83561707 8.56611633 C86.77415581 8.60964182 95.71267651 8.63827422 104.65128869 8.66143972 C114.83524677 8.68856652 125.01911143 8.73247318 135.20300257 8.77772844 C156.13528466 8.87037472 177.06759471 8.94214672 198 9 C197.67 9.99 197.34 10.98 197 12 C196.9037475 13.50547501 196.86245649 15.01479913 196.85523987 16.52333069 C196.84834137 17.45012131 196.84144287 18.37691193 196.83433533 19.33178711 C196.83172195 20.34644043 196.82910858 21.36109375 196.82641602 22.40649414 C196.8163855 24.01167152 196.8163855 24.01167152 196.80615234 25.64927673 C196.79209255 27.97537658 196.78020146 30.3014903 196.77020454 32.62761116 C196.75382231 36.30399259 196.73058746 39.98027061 196.70530701 43.65660095 C196.63444032 54.10996373 196.57428547 64.5633679 196.52319336 75.0168457 C196.49148066 81.40698283 196.45022915 87.79699997 196.40299797 94.18704033 C196.38693606 96.62756643 196.374634 99.06812016 196.36609077 101.50868416 C196.35399691 104.9135476 196.32987381 108.31812645 196.30297852 111.72290039 C196.30238937 112.73957794 196.30180023 113.75625549 196.30119324 114.80374146 C196.28661575 116.18969765 196.28661575 116.18969765 196.27174377 117.60365295 C196.26751184 118.40909074 196.2632799 119.21452852 196.25891972 120.04437351 C196 122 196 122 194 124 C192.13032388 124.17546191 190.25234841 124.26734858 188.375 124.3125 C181.18702795 124.83635459 177.13645246 126.79136976 172.1328125 131.91015625 C160.97628759 145.10166961 159.67119851 160.44693003 161 177 C161.84077432 181.71177231 163.76504744 185.78971059 166 190 C166.79664063 191.65902344 166.79664063 191.65902344 167.609375 193.3515625 C170.69663593 199.5119226 174.06415779 204.59729905 178.7890625 209.59375 C182.95879544 214.13183391 186.63314507 219.08823862 190.40380859 223.95800781 C192.14266412 226.18250882 193.90755438 228.38472233 195.67578125 230.5859375 C196.92975045 232.16140823 198.18365746 233.73692847 199.4375 235.3125 C200.02869629 236.04073975 200.61989258 236.76897949 201.22900391 237.51928711 C201.79151855 238.23093018 202.3540332 238.94257324 202.93359375 239.67578125 C203.42915771 240.29364502 203.92472168 240.91150879 204.43530273 241.5480957 C209.28472733 249.14721744 210.57874911 255.52766099 210.45410156 264.48657227 C210.45468567 265.59979355 210.45526978 266.71301483 210.45587158 267.85997009 C210.45310134 271.51244087 210.4220581 275.16407933 210.390625 278.81640625 C210.38315888 281.35944676 210.3774677 283.90249305 210.37347412 286.44554138 C210.35980062 292.4377881 210.32832695 298.42968161 210.28807616 304.4217872 C210.24322099 311.24891002 210.22133706 318.07604762 210.20129442 324.90328133 C210.15958959 338.93568372 210.08932393 352.96782564 210 367 C206.95848409 367.01206997 203.91701666 367.02088086 200.87548828 367.02783203 C200.01961624 367.03156326 199.1637442 367.03529449 198.28193665 367.03913879 C192.0773035 367.04976604 186.02312911 366.75422957 179.875 365.875 C178.92818359 365.74375732 177.98136719 365.61251465 177.00585938 365.47729492 C117.24418281 356.617734 59.33601532 324.98615908 22 277 C21.25532471 276.06196533 21.25532471 276.06196533 20.49560547 275.10498047 C12.85288966 265.47750167 5.92374893 255.77393818 0 245 C-0.46792969 244.15695312 -0.93585937 243.31390625 -1.41796875 242.4453125 C-13.86720752 219.85106424 -23.06767856 196.12443859 -28.25 170.8125 C-28.40114258 170.07829834 -28.55228516 169.34409668 -28.70800781 168.58764648 C-31.65767558 153.20842501 -32.37501267 137.99798474 -32.3125 122.375 C-32.31034485 121.40444672 -32.3081897 120.43389343 -32.30596924 119.43392944 C-32.2549334 105.10569102 -31.90758438 91.07814218 -29 77 C-28.80132324 76.01692871 -28.60264648 75.03385742 -28.39794922 74.02099609 C-16.41786118 16.41786118 -16.41786118 16.41786118 0 0 Z " fill="#9080F1" transform="translate(43,145)"/>
<path d="M0 0 C3.69792866 2.03539608 6.46230201 4.0489933 8.8125 7.5625 C9.21082031 8.14128906 9.60914063 8.72007812 10.01953125 9.31640625 C12.09686253 12.88345717 12.14803687 15.99745384 12.20532227 20.03198242 C12.2352401 21.89357246 12.2352401 21.89357246 12.26576233 23.79277039 C12.28274527 25.1470019 12.29962413 26.50123473 12.31640625 27.85546875 C12.33698228 29.24124259 12.35797892 30.62701025 12.37937927 32.01277161 C12.43453301 35.65740953 12.48397174 39.30210346 12.53222656 42.94683838 C12.58249056 46.6670835 12.63815104 50.38724743 12.69335938 54.10742188 C12.80085899 61.40487913 12.90232207 68.70240397 13 76 C13.94057251 74.32139893 13.94057251 74.32139893 14.90014648 72.60888672 C17.56775565 67.84811436 20.6882277 64.77059077 26 63 C32.12535087 62.39637092 37.77961232 62.40209146 43.2109375 65.53125 C48.1103237 69.55345352 51.04618139 74.7837339 52 81 C52.20753906 80.48050781 52.41507812 79.96101563 52.62890625 79.42578125 C55.03642467 73.97612658 57.74045149 70.84332901 63 68 C67.98047382 66.33984206 73.23805968 65.96123862 78.22265625 67.8359375 C83.28792894 70.74432143 87.61604703 74.60910983 90 80 C90.75991728 84.67525268 90.98670682 89.26762847 91 94 C91.65162109 92.60007813 91.65162109 92.60007813 92.31640625 91.171875 C94.93500556 86.2384582 98.80623003 83.14587205 104 81 C111.11267364 80.05017091 117.17452104 80.70396951 123 85 C127.86369964 89.78571348 129.68648769 93.95744596 129.81317139 100.74282837 C129.801026 101.70965546 129.78888062 102.67648254 129.77636719 103.67260742 C129.7868811 104.71293625 129.79739502 105.75326508 129.80822754 106.82511902 C129.83455138 110.25252065 129.81716496 113.67804921 129.796875 117.10546875 C129.80092271 119.5099574 129.80675077 121.91444365 129.81427002 124.31892395 C129.82310968 129.36186061 129.8102926 134.40415917 129.78222656 139.44702148 C129.74828117 145.85290118 129.7675746 152.25725904 129.80366135 158.66308117 C129.8255622 163.6351879 129.81833868 168.60694688 129.80289459 173.57906532 C129.7989398 175.93692524 129.80363251 178.29481855 129.81777191 180.65263939 C129.90908283 200.18131913 126.834326 217.47416414 118.1875 235.125 C117.40932677 236.77304609 116.63194487 238.42146613 115.85546875 240.0703125 C115.35503052 241.10309326 115.35503052 241.10309326 114.84448242 242.15673828 C112.76782661 246.68947935 112.82778805 250.89894564 112.79467773 255.78588867 C112.78477814 256.68365524 112.77487854 257.58142181 112.76467896 258.50639343 C112.73306544 261.47689162 112.70830705 264.4474058 112.68359375 267.41796875 C112.6630241 269.47634804 112.64202762 271.53472311 112.62062073 273.59309387 C112.56540122 279.01326072 112.51599137 284.43346568 112.46777344 289.85369873 C112.41755757 295.38362016 112.36187194 300.91348617 112.30664062 306.44335938 C112.19906051 317.29552559 112.09761517 328.1477399 112 339 C108.55816965 340.7504242 105.11154019 342.49119698 101.6640625 344.23046875 C100.7037915 344.71898315 99.74352051 345.20749756 98.75415039 345.71081543 C76.84145942 356.74084798 53.16154268 363.95960825 29 368 C28.29875 368.11859375 27.5975 368.2371875 26.875 368.359375 C17.55287966 369.86525598 8.37584129 370.09983546 -1.05078125 370.046875 C-2.20340454 370.04349121 -3.35602783 370.04010742 -4.5435791 370.03662109 C-7.36241725 370.0278556 -10.1811926 370.01556746 -13 370 C-13.00146656 369.42077065 -13.00293312 368.84154131 -13.00444412 368.24475956 C-13.04156879 354.12137959 -13.10065811 339.99823247 -13.18390274 325.87504673 C-13.22363579 319.04503064 -13.25605722 312.21512881 -13.27099609 305.38500977 C-13.28544 298.79073418 -13.32061673 292.19677676 -13.36830902 285.60264397 C-13.38311987 283.08976258 -13.39104084 280.57683061 -13.39188385 278.06390572 C-13.394256 274.53774594 -13.42135825 271.0125631 -13.45410156 267.48657227 C-13.4490712 266.45294556 -13.44404083 265.41931885 -13.43885803 264.35437012 C-13.58336074 254.26318592 -17.14467105 247.38839423 -23.5625 239.8125 C-24.63352773 238.51230759 -25.70382349 237.21151192 -26.7734375 235.91015625 C-27.31194336 235.26062988 -27.85044922 234.61110352 -28.40527344 233.94189453 C-30.88683976 230.92009745 -33.28599242 227.83551907 -35.6875 224.75 C-38.98906176 220.51685031 -42.35924499 216.36156784 -45.8125 212.25 C-52.37003913 204.25471165 -57.09687664 195.55982388 -61 186 C-61.36738281 185.12988281 -61.73476562 184.25976562 -62.11328125 183.36328125 C-65.43094712 170.77953537 -64.46052543 155.3465007 -58 144 C-53.73531003 136.82937012 -48.94482767 130.27057393 -41 127 C-38.94553041 126.73881579 -36.88011991 126.55586557 -34.8125 126.4375 C-31.08992543 126.53210522 -31.08992543 126.53210522 -28 125 C-27.90539304 123.59296696 -27.87978554 122.18121943 -27.88215637 120.77101135 C-27.88103851 119.85853134 -27.87992065 118.94605133 -27.87876892 118.00592041 C-27.88243973 116.9966449 -27.88611053 115.98736938 -27.88989258 114.94750977 C-27.8893496 112.755661 -27.88876257 110.56381224 -27.88813782 108.3719635 C-27.89028007 106.61788524 -27.89028007 106.61788524 -27.89246559 104.82837105 C-27.89597364 98.65181201 -27.87018581 92.47534536 -27.84960938 86.29882812 C-27.82529752 78.43131956 -27.80953062 70.56407399 -27.82495117 62.6965332 C-27.83663313 56.34738759 -27.81915368 49.99889795 -27.78250694 43.64985466 C-27.77390437 41.23267972 -27.77595206 38.8154418 -27.789011 36.39828682 C-27.80596908 33.003815 -27.78563177 29.61139399 -27.75708008 26.21704102 C-27.77087204 25.22598358 -27.784664 24.23492615 -27.7988739 23.21383667 C-27.65481287 14.3350149 -23.90500971 8.72437143 -18.5625 1.875 C-13.62259928 -1.82663227 -5.74828261 -0.8904925 0 0 Z " fill="#FEC6AB" transform="translate(266,142)"/>
<path d="M0 0 C1.24511719 1.5402832 1.24511719 1.5402832 2.296875 3.55078125 C2.89278442 4.67661621 2.89278442 4.67661621 3.50073242 5.82519531 C4.11911987 7.05641113 4.11911987 7.05641113 4.75 8.3125 C5.18610596 9.16553711 5.62221191 10.01857422 6.0715332 10.89746094 C15.81072837 30.31545868 22.97588986 51.08618658 27.3125 72.375 C27.53341309 73.4587793 27.53341309 73.4587793 27.75878906 74.56445312 C30.65286239 89.89558632 31.37478976 105.05772191 31.3125 120.625 C31.30926727 122.08082993 31.30926727 122.08082993 31.30596924 123.56607056 C31.2549334 137.89430898 30.90758438 151.92185782 28 166 C27.70198486 167.47460693 27.70198486 167.47460693 27.39794922 168.97900391 C20.67696184 201.29512224 8.40101893 233.09808642 -11 260 C-11.70672852 260.99314209 -11.70672852 260.99314209 -12.42773438 262.00634766 C-25.7681828 280.65002508 -40.88690743 297.87028464 -59 312 C-59.98355469 312.78890625 -60.96710938 313.5778125 -61.98046875 314.390625 C-68.14626456 319.29055032 -74.51836822 323.77442731 -81.125 328.0625 C-81.85992676 328.53993652 -82.59485352 329.01737305 -83.35205078 329.50927734 C-86.25724625 331.36678627 -88.70961842 332.90320614 -92 334 C-92.16317141 322.42888976 -92.28706238 310.85805929 -92.3626852 299.28602695 C-92.39900579 293.91088896 -92.44816253 288.53654589 -92.52807617 283.16186523 C-92.60489972 277.96165754 -92.64614887 272.76220772 -92.6641407 267.56147575 C-92.67693936 265.59094266 -92.70192692 263.62044463 -92.7401104 261.65023994 C-92.99169179 248.11381287 -91.02997793 238.12593482 -85 226 C-76.98938635 208.21095275 -75.37243569 193.09725905 -75.3984375 173.75390625 C-75.39064875 171.32827973 -75.38197639 168.90265591 -75.37246704 166.47703552 C-75.35762778 161.42153016 -75.35806699 156.36630445 -75.36865234 151.31079102 C-75.38029355 144.84226132 -75.346216 138.37486737 -75.299963 131.90652561 C-75.27048295 126.90926972 -75.26874445 121.91228829 -75.27498245 116.91496086 C-75.27395835 114.52958852 -75.26352641 112.14420035 -75.24335861 109.75891304 C-75.21862282 106.42779573 -75.23220718 103.09890511 -75.25537109 99.76782227 C-75.24008362 98.79156891 -75.22479614 97.81531555 -75.20904541 96.80947876 C-75.31349738 89.99764324 -77.10330025 85.80215976 -82 81 C-87.59484053 77.48951182 -93.55804699 77.00182077 -100 78 C-105.87893656 80.4326634 -109.66758594 83.91440954 -112.1875 89.75 C-112.455625 90.4925 -112.72375 91.235 -113 92 C-113.33 92 -113.66 92 -114 92 C-114.00386719 90.40671875 -114.00386719 90.40671875 -114.0078125 88.78125 C-114.08604489 78.2895823 -114.08604489 78.2895823 -119.2734375 69.484375 C-124.5623087 64.93738166 -128.54210125 63.35702733 -135.640625 63.6796875 C-141.50330359 64.47561406 -145.27860132 67.57455293 -149 72 C-150.19571009 74.30054622 -151.09159751 76.56165647 -152 79 C-152.33 79 -152.66 79 -153 79 C-153.14695312 78.12988281 -153.14695312 78.12988281 -153.296875 77.2421875 C-154.41436437 71.40426888 -155.67684458 66.52182717 -160.65234375 62.74609375 C-166.16536662 59.51043411 -171.7375461 59.07465233 -178 60 C-182.87546587 61.68212568 -186.18099371 64.71928675 -189 69 C-190.24016669 71.6794645 -190.24016669 71.6794645 -191 74 C-191.33 74 -191.66 74 -192 74 C-192.33 52.22 -192.66 30.44 -193 8 C-185.82564209 7.98598145 -185.82564209 7.98598145 -178.50634766 7.97167969 C-162.65656726 7.93782589 -146.8069153 7.88242854 -130.95723915 7.81609726 C-121.35300064 7.77642386 -111.74884267 7.74397229 -102.14453125 7.72900391 C-93.7655609 7.71592637 -85.38676867 7.68880773 -77.00789869 7.64538693 C-72.57844184 7.62290823 -68.14920354 7.60708106 -63.7196846 7.60811615 C-59.53511154 7.6088709 -55.35101909 7.5905994 -51.16657066 7.55883217 C-49.64544944 7.55043826 -48.12427363 7.54850997 -46.60313988 7.55419731 C-32.66212621 7.59930528 -18.63264488 5.75301339 -5.9453125 -0.36328125 C-3.49068941 -1.16670206 -2.40299057 -0.90525605 0 0 Z " fill="#816AE1" transform="translate(470,146)"/>
<path d="M0 0 C1.17644073 -0.00137466 2.35288147 -0.00274933 3.56497192 -0.00416565 C4.8467482 -0.00057037 6.12852448 0.0030249 7.44914246 0.00672913 C8.81932066 0.00701135 10.18949901 0.00685257 11.55967712 0.00628662 C15.27208586 0.00600002 18.9844622 0.01187455 22.69686341 0.01886058 C26.57926916 0.02511699 30.46167568 0.02569973 34.34408569 0.02688599 C41.69273955 0.02999255 49.0413785 0.03819686 56.39002579 0.04823548 C64.7575742 0.05941755 73.12512332 0.06491234 81.49267733 0.06993091 C98.70237679 0.08038003 115.91206176 0.09796642 133.12174988 0.12025452 C132.70022644 0.94009827 132.278703 1.75994202 131.84440613 2.60462952 C131.29655457 3.68228577 130.748703 4.75994202 130.18424988 5.87025452 C129.63897644 6.93759827 129.093703 8.00494202 128.53190613 9.10462952 C125.60142276 15.37148037 124.78649085 22.09052661 126.99284363 28.74916077 C129.44622773 34.01790368 132.42469565 37.89429597 136.76628113 41.74525452 C138.12174988 43.12025452 138.12174988 43.12025452 138.12174988 45.12025452 C137.47177032 45.70742249 136.82179077 46.29459045 136.15211487 46.89955139 C133.61347142 49.67618193 133.62505171 50.94110415 133.63591003 54.65150452 C133.62975677 55.75945374 133.62360352 56.86740295 133.61726379 58.00892639 C133.63163483 59.20066467 133.64600586 60.39240295 133.66081238 61.62025452 C133.66172882 62.84808655 133.66264526 64.07591858 133.66358948 65.34095764 C133.66963098 67.93670009 133.68539319 70.53243539 133.71012878 73.12806702 C133.74660894 77.10489038 133.75114833 81.0807814 133.75065613 85.05775452 C133.76048815 87.57859591 133.77214551 90.09943099 133.78581238 92.62025452 C133.78803802 93.8119928 133.79026367 95.00373108 133.79255676 96.23158264 C133.80531647 97.33953186 133.81807617 98.44748108 133.83122253 99.58900452 C133.83884613 100.56289124 133.84646973 101.53677795 133.85432434 102.54017639 C134.13414823 105.23987176 134.62935267 106.86399191 136.12174988 109.12025452 C138.65944991 110.40280095 138.65944991 110.40280095 141.12174988 111.12025452 C140.42049988 111.73900452 139.71924988 112.35775452 138.99674988 112.99525452 C133.74097331 118.22099807 129.52482538 125.29103729 128.74674988 132.68275452 C128.85092831 139.76688768 132.71907929 145.5845221 137.22673035 150.78211975 C137.76844879 151.40843796 138.31016724 152.03475616 138.86830139 152.68005371 C139.28193939 153.15531998 139.69557739 153.63058624 140.12174988 154.12025452 C121.75323854 154.21402989 103.38479002 154.28439541 85.01609039 154.3275032 C76.48563598 154.34805808 67.95533099 154.37604191 59.42497253 154.42201233 C51.98294004 154.46209832 44.54101586 154.48773863 37.09887838 154.4966085 C33.16459828 154.50178675 29.23062782 154.51380642 25.29644775 154.54317474 C-6.11209992 154.76860135 -6.11209992 154.76860135 -18.87825012 150.12025452 C-19.74558273 149.82303497 -20.61291534 149.52581543 -21.50653076 149.21958923 C-23.47411353 148.52051488 -25.35480852 147.7379209 -27.25325012 146.87025452 C-27.91333069 146.57360901 -28.57341125 146.2769635 -29.25349426 145.97132874 C-35.19825606 143.18038124 -40.07589346 139.60245407 -44.87825012 135.12025452 C-45.63364075 134.45509827 -46.38903137 133.78994202 -47.16731262 133.10462952 C-62.21769109 119.14036083 -69.70789417 100.18617226 -71.09309387 79.98744202 C-71.70226814 60.1527279 -65.31548696 42.45419823 -52.87825012 27.12025452 C-52.09450012 26.06837952 -51.31075012 25.01650452 -50.50325012 23.93275452 C-37.85722014 10.38343667 -18.86337358 -0.01704008 0 0 Z " fill="#E70154" transform="translate(73.87825012207031,-0.1202545166015625)"/>
<path d="M0 0 C3.44875161 0.37936268 6.34592749 1.48159125 9.5 2.875 C21.20835625 7.61615164 32.62401357 8.44609283 45.08129883 8.43237305 C46.75807915 8.44140991 48.43485291 8.45174178 50.11161804 8.46325684 C54.62311893 8.49062726 59.13449381 8.50008395 63.6460669 8.50611091 C68.37596689 8.51554701 73.10577465 8.54175429 77.83561707 8.56611633 C86.77415581 8.60964182 95.71267651 8.63827422 104.65128869 8.66143972 C114.83524677 8.68856652 125.01911143 8.73247318 135.20300257 8.77772844 C156.13528466 8.87037472 177.06759471 8.94214672 198 9 C197.67 9.99 197.34 10.98 197 12 C196.9037475 13.50547501 196.86245649 15.01479913 196.85523987 16.52333069 C196.84834137 17.45012131 196.84144287 18.37691193 196.83433533 19.33178711 C196.83172195 20.34644043 196.82910858 21.36109375 196.82641602 22.40649414 C196.8163855 24.01167152 196.8163855 24.01167152 196.80615234 25.64927673 C196.79209255 27.97537658 196.78020146 30.3014903 196.77020454 32.62761116 C196.75382231 36.30399259 196.73058746 39.98027061 196.70530701 43.65660095 C196.63444032 54.10996373 196.57428547 64.5633679 196.52319336 75.0168457 C196.49148066 81.40698283 196.45022915 87.79699997 196.40299797 94.18704033 C196.38693606 96.62756643 196.374634 99.06812016 196.36609077 101.50868416 C196.35399691 104.9135476 196.32987381 108.31812645 196.30297852 111.72290039 C196.30238937 112.73957794 196.30180023 113.75625549 196.30119324 114.80374146 C196.28661575 116.18969765 196.28661575 116.18969765 196.27174377 117.60365295 C196.26751184 118.40909074 196.2632799 119.21452852 196.25891972 120.04437351 C196 122 196 122 194 124 C192.13032388 124.17546191 190.25234841 124.26734858 188.375 124.3125 C181.18702795 124.83635459 177.13645246 126.79136976 172.1328125 131.91015625 C160.97628759 145.10166961 159.67119851 160.44693003 161 177 C161.84077432 181.71177231 163.76504744 185.78971059 166 190 C166.79664063 191.65902344 166.79664063 191.65902344 167.609375 193.3515625 C170.69663593 199.5119226 174.06415779 204.59729905 178.7890625 209.59375 C182.95879544 214.13183391 186.63314507 219.08823862 190.40380859 223.95800781 C192.14266412 226.18250882 193.90755438 228.38472233 195.67578125 230.5859375 C196.92975045 232.16140823 198.18365746 233.73692847 199.4375 235.3125 C200.02869629 236.04073975 200.61989258 236.76897949 201.22900391 237.51928711 C201.79151855 238.23093018 202.3540332 238.94257324 202.93359375 239.67578125 C203.42915771 240.29364502 203.92472168 240.91150879 204.43530273 241.5480957 C209.28472733 249.14721744 210.57874911 255.52766099 210.45410156 264.48657227 C210.45468567 265.59979355 210.45526978 266.71301483 210.45587158 267.85997009 C210.45310134 271.51244087 210.4220581 275.16407933 210.390625 278.81640625 C210.38315888 281.35944676 210.3774677 283.90249305 210.37347412 286.44554138 C210.35980062 292.4377881 210.32832695 298.42968161 210.28807616 304.4217872 C210.24322099 311.24891002 210.22133706 318.07604762 210.20129442 324.90328133 C210.15958959 338.93568372 210.08932393 352.96782564 210 367 C206.96141178 367.01302666 203.92288011 367.02253115 200.88427734 367.0300293 C200.02958359 367.0340551 199.17488983 367.0380809 198.29429626 367.0422287 C191.99698124 367.05387251 185.86285055 366.71496 179.625 365.8125 C178.21323486 365.61829468 178.21323486 365.61829468 176.77294922 365.42016602 C169.81916029 364.40416402 162.96823193 363.0314278 156.125 361.4375 C155.22088379 361.22778564 154.31676758 361.01807129 153.38525391 360.80200195 C152.55944824 360.59792725 151.73364258 360.39385254 150.8828125 360.18359375 C150.15465332 360.00368896 149.42649414 359.82378418 148.67626953 359.63842773 C147 359 147 359 146 357 C147.29089974 354.8221762 148.62879837 352.76831987 150.0625 350.6875 C167.04216168 325.01383001 170.3039996 296.12917696 164.2578125 266.34375 C160.2143872 249.31126821 151.85532242 234.4709378 140.92578125 220.89819336 C124.21394004 200.11427166 116.78357759 177.72522937 119 151 C120.92780313 137.34300038 123.93991897 123.81988939 127.38867188 110.47436523 C130.53211561 97.7512014 130.72220099 83.51728442 124.375 71.875 C116.60413037 59.6582963 101.44142869 54.4388895 88 51 C87.12730469 50.773125 86.25460938 50.54625 85.35546875 50.3125 C61.41139668 45.26426226 34.03507219 49.70436447 11 57 C10.20287598 57.25152832 9.40575195 57.50305664 8.58447266 57.76220703 C-1.86893177 61.0860827 -12.14233543 64.69783002 -22.26171875 68.93359375 C-25 70 -25 70 -27 70 C-25.7120625 61.37708797 -23.4333354 53.26561317 -20.6875 45 C-20.47601318 44.36002075 -20.26452637 43.7200415 -20.04663086 43.06066895 C-8.53854428 8.53854428 -8.53854428 8.53854428 0 0 Z " fill="#816AE1" transform="translate(43,145)"/>
<path d="M0 0 C1 3 1 3 0 6 C-0.12053451 8.93564137 -0.18542597 11.84927826 -0.20532227 14.78588867 C-0.21522186 15.68365524 -0.22512146 16.58142181 -0.23532104 17.50639343 C-0.26693456 20.47689162 -0.29169295 23.4474058 -0.31640625 26.41796875 C-0.3369759 28.47634804 -0.35797238 30.53472311 -0.37937927 32.59309387 C-0.43459878 38.01326072 -0.48400863 43.43346568 -0.53222656 48.85369873 C-0.58244243 54.38362016 -0.63812806 59.91348617 -0.69335938 65.44335938 C-0.80093949 76.29552559 -0.90238483 87.1477399 -1 98 C-4.44183035 99.7504242 -7.88845981 101.49119698 -11.3359375 103.23046875 C-12.2962085 103.71898315 -13.25647949 104.20749756 -14.24584961 104.71081543 C-36.15854058 115.74084798 -59.83845732 122.95960825 -84 127 C-84.70125 127.11859375 -85.4025 127.2371875 -86.125 127.359375 C-95.44712034 128.86525598 -104.62415871 129.09983546 -114.05078125 129.046875 C-115.20340454 129.04349121 -116.35602783 129.04010742 -117.5435791 129.03662109 C-120.36241725 129.0278556 -123.1811926 129.01556746 -126 129 C-126.00238835 128.42077065 -126.00477671 127.84154131 -126.00723743 127.24475956 C-126.06648989 113.12140512 -126.14210507 98.99821652 -126.23571491 84.87504673 C-126.28059425 78.04505015 -126.32002677 71.2151048 -126.34643555 64.38500977 C-126.37194792 57.79077257 -126.41290537 51.1967465 -126.46318626 44.60264397 C-126.47984153 42.08976021 -126.49136412 39.5768369 -126.49761391 37.06390572 C-126.5072692 33.5378853 -126.53534721 30.01244831 -126.56762695 26.48657227 C-126.56619186 25.45294556 -126.56475677 24.41931885 -126.5632782 23.35437012 C-126.6446059 17.05225675 -127.60744645 11.84068469 -130 6 C-129.06697304 6.41628159 -129.06697304 6.41628159 -128.11509705 6.8409729 C-117.21657015 11.69444881 -106.6077998 16.1581073 -95 19 C-93.96351318 19.26458008 -92.92702637 19.52916016 -91.85913086 19.80175781 C-83.54540558 21.77604251 -75.55973516 22.47074657 -67.04101562 22.39111328 C-65.00062276 22.37500492 -62.96220927 22.39108313 -60.921875 22.41015625 C-40.46888169 22.44413541 -16.49770819 16.02138683 -1.2980957 1.3581543 C-0.86972412 0.90996338 -0.44135254 0.46177246 0 0 Z " fill="#FEA97B" transform="translate(379,383)"/>
<path d="M0 0 C4.64564879 13.0485173 9.13192854 26.04224129 11.9375 39.625 C12.12401123 40.52089844 12.31052246 41.41679687 12.50268555 42.33984375 C15.56484723 58.09380354 16.37656998 73.61281507 16.3125 89.625 C16.30926727 91.08082993 16.30926727 91.08082993 16.30596924 92.56607056 C16.2549334 106.89430898 15.90758438 120.92185782 13 135 C12.80132324 135.98307129 12.60264648 136.96614258 12.39794922 137.97900391 C5.74083478 169.98800585 -6.49881932 200.93030015 -25 228 C-36.86820824 216.27356217 -42.90206649 203.63642425 -46.8125 187.5625 C-47.00730957 186.76618164 -47.20211914 185.96986328 -47.40283203 185.14941406 C-51.52996243 166.8445908 -51.2901519 148.44365789 -51.19784164 129.79993439 C-51.18742207 127.54564006 -51.18029533 125.29135832 -51.17422485 123.03704834 C-51.08234068 89.60513088 -51.08234068 89.60513088 -50.73452759 74.65597534 C-50.68956626 72.71423541 -50.6544816 70.77227431 -50.61987305 68.83032227 C-50.27651612 57.78632033 -48.42795302 47.2555886 -43.0625 37.5 C-42.47988403 36.42854736 -42.47988403 36.42854736 -41.88549805 35.33544922 C-34.88155489 23.03081639 -15.47426946 0 0 0 Z " fill="#9080F1" transform="translate(485,177)"/>
<path d="M0 0 C8.97721226 2.01213378 13.94939774 13.60022884 18.625 20.8125 C20.11834849 23.0669994 21.62189544 25.31447061 23.125 27.5625 C24.29184072 29.31238395 25.45853724 31.06236408 26.625 32.8125 C26.6343457 31.98524414 26.64369141 31.15798828 26.65332031 30.30566406 C26.70700319 26.55733585 26.7906571 22.81025838 26.875 19.0625 C26.88917969 17.76054688 26.90335938 16.45859375 26.91796875 15.1171875 C26.95019531 13.86679687 26.98242188 12.61640625 27.015625 11.328125 C27.03657227 10.17602539 27.05751953 9.02392578 27.07910156 7.83691406 C27.73042389 4.22842524 28.76859505 3.03800971 31.625 0.8125 C33.625 0.28125 33.625 0.28125 35.625 0.3125 C36.285 0.3021875 36.945 0.291875 37.625 0.28125 C40.55050184 1.05833643 41.71930814 2.49054406 43.625 4.8125 C44.13293457 7.46850586 44.13293457 7.46850586 44.14257812 10.52734375 C44.15518677 11.67533447 44.16779541 12.8233252 44.18078613 14.00610352 C44.17268921 15.24158936 44.16459229 16.4770752 44.15625 17.75 C44.1600769 19.02222412 44.16390381 20.29444824 44.16784668 21.60522461 C44.17056927 24.29563827 44.16519814 26.98459871 44.14648438 29.67480469 C44.12369362 33.11844745 44.13681969 36.56084327 44.16077423 40.00444031 C44.17872552 43.29467128 44.1661472 46.58475275 44.15625 49.875 C44.16434692 51.11048584 44.17244385 52.34597168 44.18078613 53.61889648 C44.16817749 54.76688721 44.15556885 55.91487793 44.14257812 57.09765625 C44.13780457 58.61178101 44.13780457 58.61178101 44.13293457 60.15649414 C43.48243668 63.55796811 42.35983932 64.73954156 39.625 66.8125 C34.20673077 67.58653846 34.20673077 67.58653846 31.625 66.8125 C26.62035093 62.67013843 23.21507706 57.19312122 19.5625 51.875 C18.64500977 50.55338867 18.64500977 50.55338867 17.70898438 49.20507812 C14.63609844 44.77015626 11.59900798 40.31430261 8.625 35.8125 C8.61883667 37.05338379 8.61883667 37.05338379 8.61254883 38.31933594 C8.57965385 42.06778406 8.50901085 45.8145981 8.4375 49.5625 C8.43169922 50.86445312 8.42589844 52.16640625 8.41992188 53.5078125 C8.37641602 55.38339844 8.37641602 55.38339844 8.33203125 57.296875 C8.3163208 58.44897461 8.30061035 59.60107422 8.28442383 60.78808594 C7.625 63.8125 7.625 63.8125 5.2722168 66.18847656 C2.03184213 68.17639248 0.36289242 68.44873701 -3.375 67.8125 C-5.67775556 65.9454009 -7.05323871 64.45602259 -8.375 61.8125 C-8.49111732 60.05237737 -8.54461378 58.28796527 -8.56787109 56.52416992 C-8.58393402 55.41929733 -8.59999695 54.31442474 -8.61654663 53.17607117 C-8.66092035 48.12088576 -8.70205801 43.06583255 -8.72509766 38.01049805 C-8.73843287 35.34158439 -8.76895802 32.67447813 -8.80712891 30.00561523 C-8.86181351 26.16366487 -8.88375987 22.32275556 -8.8984375 18.48046875 C-8.92110687 17.28761765 -8.94377625 16.09476654 -8.96713257 14.86576843 C-8.94601633 6.60958116 -8.94601633 6.60958116 -6.05322266 2.5715332 C-3.375 0.8125 -3.375 0.8125 0 0 Z " fill="#DEEAFC" transform="translate(215.375,43.1875)"/>
<path d="M0 0 C2.22265625 1.60546875 2.22265625 1.60546875 4.22265625 4.60546875 C4.04376182 7.94483149 3.83702906 10.58151407 2.09765625 13.48046875 C-0.87509793 15.26412126 -3.33270575 15.48870136 -6.77734375 15.60546875 C-7.66421875 15.13109375 -8.55109375 14.65671875 -9.46484375 14.16796875 C-14.51913994 11.78386677 -19.2923549 11.70805565 -24.77734375 12.60546875 C-29.39567462 14.84928045 -32.94133706 17.72416251 -34.77734375 22.60546875 C-35.42947693 27.98177599 -35.71003418 33.66863275 -33.21484375 38.60546875 C-29.85744647 42.73765002 -26.87846844 45.130035 -21.53515625 45.94921875 C-16.61548916 46.14799318 -12.87529102 45.53257394 -8.77734375 42.60546875 C-6.87527526 39.55507654 -6.87527526 39.55507654 -5.77734375 36.60546875 C-6.4528125 36.66347656 -7.12828125 36.72148438 -7.82421875 36.78125 C-15.07071707 37.14776364 -15.07071707 37.14776364 -18.46484375 34.54296875 C-20.20079004 30.65775562 -20.02913143 28.65537008 -18.77734375 24.60546875 C-15.80396957 21.26117063 -13.42847286 20.33640377 -9.08984375 20.07421875 C-7.31901134 20.06364662 -5.54793998 20.07467577 -3.77734375 20.10546875 C-2.88789063 20.09 -1.9984375 20.07453125 -1.08203125 20.05859375 C3.18980897 20.08409727 5.59280072 20.21341582 9.28515625 22.51171875 C11.56461092 24.9750004 12.19735012 25.86829028 12.3125 29.22265625 C11.83320679 39.47215729 8.90399394 47.88573246 1.97265625 55.60546875 C-5.15763335 61.95903835 -13.03583085 63.31052278 -22.38671875 62.9765625 C-32.29017657 61.89265871 -39.275251 57.02366392 -45.77734375 49.60546875 C-52.45675367 40.55766249 -53.03236459 31.40722931 -51.77734375 20.60546875 C-50.8961837 17.21603298 -49.66896295 14.53902902 -47.77734375 11.60546875 C-47.41511719 10.98542969 -47.05289063 10.36539063 -46.6796875 9.7265625 C-42.72152813 3.51426491 -36.40803267 -1.62012065 -29.359375 -3.9140625 C-18.72475208 -5.89297115 -9.53588381 -5.31228741 0 0 Z " fill="#DEE9FB" transform="translate(188.77734375,48.39453125)"/>
<path d="M0 0 C0.66 -0.00128906 1.32 -0.00257812 2 -0.00390625 C5.0439749 0.85815695 6.09337747 2.01788942 8 4.5625 C8.56685706 7.62317162 8.48574767 10.64176403 8.43359375 13.74609375 C8.44319924 15.57877689 8.45296995 17.41145917 8.46289062 19.24414062 C8.45428954 22.12550553 8.43744886 25.00664773 8.4152832 27.88793945 C8.40075408 30.6744344 8.41602131 33.45964432 8.43359375 36.24609375 C8.41711288 37.10456406 8.40063202 37.96303436 8.38365173 38.84751892 C8.42060215 43.27982795 8.56497861 45.01242324 11.40649414 48.60546875 C13.93029665 50.50990261 14.91147183 51.23085681 18 51.125 C18.639375 51.12628906 19.27875 51.12757812 19.9375 51.12890625 C23.16432463 50.24275176 24.68628826 49.00319947 27 46.5625 C27.71991376 43.50431826 27.62633208 40.50773764 27.56640625 37.37890625 C27.57204086 36.48638657 27.57767548 35.59386688 27.58348083 34.67430115 C27.59993767 31.82399993 27.58438613 28.97524747 27.5625 26.125 C27.54589583 23.27846692 27.53682745 20.43295956 27.55223083 17.58641052 C27.561496 15.81676406 27.55239529 14.04690092 27.52259827 12.27748108 C27.54082752 8.16559275 27.67244428 6.08652188 29.90209961 2.51953125 C32.16387887 0.40962522 32.96223545 -0.10086328 36 0 C36.66 -0.00128906 37.32 -0.00257812 38 -0.00390625 C41.05381027 0.86094236 42.08892427 2.00372218 44 4.5625 C44.60646029 7.70713888 44.56036029 10.8132482 44.53125 14.0078125 C44.5350769 14.93286591 44.53890381 15.85791931 44.54284668 16.81100464 C44.54556727 18.76952196 44.53819578 20.72807552 44.52148438 22.68652344 C44.50022233 25.6564451 44.52120482 28.62390719 44.546875 31.59375 C44.5442289 33.50260944 44.53909811 35.41146736 44.53125 37.3203125 C44.53934692 38.19672394 44.54744385 39.07313538 44.55578613 39.97610474 C44.45176808 46.96550325 43.04562166 54.00050043 38.38635254 59.44973755 C32.3746198 65.13262715 25.65157481 67.77761879 17.4375 68.0625 C11.709101 67.86888278 7.68796649 66.83442169 3 63.5625 C1.9275 62.82 0.855 62.0775 -0.25 61.3125 C-5.05082308 56.51167692 -8.08383414 50.30152213 -8.17700195 43.44580078 C-8.18983719 42.62129425 -8.20267242 41.79678772 -8.21589661 40.94729614 C-8.22328354 40.05976654 -8.23067047 39.17223694 -8.23828125 38.2578125 C-8.246353 37.34168182 -8.25442474 36.42555115 -8.26274109 35.48165894 C-8.27656873 33.54329311 -8.28729679 31.60490308 -8.29516602 29.66650391 C-8.31239477 26.70558552 -8.35629414 23.74577933 -8.40039062 20.78515625 C-8.41051657 18.90104987 -8.41903298 17.01693401 -8.42578125 15.1328125 C-8.45204338 13.80759079 -8.45204338 13.80759079 -8.47883606 12.45559692 C-8.46415035 8.2851091 -8.34784996 6.12203424 -6.09838867 2.50366211 C-3.83599123 0.41077996 -3.02816125 -0.10054442 0 0 Z " fill="#DEEBFC" transform="translate(291,43.4375)"/>
<path d="M0 0 C3.6299035 1.96371829 6.09206057 3.69780749 8.25 7.25 C8.75 10.1875 8.75 10.1875 8.25 13.25 C5.84072777 16.5096036 4.39060103 18.02683893 0.375 18.8125 C-2.93951435 18.21588742 -4.99447135 16.93008999 -7.8046875 15.140625 C-11.31361113 13.53412984 -14.9764617 13.94195606 -18.75 14.25 C-19.41 15.57 -20.07 16.89 -20.75 18.25 C-20.19054687 18.38535156 -19.63109375 18.52070312 -19.0546875 18.66015625 C-8.85679973 21.39817435 2.36178169 25.26812568 8.33203125 34.453125 C10.77004706 39.22541127 11.15990215 44.20153803 9.63671875 49.3046875 C6.86765588 55.57472414 2.05084263 60.336738 -4.0625 63.4140625 C-12.03334906 65.8933673 -20.81602849 65.20147102 -28.3125 61.6875 C-32.94113848 59.02290542 -37.38794454 56.19957984 -39.75 51.25 C-39.81058205 47.61507704 -39.42511708 45.48109585 -37.6875 42.3125 C-34.3976018 40.50836228 -31.31926655 40.44644784 -27.75 41.25 C-25.54296875 42.59765625 -25.54296875 42.59765625 -23.3125 44.25 C-19.27096653 47.23203424 -16.56623097 47.84777006 -11.59765625 47.55859375 C-9.66166126 47.32822987 -9.66166126 47.32822987 -7.75 46.25 C-7.75 44.6 -7.75 42.95 -7.75 41.25 C-8.35473145 41.014021 -8.95946289 40.77804199 -9.58251953 40.53491211 C-12.35522521 39.43947306 -15.11472732 38.31388112 -17.875 37.1875 C-19.30199219 36.6315918 -19.30199219 36.6315918 -20.7578125 36.06445312 C-28.40667818 32.90398432 -33.43538142 28.97259445 -36.75 21.25 C-37.23787506 15.3954993 -36.77604849 10.38897358 -33.75 5.25 C-24.94337983 -4.578623 -11.67722371 -5.63237587 0 0 Z " fill="#DEE9FB" transform="translate(92.75,46.75)"/>
<path d="M0 0 C1.1240625 -0.00644531 2.248125 -0.01289062 3.40625 -0.01953125 C5.16195313 0.00947266 5.16195313 0.00947266 6.953125 0.0390625 C8.108125 0.01972656 9.263125 0.00039063 10.453125 -0.01953125 C18.59438485 0.02693713 23.76444481 1.44009806 29.68188477 7.07128906 C34.53735479 12.41470582 36.82260506 18.24600356 36.5546875 25.39453125 C35.55923619 31.82072248 32.01872326 36.45041402 27.203125 40.6640625 C26.584375 41.2209375 25.965625 41.7778125 25.328125 42.3515625 C19.62287337 45.87539439 13.67782025 45.92833578 7.203125 45.6640625 C7.26113281 46.74945313 7.31914062 47.83484375 7.37890625 48.953125 C7.42583058 50.39839426 7.47132787 51.84371034 7.515625 53.2890625 C7.55751953 54.00191406 7.59941406 54.71476562 7.64257812 55.44921875 C7.73416047 59.44220918 7.41251636 61.94464926 4.90234375 65.140625 C2.203125 67.6640625 2.203125 67.6640625 -1.296875 68.4140625 C-4.98153445 67.62449262 -6.46353884 66.7089267 -8.76461792 63.75418091 C-11.01745179 59.19263356 -10.48178173 53.98075997 -10.42578125 49.00390625 C-10.42819321 47.78127579 -10.43060516 46.55864532 -10.43309021 45.29896545 C-10.43211244 42.71937815 -10.41873598 40.13976969 -10.39379883 37.56030273 C-10.35946353 33.61174312 -10.37315344 29.66541827 -10.39257812 25.71679688 C-10.38568042 23.20832381 -10.37600873 20.69985651 -10.36328125 18.19140625 C-10.36824112 17.01110336 -10.37320099 15.83080048 -10.37831116 14.61473083 C-10.26259035 6.56633926 -10.26259035 6.56633926 -8.1237793 2.42260742 C-5.22150602 0.22923061 -3.621036 0.02007226 0 0 Z " fill="#DEE9FA" transform="translate(352.796875,43.3359375)"/>
<path d="M0 0 C3.18154369 1.54125069 6.06725184 3.47101767 9 5.4375 C9.82999512 5.97866455 10.65999023 6.5198291 11.51513672 7.07739258 C13.20464803 8.17974917 14.89071447 9.28740409 16.57324219 10.40039062 C20.06543896 12.70228934 23.59664657 14.94163202 27.125 17.1875 C32.83242857 20.83242857 32.83242857 20.83242857 34 22 C34.3125 24.8125 34.3125 24.8125 34 28 C31.16127402 31.37531699 27.84420104 33.5069425 24.09765625 35.78515625 C23.53807724 36.12751816 22.97849823 36.46988007 22.40196228 36.82261658 C20.62531811 37.90789387 18.84403572 38.98527552 17.0625 40.0625 C15.87012934 40.78919961 14.67806898 41.51640863 13.48632812 42.24414062 C10.32864572 44.17011328 7.16612065 46.08792089 4 48 C3.10466553 48.56259521 2.20933105 49.12519043 1.28686523 49.70483398 C-1.42631386 51.24144283 -2.92992512 51.48474867 -6 51 C-8.08754942 49.40594944 -8.9058729 48.51730697 -9.38095093 45.90635681 C-9.38333771 45.101866 -9.38572449 44.29737518 -9.38818359 43.46850586 C-9.39764008 42.55423325 -9.40709656 41.63996063 -9.4168396 40.69798279 C-9.41076691 39.71354691 -9.40469421 38.72911102 -9.3984375 37.71484375 C-9.40130768 36.70281387 -9.40417786 35.690784 -9.40713501 34.64808655 C-9.4091767 32.50879354 -9.40363952 30.36948192 -9.39111328 28.23022461 C-9.37504493 24.94668086 -9.39096741 21.664365 -9.41015625 18.38085938 C-9.40817416 16.30468477 -9.40433121 14.22851093 -9.3984375 12.15234375 C-9.40451019 11.16588364 -9.41058289 10.17942352 -9.4168396 9.16307068 C-9.40738312 8.25195023 -9.39792664 7.34082977 -9.38818359 6.40209961 C-9.38460342 5.19655678 -9.38460342 5.19655678 -9.38095093 3.96665955 C-9.25523712 3.3176619 -9.12952332 2.66866425 -9 2 C-5.38164275 -0.41223817 -4.27785553 -0.58919538 0 0 Z " fill="#F99FB0" transform="translate(425,52)"/>
<path d="M0 0 C3.5625 0.5625 3.5625 0.5625 6.24804688 2.3125 C9.81800992 7.32551139 9.23948185 12.11717407 9.15625 18.125 C9.15629028 19.34904541 9.15633057 20.57309082 9.15637207 21.83422852 C9.15101531 24.4198114 9.13342633 27.00539378 9.10449219 29.59082031 C9.06265297 33.54803235 9.06342323 37.50354167 9.0703125 41.4609375 C9.0598195 43.97397016 9.04688082 46.48699405 9.03125 49 C9.03104858 50.18343994 9.03084717 51.36687988 9.03063965 52.58618164 C9.00677185 54.24315063 9.00677185 54.24315063 8.98242188 55.93359375 C8.97400269 56.90224365 8.9655835 57.87089355 8.95690918 58.86889648 C8.48987821 62.05846797 7.44178257 63.96390435 5.5625 66.5625 C2.47076248 68.10836876 -0.03179552 67.85609521 -3.4375 67.5625 C-6.18988211 65.48447064 -7.30048474 64.28919786 -7.94543457 60.86853027 C-7.94861694 59.84134888 -7.95179932 58.81416748 -7.95507812 57.75585938 C-7.96768677 56.5878479 -7.98029541 55.41983643 -7.99328613 54.21643066 C-7.98518921 52.95907104 -7.97709229 51.70171143 -7.96875 50.40625 C-7.9725769 49.11182983 -7.97640381 47.81740967 -7.98034668 46.48376465 C-7.98623687 43.74663154 -7.97769539 41.01002141 -7.95898438 38.27294922 C-7.93619369 34.76877974 -7.94931954 31.26583566 -7.97327423 27.76171112 C-7.99122454 24.41395979 -7.9786476 21.06653613 -7.96875 17.71875 C-7.97684692 16.46139038 -7.98494385 15.20403076 -7.99328613 13.90856934 C-7.98067749 12.74055786 -7.96806885 11.57254639 -7.95507812 10.36914062 C-7.95189575 9.34195923 -7.94871338 8.31477783 -7.94543457 7.25646973 C-7.04299181 2.47011806 -4.66902043 0.76402153 0 0 Z " fill="#DEE7FA" transform="translate(119.4375,43.4375)"/>
<path d="M0 0 C1.2684375 -0.00128906 2.536875 -0.00257813 3.84375 -0.00390625 C8.02073306 0.64316912 10.23176703 1.92920988 13.5 4.5625 C15.54532597 8.65315194 14.7731755 13.87889826 14.8125 18.375 C14.84150391 19.46876953 14.87050781 20.56253906 14.90039062 21.68945312 C14.96426034 29.75177672 14.96426034 29.75177672 12.66796875 33.76171875 C8.76351436 37.00487817 5.04114371 36.78324486 0.125 36.875 C-1.18210937 36.91238281 -2.48921875 36.94976562 -3.8359375 36.98828125 C-8.01361607 36.5028154 -9.57664569 35.51322654 -12.5 32.5625 C-14.61157519 28.33934963 -13.86228143 22.8902079 -13.9375 18.25 C-13.98326172 17.10853516 -14.02902344 15.96707031 -14.07617188 14.79101562 C-14.18447709 6.73404965 -14.18447709 6.73404965 -12.39697266 3.67456055 C-8.70652197 0.20137725 -4.85671458 -0.08390665 0 0 Z " fill="#FCE3D8" transform="translate(258.5,141.4375)"/>
<path d="M0 0 C0.33 0 0.66 0 1 0 C1.08756305 3.70818297 1.14058015 7.41609763 1.1875 11.125 C1.21263672 12.17171875 1.23777344 13.2184375 1.26367188 14.296875 C1.3170292 19.9171799 1.34091339 24.22052861 -2 29 C-6.30857429 31.93766429 -9.83767005 32.73747571 -15 32 C-21.51808246 27.91022277 -23.7711851 22.50212247 -26.25 15.4375 C-25.95250225 11.34690592 -25.26294954 10.84675061 -22.3125 8.1875 C-16.40394053 3.46713348 -12.17155386 2.71010043 -4.6796875 2.34375 C-1.8508189 2.25841177 -1.8508189 2.25841177 0 0 Z " fill="#FEAA7C" transform="translate(239,266)"/>
<path d="M0 0 C8.21900826 -0.48347107 8.21900826 -0.48347107 11.625 1.625 C13 4 13 4 13 7.0625 C12 10 12 10 10.4375 11.875 C6.85660328 13.52772156 3.92364165 13.19618208 0 13 C0 8.71 0 4.42 0 0 Z " fill="#FD475B" transform="translate(360,60)"/>
</svg>
