<?xml version="1.0" encoding="UTF-8"?>
<svg version="1.1" xmlns="http://www.w3.org/2000/svg" width="512" height="512">
<path d="M0 0 C14.95591088 11.36215722 24.60951147 25.81352658 29 44 C29.9505426 44.00879936 29.9505426 44.00879936 30.92028809 44.01777649 C37.53959514 44.08190816 44.15842488 44.16637858 50.77734375 44.26245117 C53.24472749 44.29562363 55.71218571 44.32367926 58.1796875 44.34643555 C61.73469666 44.38012213 65.28902798 44.43244702 68.84375 44.48828125 C69.93989624 44.49467117 71.03604248 44.5010611 72.16540527 44.50764465 C81.32526078 44.6819032 88.34062206 46.18927256 95 53 C99.51668148 60.05414734 99.57924843 66.1522252 99.54589844 74.39257812 C99.55464588 75.7336547 99.56513573 77.07472087 99.57722473 78.41577148 C99.60496267 82.03510094 99.60849215 85.65408779 99.60750484 89.27350807 C99.61064453 93.06388551 99.63628457 96.85411102 99.65948486 100.64440918 C99.69996792 107.81233258 99.7203674 114.98016518 99.73345876 122.14818525 C99.74935497 130.31274645 99.78778155 138.47715371 99.82805204 146.6416254 C99.91034559 163.42770594 99.96450344 180.21375387 100 197 C100.54487061 196.51136475 101.08974121 196.02272949 101.65112305 195.51928711 C102.36824463 194.8825708 103.08536621 194.24585449 103.82421875 193.58984375 C104.53408936 192.9568335 105.24395996 192.32382324 105.9753418 191.67163086 C109.25593364 188.96305587 111.78488132 188 116 188 C116.00386719 187.1646875 116.00386719 187.1646875 116.0078125 186.3125 C116.34203023 179.71727005 118.2994654 175.63988254 123 171 C129.19293373 166.2096885 133.63950048 164.85273355 141.4375 165.3125 C146.75174821 165.5044209 146.75174821 165.5044209 150.8125 162.25 C151.534375 161.1775 152.25625 160.105 153 159 C158.62681642 154.27519231 165.3772034 154.3505832 172.4296875 154.546875 C177.35189945 155.17157586 180.3639214 156.70424403 184 160 C184.52335937 160.45375 185.04671875 160.9075 185.5859375 161.375 C187 162.6875 187 162.6875 189 165 C189 165.66 189 166.32 189 167 C189.804375 166.67 190.60875 166.34 191.4375 166 C198.67654414 163.96798761 204.7368355 164.58615878 211.6328125 167.59375 C216.76363095 170.64176096 220.72202284 175.48946478 223 181 C223.0777346 183.33203812 223.08967728 185.66839059 223 188 C223.87011719 188.12955078 223.87011719 188.12955078 224.7578125 188.26171875 C230.20671929 189.24180264 234.35706036 190.61791319 238 195 C242.519935 201.74927963 244.67322098 207.78670402 244 216 C242.8545493 219.42134619 241.48197061 222.7118777 240 226 C240.61875 226.28875 241.2375 226.5775 241.875 226.875 C244 228 244 228 246 230 C249.04949431 230.19766816 252.01572116 230.27689326 255.06640625 230.2734375 C256.9329485 230.29374502 258.79948491 230.31459612 260.66601562 230.3359375 C263.60625114 230.35843993 266.54625492 230.37496745 269.48657227 230.38085938 C272.32611032 230.39045322 275.16460499 230.42433362 278.00390625 230.4609375 C278.8698793 230.45589203 279.73585236 230.45084656 280.62806702 230.44564819 C287.45068007 230.55418368 293.7572044 231.99558631 298.88868713 236.74984741 C304.03057236 242.35266496 305.29988047 247.42183038 305.24050903 254.96626282 C305.24307231 256.16098474 305.24307231 256.16098474 305.24568737 257.37984246 C305.24897836 260.04539376 305.23798501 262.71069264 305.22705078 265.3762207 C305.22648658 267.2882639 305.2268034 269.20030752 305.22793579 271.11235046 C305.22850997 276.30200944 305.21674508 281.4915761 305.20278788 286.68121362 C305.19029139 292.10511321 305.18911087 297.52901487 305.18673706 302.95292664 C305.18051912 313.22341107 305.16410402 323.49385295 305.14403808 333.76431865 C305.12168889 345.45707196 305.11068811 357.1498273 305.10064721 368.84259665 C305.07973809 392.89508803 305.04455597 416.94754163 305 441 C309.29 441 313.58 441 318 441 C318.10869203 444.81327872 318.18765644 448.62340992 318.25 452.4375 C318.28351562 453.50677734 318.31703125 454.57605469 318.3515625 455.67773438 C318.43797268 462.74176685 317.51291428 467.85157771 314 474 C313.55398438 474.79792969 313.10796875 475.59585937 312.6484375 476.41796875 C307.35963717 483.76712994 299.8657168 488.20880924 291 490 C287.66718358 490.27976799 284.35013782 490.27870958 281.00701904 490.26742554 C280.01649607 490.27195665 279.0259731 490.27648776 278.00543427 490.28115618 C274.69465582 490.29379103 271.38404205 490.29218038 268.07324219 490.29052734 C265.695997 490.29651318 263.31875375 490.30331885 260.94151306 490.31088257 C255.15886023 490.32671084 249.37625715 490.33299075 243.59358373 490.33410732 C238.8903684 490.3350593 234.18716647 490.33917707 229.48395538 490.34550858 C216.13400851 490.3631132 202.78409373 490.37234874 189.43413517 490.37084763 C188.71514302 490.37076772 187.99615088 490.3706878 187.25537109 490.37060547 C186.1755579 490.37048283 186.1755579 490.37048283 185.07393029 490.37035771 C173.41290399 490.36954517 161.75200697 490.38867667 150.09101805 490.4168822 C138.10243257 490.44565006 126.11391006 490.45942033 114.1252892 490.45769465 C107.40069825 490.45703206 100.6762428 490.46246647 93.95168304 490.48405075 C87.62492406 490.50344508 81.29845078 490.50354907 74.97168159 490.48901749 C72.65420933 490.48692977 70.33671913 490.49162799 68.01927757 490.5037384 C64.8461572 490.51924179 61.67401578 490.50984844 58.50091553 490.49447632 C57.59223119 490.50476344 56.68354684 490.51505057 55.74732661 490.52564943 C45.15942486 490.41294389 36.76539011 486.81108207 29.16796875 479.515625 C24.03119861 473.55512055 20.85880758 466.55582721 20.90234375 458.67578125 C20.90556641 457.64775391 20.90878906 456.61972656 20.91210938 455.56054688 C20.92048828 454.48869141 20.92886719 453.41683594 20.9375 452.3125 C20.94201172 451.22904297 20.94652344 450.14558594 20.95117188 449.02929688 C20.96296243 446.35284106 20.98089792 443.67641361 21 441 C25.29 441 29.58 441 34 441 C34 398.43 34 355.86 34 312 C19.41296875 312.06960938 4.8259375 312.13921875 -10.203125 312.2109375 C-19.44531888 312.24159534 -28.68747588 312.27072755 -37.9296875 312.29296875 C-52.59876102 312.32855331 -67.26762756 312.37035784 -81.93652344 312.45263672 C-92.62042232 312.51253478 -103.30415308 312.55117202 -113.98821521 312.56453097 C-119.64277893 312.57233702 -125.2968618 312.59061783 -130.95127106 312.63438034 C-136.27996319 312.67528551 -141.60797912 312.68763282 -146.93681335 312.67864609 C-148.88622978 312.68028873 -150.8356702 312.6921164 -152.78495026 312.71523285 C-165.86819563 312.86269862 -175.80742723 311.74378392 -186 302.625 C-191.70515738 296.34932688 -194.14047019 289.53215655 -194.09765625 281.140625 C-194.09443359 280.02558594 -194.09121094 278.91054688 -194.08789062 277.76171875 C-194.07951172 276.60285156 -194.07113281 275.44398438 -194.0625 274.25 C-194.05798828 273.07566406 -194.05347656 271.90132813 -194.04882812 270.69140625 C-194.03705106 267.79424905 -194.01911588 264.89711807 -194 262 C-189.71 262 -185.42 262 -181 262 C-181.00276538 260.98693535 -181.00553076 259.9738707 -181.00837994 258.93010712 C-181.0749901 234.27559604 -181.12428277 209.62109665 -181.15543652 184.96651459 C-181.17090282 173.04372458 -181.19198791 161.12099403 -181.22631836 149.19824219 C-181.25622785 138.80590541 -181.27557672 128.4136117 -181.28226548 118.02123308 C-181.28617509 112.51897888 -181.29535847 107.01684788 -181.31719017 101.51463318 C-181.3375797 96.3338254 -181.34382876 91.15319136 -181.33932304 85.97234726 C-181.34014714 84.07288035 -181.34609803 82.17340753 -181.35761642 80.27397537 C-181.37259917 77.67539908 -181.36893264 75.07747401 -181.36076355 72.47888184 C-181.36950207 71.7317768 -181.3782406 70.98467177 -181.38724393 70.2149272 C-181.32178362 62.48173863 -178.86810013 56.19688823 -173.61328125 50.47265625 C-168.72874001 46.01388616 -163.15382666 44.87098586 -156.77246094 44.88647461 C-155.73168396 44.88655014 -154.69090698 44.88662567 -153.61859131 44.88670349 C-152.50179993 44.89186478 -151.38500854 44.89702606 -150.234375 44.90234375 C-149.08584045 44.9037587 -147.93730591 44.90517365 -146.75396729 44.90663147 C-143.08595169 44.91222857 -139.41799715 44.92478056 -135.75 44.9375 C-133.26302171 44.94251537 -130.77604247 44.94707822 -128.2890625 44.95117188 C-122.1926875 44.96219705 -116.09634811 44.97893231 -110 45 C-109.87452286 44.32557358 -109.74904572 43.65114716 -109.61976624 42.95628357 C-109.44883957 42.06506302 -109.2779129 41.17384247 -109.10180664 40.25561523 C-108.85171593 38.9346006 -108.85171593 38.9346006 -108.59657288 37.5868988 C-107.72214287 33.79513753 -106.22302316 30.50243082 -104.4375 27.0625 C-104.08598877 26.37792725 -103.73447754 25.69335449 -103.37231445 24.98803711 C-94.6228053 8.5293862 -80.47925871 -3.07705204 -62.875 -9.0625 C-41.40366679 -15.13048547 -18.56338014 -12.84150352 0 0 Z " fill="#FEFEFE" transform="translate(194,17)"/>
<path d="M0 0 C2.01183119 1.20862862 3.69267304 2.47243825 5.4296875 4.046875 C5.95304688 4.500625 6.47640625 4.954375 7.015625 5.421875 C8.4296875 6.734375 8.4296875 6.734375 10.4296875 9.046875 C10.4296875 9.706875 10.4296875 10.366875 10.4296875 11.046875 C11.2340625 10.716875 12.0384375 10.386875 12.8671875 10.046875 C20.10623164 8.01486261 26.166523 8.63303378 33.0625 11.640625 C38.19331845 14.68863596 42.15171034 19.53633978 44.4296875 25.046875 C44.5074221 27.37891312 44.51936478 29.71526559 44.4296875 32.046875 C45.00976562 32.13324219 45.58984375 32.21960938 46.1875 32.30859375 C51.63640679 33.28867764 55.78674786 34.66478819 59.4296875 39.046875 C63.9496225 45.79615463 66.10290848 51.83357902 65.4296875 60.046875 C64.2842368 63.46822119 62.91165811 66.7587527 61.4296875 70.046875 C62.0484375 70.335625 62.6671875 70.624375 63.3046875 70.921875 C65.4296875 72.046875 65.4296875 72.046875 67.4296875 74.046875 C70.47918181 74.24454316 73.44540866 74.32376826 76.49609375 74.3203125 C78.362636 74.34062002 80.22917241 74.36147112 82.09570312 74.3828125 C85.03593864 74.40531493 87.97594242 74.42184245 90.91625977 74.42773438 C93.75579782 74.43732822 96.59429249 74.47120862 99.43359375 74.5078125 C100.2995668 74.50276703 101.16553986 74.49772156 102.05775452 74.49252319 C108.88036757 74.60105868 115.1868919 76.04246131 120.31837463 80.79672241 C125.46025986 86.39953996 126.72956797 91.46870538 126.67019653 99.01313782 C126.67275981 100.20785974 126.67275981 100.20785974 126.67537487 101.42671746 C126.67866586 104.09226876 126.66767251 106.75756764 126.65673828 109.4230957 C126.65617408 111.3351389 126.6564909 113.24718252 126.65762329 115.15922546 C126.65819747 120.34888444 126.64643258 125.5384511 126.63247538 130.72808862 C126.61997889 136.15198821 126.61879837 141.57588987 126.61642456 146.99980164 C126.61020662 157.27028607 126.59379152 167.54072795 126.57372558 177.81119365 C126.55137639 189.50394696 126.54037561 201.1967023 126.53033471 212.88947165 C126.50942559 236.94196303 126.47424347 260.99441663 126.4296875 285.046875 C130.7196875 285.046875 135.0096875 285.046875 139.4296875 285.046875 C139.53837953 288.86015372 139.61734394 292.67028492 139.6796875 296.484375 C139.71320313 297.55365234 139.74671875 298.62292969 139.78125 299.72460938 C139.86766018 306.78864185 138.94260178 311.89845271 135.4296875 318.046875 C134.98367188 318.84480469 134.53765625 319.64273437 134.078125 320.46484375 C128.78932467 327.81400494 121.2954043 332.25568424 112.4296875 334.046875 C109.09687108 334.32664299 105.77982532 334.32558458 102.43670654 334.31430054 C101.44618357 334.31883165 100.4556606 334.32336276 99.43512177 334.32803118 C96.12434332 334.34066603 92.81372955 334.33905538 89.50292969 334.33740234 C87.1256845 334.34338818 84.74844125 334.35019385 82.37120056 334.35775757 C76.58854773 334.37358584 70.80594465 334.37986575 65.02327123 334.38098232 C60.3200559 334.3819343 55.61685397 334.38605207 50.91364288 334.39238358 C37.56369601 334.4099882 24.21378123 334.41922374 10.86382267 334.41772263 C10.14483052 334.41764272 9.42583838 334.4175628 8.68505859 334.41748047 C7.96518313 334.41739871 7.24530767 334.41731695 6.50361779 334.41723271 C-5.15740851 334.41642017 -16.81830553 334.43555167 -28.47929445 334.4637572 C-40.46787993 334.49252506 -52.45640244 334.50629533 -64.4450233 334.50456965 C-71.16961425 334.50390706 -77.8940697 334.50934147 -84.61862946 334.53092575 C-90.94538844 334.55032008 -97.27186172 334.55042407 -103.59863091 334.53589249 C-105.91610317 334.53380477 -108.23359337 334.53850299 -110.55103493 334.5506134 C-113.7241553 334.56611679 -116.89629672 334.55672344 -120.06939697 334.54135132 C-120.97808131 334.55163844 -121.88676566 334.56192557 -122.82298589 334.57252443 C-133.41088764 334.45981889 -141.80492239 330.85795707 -149.40234375 323.5625 C-159.60469379 311.72409744 -157.5703125 301.2389098 -157.5703125 285.046875 C-137.4403125 285.046875 -117.3103125 285.046875 -96.5703125 285.046875 C-96.68849192 267.57676024 -96.68849192 267.57676024 -96.84057617 250.10693359 C-97.00935806 221.23785821 -90.03705674 198.18341675 -69.6953125 176.859375 C-63.02772009 170.42437303 -49.5238973 159.046875 -39.5703125 159.046875 C-40.19679688 158.32242188 -40.82328125 157.59796875 -41.46875 156.8515625 C-42.28601563 155.88476562 -43.10328125 154.91796875 -43.9453125 153.921875 C-44.75742187 152.97054687 -45.56953125 152.01921875 -46.40625 151.0390625 C-48.56247577 148.05771063 -49.61711308 145.57685528 -50.5703125 142.046875 C-51.5603125 142.129375 -52.5503125 142.211875 -53.5703125 142.296875 C-59.49031436 142.28489119 -63.94606951 139.44963031 -68.3203125 135.671875 C-73.71490075 129.37818871 -75.70860147 125.12037257 -75.6328125 116.859375 C-75.62378906 115.58707031 -75.61476563 114.31476563 -75.60546875 113.00390625 C-75.59386719 112.02808594 -75.58226562 111.05226563 -75.5703125 110.046875 C-76.69373047 109.66789062 -76.69373047 109.66789062 -77.83984375 109.28125 C-83.05223858 106.92485978 -86.48922167 102.20905666 -89.0078125 97.171875 C-90.28459795 90.07862249 -90.35878464 84.18756231 -86.796875 77.78125 C-85.5703125 76.046875 -85.5703125 76.046875 -82.7578125 73.484375 C-80.14773238 71.14249432 -80.14773238 71.14249432 -80.6953125 67.421875 C-81.2511951 65.27775641 -81.86986621 63.14821386 -82.5703125 61.046875 C-83.38532738 53.7651847 -82.37121439 47.36759486 -78.5703125 41.046875 C-74.97884342 36.99053936 -70.91653296 33.4216174 -65.5703125 32.046875 C-64.5803125 32.046875 -63.5903125 32.046875 -62.5703125 32.046875 C-62.56773437 31.49 -62.56515625 30.933125 -62.5625 30.359375 C-62.22828227 23.76414505 -60.2708471 19.68675754 -55.5703125 15.046875 C-49.37737877 10.2565635 -44.93081202 8.89960855 -37.1328125 9.359375 C-31.81856429 9.5512959 -31.81856429 9.5512959 -27.7578125 6.296875 C-27.0359375 5.224375 -26.3140625 4.151875 -25.5703125 3.046875 C-18.89384291 -2.55932084 -7.9101732 -2.93325572 0 0 Z " fill="#FEFEFE" transform="translate(372.5703125,172.953125)"/>
<path d="M0 0 C16.17108156 13.18305186 24.4068967 28.2670432 27.92843628 48.5345459 C28.5635932 52.12179761 29.26248076 55.69619606 29.96386719 59.27099609 C30.10355927 59.98363617 30.24325134 60.69627625 30.38717651 61.43051147 C30.8199347 63.6315767 31.25504332 65.83216812 31.69042969 68.03271484 C31.84061554 68.79646423 31.99080139 69.56021362 32.14553833 70.34710693 C33.87602922 79.11854623 35.74486518 87.75724647 38.25292969 96.34521484 C41.25833602 106.91913559 42.71847769 119.21877285 37.77246094 129.44287109 C32.99471716 136.91049742 27.63405501 142.50951735 19.31542969 145.72021484 C18.65542969 145.72021484 17.99542969 145.72021484 17.31542969 145.72021484 C17.95158203 146.44724609 17.95158203 146.44724609 18.60058594 147.18896484 C19.8439622 148.60996629 21.08462714 150.03334263 22.32324219 151.45849609 C23.5479224 152.84886834 24.78935086 154.22495152 26.05761719 155.57568359 C35.52912425 165.81102187 41.1638221 177.58187519 45.31542969 190.72021484 C45.65703125 191.76951172 45.99863281 192.81880859 46.35058594 193.89990234 C49.63474605 206.15058334 48.58059893 219.15255246 48.31542969 231.72021484 C47.77200928 231.96835938 47.22858887 232.21650391 46.66870117 232.47216797 C41.29539347 234.93109786 41.29539347 234.93109786 37.37792969 239.22021484 C36.99765625 239.78740234 36.61738281 240.35458984 36.22558594 240.93896484 C33.12985054 246.99757146 33.78566351 254.13694132 33.31542969 260.72021484 C-21.46457031 260.72021484 -76.24457031 260.72021484 -132.68457031 260.72021484 C-132.68457031 178.12203873 -132.68457031 178.12203873 -105.90722656 150.11865234 C-103.67498367 147.9343236 -103.67498367 147.9343236 -102.68457031 145.72021484 C-103.48894531 145.53458984 -104.29332031 145.34896484 -105.12207031 145.15771484 C-114.12353302 141.52554568 -119.54227131 135.35585514 -123.68457031 126.72021484 C-128.09344709 115.69802291 -125.00111509 104.60768348 -122.18157959 93.59136963 C-118.87100096 80.63849927 -116.02457546 67.71932153 -113.90960693 54.51843262 C-110.35258519 32.43450652 -103.3800513 13.49902713 -84.68457031 -0.27978516 C-59.27794459 -17.24080178 -24.96404225 -18.96543615 0 0 Z " fill="#FE4D96" transform="translate(195.6845703125,18.27978515625)"/>
<path d="M0 0 C1.04077698 0.00007553 2.08155396 0.00015106 3.15386963 0.00022888 C4.27066101 0.00539017 5.38745239 0.01055145 6.53808594 0.01586914 C7.68662048 0.01728409 8.83515503 0.01869904 10.01849365 0.02015686 C13.68650925 0.02575396 17.35446379 0.03830596 21.02246094 0.05102539 C23.50943922 0.05604076 25.99641846 0.06060361 28.48339844 0.06469727 C34.57977343 0.07572244 40.67611282 0.0924577 46.77246094 0.11352539 C46.0212138 7.26514105 44.95156297 14.29078117 43.64746094 21.36352539 C43.43516846 22.52432617 43.22287598 23.68512695 43.00415039 24.88110352 C41.79804781 31.28058719 40.455496 37.62305653 38.88574219 43.94165039 C38.72614014 44.58555725 38.56653809 45.22946411 38.40209961 45.8928833 C37.62614324 49.00289054 36.82945713 52.10594457 36.00830078 55.2043457 C32.79095596 67.777508 32.75758895 77.50783309 38.83496094 89.14868164 C42.79059334 95.39803144 49.24911534 98.96279385 55.77246094 102.11352539 C54.22969019 105.78076732 51.98105649 108.10289048 49.20996094 110.92602539 C21.5842309 140.41059832 26.43889311 177.79402742 25.77246094 217.11352539 C80.55246094 217.11352539 135.33246094 217.11352539 191.77246094 217.11352539 C191.77246094 233.61352539 191.77246094 250.11352539 191.77246094 267.11352539 C165.25102111 267.24908714 138.72986279 267.35956296 112.20816422 267.42439842 C99.89304429 267.45530589 87.57815528 267.49742728 75.26318359 267.56616211 C64.52654701 267.62605893 53.79007771 267.66469712 43.05327868 267.67805636 C37.37077034 267.68586262 31.68874045 267.70414477 26.0063858 267.74790573 C20.65142971 267.78880892 15.29714651 267.8011586 9.94204903 267.79217148 C7.98295744 267.7938142 6.02384199 267.80564304 4.06488609 267.82875824 C-9.04845751 267.97582609 -19.00987085 266.87792799 -29.22753906 257.73852539 C-34.93269644 251.46285227 -37.36800925 244.64568194 -37.32519531 236.25415039 C-37.32197266 235.13911133 -37.31875 234.02407227 -37.31542969 232.87524414 C-37.30705078 231.71637695 -37.29867187 230.55750977 -37.29003906 229.36352539 C-37.28552734 228.18918945 -37.28101563 227.01485352 -37.27636719 225.80493164 C-37.26459013 222.90777444 -37.24665494 220.01064346 -37.22753906 217.11352539 C-32.93753906 217.11352539 -28.64753906 217.11352539 -24.22753906 217.11352539 C-24.23030444 216.10046074 -24.23306982 215.08739609 -24.235919 214.04363251 C-24.30252917 189.38912144 -24.35182183 164.73462204 -24.38297558 140.08003998 C-24.39844188 128.15724997 -24.41952697 116.23451942 -24.45385742 104.31176758 C-24.48376691 93.9194308 -24.50311578 83.52713709 -24.50980455 73.13475847 C-24.51371415 67.63250427 -24.52289753 62.13037327 -24.54472923 56.62815857 C-24.56511876 51.44735079 -24.57136783 46.26671675 -24.56686211 41.08587265 C-24.5676862 39.18640575 -24.57363709 37.28693292 -24.58515549 35.38750076 C-24.60013823 32.78892447 -24.59647171 30.1909994 -24.58830261 27.59240723 C-24.59704114 26.8453022 -24.60577966 26.09819716 -24.61478299 25.32845259 C-24.54932268 17.59526402 -22.09563919 11.31041362 -16.84082031 5.58618164 C-11.95627908 1.12741155 -6.38136572 -0.01548875 0 0 Z " fill="#FEFEFE" transform="translate(37.2275390625,61.886474609375)"/>
<path d="M0 0 C3.08780802 1.474055 4.87326145 2.6601863 7.06640625 5.3203125 C7.96248259 9.00164525 7.86614756 12.72359211 7.90185547 16.49267578 C7.96422371 22.72313546 8.41466408 28.03981033 12.06640625 33.3203125 C16.9378154 38.08368637 21.39284278 40.44894761 28.25390625 40.6328125 C34.47035968 40.55890486 39.00933999 39.16681552 43.59765625 34.89453125 C49.7066769 28.02188302 49.38887796 21.32873061 49.19335938 12.625 C49.29207812 6.32580402 49.29207812 6.32580402 51.43212891 3.546875 C54.53679729 1.03468734 56.49068136 0.32942001 60.5234375 0.265625 C64.61186405 1.48268693 68.06753332 3.07384102 71.75390625 5.1953125 C72.44871094 5.59169922 73.14351562 5.98808594 73.859375 6.39648438 C80.81209584 10.51827201 86.44535177 15.55620723 92.06640625 21.3203125 C92.80375 22.04863281 93.54109375 22.77695312 94.30078125 23.52734375 C120.90619639 51.31865917 116.06640625 90.23503714 116.06640625 126.3203125 C58.31640625 126.3203125 0.56640625 126.3203125 -58.93359375 126.3203125 C-58.93359375 46.30559922 -58.93359375 46.30559922 -32.05859375 18.1328125 C-26.57661681 12.85191194 -8.14090064 -2.86164992 0 0 Z " fill="#913EFE" transform="translate(334.93359375,331.6796875)"/>
<path d="M0 0 C98.01 0 196.02 0 297 0 C297 30.87206823 297 30.87206823 287 41 C278.37011189 47.43318931 270.5464435 49.30299931 260.00701904 49.26742554 C259.01649607 49.27195665 258.0259731 49.27648776 257.00543427 49.28115618 C253.69465582 49.29379103 250.38404205 49.29218038 247.07324219 49.29052734 C244.695997 49.29651318 242.31875375 49.30331885 239.94151306 49.31088257 C234.15886023 49.32671084 228.37625715 49.33299075 222.59358373 49.33410732 C217.8903684 49.3350593 213.18716647 49.33917707 208.48395538 49.34550858 C195.13400851 49.3631132 181.78409373 49.37234874 168.43413517 49.37084763 C167.71514302 49.37076772 166.99615088 49.3706878 166.25537109 49.37060547 C165.53549563 49.37052371 164.81562017 49.37044195 164.07393029 49.37035771 C152.41290399 49.36954517 140.75200697 49.38867667 129.09101805 49.4168822 C117.10243257 49.44565006 105.11391006 49.45942033 93.1252892 49.45769465 C86.40069825 49.45703206 79.6762428 49.46246647 72.95168304 49.48405075 C66.62492406 49.50344508 60.29845078 49.50354907 53.97168159 49.48901749 C51.65420933 49.48692977 49.33671913 49.49162799 47.01927757 49.5037384 C43.8461572 49.51924179 40.67401578 49.50984844 37.50091553 49.49447632 C36.59223119 49.50476344 35.68354684 49.51505057 34.74732661 49.52564943 C24.15942486 49.41294389 15.76539011 45.81108207 8.16796875 38.515625 C-2.03438129 26.67722244 0 16.1920348 0 0 Z " fill="#AFBDC5" transform="translate(215,458)"/>
<path d="M0 0 C1.30797043 -0.00525696 2.61594086 -0.01051392 3.96354675 -0.01593018 C7.5400119 -0.02957145 11.11621655 -0.02431847 14.69268608 -0.01479292 C18.44149332 -0.00717971 22.19027876 -0.01424654 25.93908691 -0.01895142 C32.23368317 -0.02440414 38.52817371 -0.01723008 44.82275391 -0.00292969 C52.09258639 0.01339596 59.36216644 0.00810711 66.63199282 -0.0084089 C72.8818593 -0.02203758 79.13164993 -0.0239367 85.38152647 -0.0160929 C89.11074172 -0.01142395 92.83983845 -0.01077001 96.56904602 -0.02070236 C100.72717152 -0.03100418 104.88486411 -0.01671214 109.04296875 0 C110.88999641 -0.00910904 110.88999641 -0.00910904 112.77433777 -0.0184021 C120.01136987 0.03551435 124.97738837 0.41263688 130.36328125 5.67724609 C133.50483122 10.98933628 132.59283241 17.80091831 132.55273438 23.76318359 C132.55543222 25.17513292 132.55931708 26.58708043 132.56433105 27.99902344 C132.57021248 30.95118992 132.56170783 33.90287068 132.54296875 36.85498047 C132.52017899 40.62790595 132.53330951 44.39969313 132.55725861 48.1725769 C132.57175392 51.08610519 132.56709374 53.99936623 132.55674744 56.91290283 C132.55409041 58.30348853 132.55731374 59.69409897 132.56666565 61.08465576 C132.63061809 73.26524994 132.63061809 73.26524994 130.36328125 77.09912109 C125.59750056 81.75758229 121.19954369 82.76302877 114.65628052 82.74894714 C113.93653231 82.75151042 113.21678409 82.75407369 112.47522533 82.75671464 C110.07521174 82.76163693 107.67583406 82.74518594 105.27587891 82.72875977 C103.55087804 82.72791315 101.82587609 82.7283893 100.10087585 82.73008728 C95.42566541 82.73094733 90.7506863 82.71331995 86.07552958 82.69236541 C81.18682944 82.67360028 76.2981239 82.67184829 71.40939331 82.66828918 C62.15534978 82.65896825 52.90141268 82.63435377 43.647416 82.60424072 C33.11061205 82.57069826 22.57380299 82.55421108 12.03695893 82.53915441 C-9.6349253 82.50780429 -31.30671376 82.4550428 -52.97851562 82.38818359 C-52.02039437 81.09883401 -51.0606449 79.81069424 -50.10020447 78.52307129 C-49.56591796 77.80560982 -49.03163145 77.08814835 -48.48115444 76.34894562 C-46.8962764 74.28087135 -45.2278304 72.42033244 -43.35742188 70.60693359 C-42.73496582 69.9960791 -42.11250977 69.38522461 -41.47119141 68.75585938 C-40.8342334 68.13952637 -40.19727539 67.52319336 -39.54101562 66.88818359 C-34.45889746 61.89537773 -29.54629523 56.86304 -24.97851562 51.38818359 C-24.64851563 51.05818359 -24.31851562 50.72818359 -23.97851562 50.38818359 C-23.86757392 47.43018377 -23.81685113 44.49161696 -23.80273438 41.53271484 C-23.77952533 39.6948129 -23.75540756 37.85692225 -23.73046875 36.01904297 C-23.69541631 33.11361262 -23.66605228 30.20859409 -23.65258789 27.30297852 C-23.63706876 24.50404437 -23.59682044 21.7063261 -23.55273438 18.90771484 C-23.55464279 18.04499466 -23.55655121 17.18227448 -23.55851746 16.29341125 C-23.44943449 10.88805883 -22.74216624 7.55958594 -18.97851562 3.38818359 C-13.15311019 -0.69769714 -6.82499413 -0.03365902 0 0 Z " fill="#2ACC6F" transform="translate(379.978515625,13.61181640625)"/>
<path d="M0 0 C1.08318437 -0.00256327 1.08318437 -0.00256327 2.18825126 -0.00517833 C4.60816605 -0.00847282 7.02780362 0.00252968 9.44769287 0.01345825 C11.18225091 0.01402238 12.91680943 0.01370578 14.65136719 0.01257324 C19.36176564 0.01199877 24.0720625 0.02376837 28.78243732 0.03772116 C33.70452168 0.05021278 38.62660829 0.05139778 43.54870605 0.05377197 C52.87007793 0.05999135 62.19140296 0.07640838 71.5127542 0.09647095 C82.12448856 0.11881569 92.73622514 0.1298198 103.34797716 0.13986182 C125.17779137 0.1607742 147.00756339 0.19595909 168.83734131 0.24050903 C167.89424835 1.34447282 166.95062099 2.44798009 166.0067749 3.55130005 C165.48135101 4.16586563 164.95592712 4.78043121 164.4145813 5.41362 C158.42880074 12.34684319 152.18103324 19.06204187 145.59124756 25.42410278 C145.0124585 26.02351685 144.43366943 26.62293091 143.83734131 27.24050903 C143.15083496 27.91227173 142.46432861 28.58403442 141.75701904 29.27615356 C139.08990983 33.39468849 139.30477518 36.68219662 139.36859131 41.48660278 C139.36154175 42.37533585 139.35449219 43.26406891 139.347229 44.17973328 C139.31779832 47.96845591 139.33436036 51.75666101 139.34661865 55.54544067 C139.34900389 58.31780524 139.32805765 61.08934123 139.30609131 63.86160278 C139.32307068 65.13686073 139.32307068 65.13686073 139.34039307 66.43788147 C139.29479625 71.82454504 138.58791465 75.08122937 134.83734131 79.24050903 C129.01572973 83.32017288 122.69503391 82.66952782 115.87469482 82.64456177 C113.91514862 82.65485664 113.91514862 82.65485664 111.91601562 82.6653595 C108.34362925 82.68326248 104.77148889 82.68212799 101.19907117 82.67641711 C98.21204747 82.67332105 95.22507074 82.67942235 92.23805374 82.68545586 C85.18899702 82.69949011 78.14006152 82.69794904 71.09100342 82.68655396 C63.82909019 82.67507389 56.56754633 82.68914878 49.30568177 82.71595043 C43.06089069 82.73813178 36.81621536 82.74473935 30.57138771 82.73887402 C26.84600504 82.73550901 23.1208591 82.73788885 19.39550972 82.75512505 C15.23989724 82.77351382 11.08500003 82.75938219 6.92938232 82.74221802 C5.70162582 82.75188599 4.47386932 82.76155396 3.20890808 82.77151489 C-3.43251524 82.71406497 -7.881513 82.43918823 -13.16265869 78.24050903 C-16.20723737 74.50092462 -16.54703824 71.5527692 -16.58258057 66.80130005 C-16.59849243 65.51969498 -16.6144043 64.2380899 -16.63079834 62.91764832 C-16.63206564 61.5265712 -16.63224243 60.13549273 -16.63140869 58.74441528 C-16.63851503 57.30861617 -16.64621472 55.87281989 -16.65447998 54.43702698 C-16.66790594 51.43190613 -16.66950209 48.42704791 -16.66363525 45.42190552 C-16.65773941 41.58046064 -16.6883323 37.74027978 -16.72875214 33.89907932 C-16.7546653 30.93495455 -16.7575034 27.97113275 -16.75386047 25.00691032 C-16.75554825 23.59117391 -16.76515789 22.17542298 -16.78300476 20.75979805 C-16.92248684 8.32910298 -16.92248684 8.32910298 -13.87554932 4.45120239 C-9.11146782 0.56902475 -6.19715928 -0.00882786 0 0 Z " fill="#2ACC6F" transform="translate(16.16265869140625,404.7594909667969)"/>
<path d="M0 0 C16.17108156 13.18305186 24.4068967 28.2670432 27.92843628 48.5345459 C28.5635932 52.12179761 29.26248076 55.69619606 29.96386719 59.27099609 C30.10355927 59.98363617 30.24325134 60.69627625 30.38717651 61.43051147 C30.8199347 63.6315767 31.25504332 65.83216812 31.69042969 68.03271484 C31.84061554 68.79646423 31.99080139 69.56021362 32.14553833 70.34710693 C33.87602922 79.11854623 35.74486518 87.75724647 38.25292969 96.34521484 C41.25833602 106.91913559 42.71847769 119.21877285 37.77246094 129.44287109 C33.06972126 136.79326582 27.65350724 142.8018877 19.31542969 145.72021484 C14.6621898 145.41469909 11.42198511 143.03933859 7.69042969 140.47021484 C1.81495551 136.54464903 -4.12145871 133.3856418 -10.68457031 130.72021484 C-9.14846383 127.30752468 -7.1072448 124.60133932 -4.80957031 121.65771484 C4.82775963 108.57473336 4.57669798 94.73031949 4.66552734 79.16357422 C4.68207393 77.04171776 4.70934669 74.91991673 4.74755859 72.79833984 C4.80269178 69.71471699 4.82425513 66.63239101 4.83886719 63.54833984 C4.87287125 62.14470184 4.87287125 62.14470184 4.90756226 60.71270752 C4.88343715 53.0872975 2.78450371 46.5149536 -2.44033813 40.79962158 C-9.84527548 33.86263039 -17.35456076 33.2356008 -27.12207031 33.03271484 C-28.23517578 32.99855469 -29.34828125 32.96439453 -30.49511719 32.92919922 C-33.22483414 32.84719055 -35.95424892 32.77788647 -38.68457031 32.72021484 C-38.73718018 33.3935083 -38.78979004 34.06680176 -38.84399414 34.76049805 C-38.92157959 35.6508374 -38.99916504 36.54117676 -39.07910156 37.45849609 C-39.15233643 38.33803955 -39.22557129 39.21758301 -39.30102539 40.1237793 C-40.43217058 47.78114979 -45.57167498 54.5538718 -51.60253906 59.19677734 C-59.19275279 64.21776979 -67.39895432 65.89954287 -76.49462891 65.24755859 C-81.55803022 64.02827801 -86.14310205 61.20376446 -90.68457031 58.72021484 C-90.61513169 64.21584029 -90.52690097 69.71074513 -90.42211914 75.20581055 C-90.38910338 77.07063727 -90.36100078 78.93555832 -90.33813477 80.80053711 C-90.09696187 99.9558227 -87.50226159 114.52536574 -73.68457031 128.72021484 C-76.35282144 131.90675935 -79.58665449 133.23447631 -83.30957031 134.97021484 C-87.8976588 137.14348884 -91.7491349 139.37571103 -95.62207031 142.72021484 C-98.65214505 145.21722088 -99.28243251 145.69976716 -103.37207031 145.90771484 C-106.99788454 144.60789465 -109.62169364 143.05066449 -112.68457031 140.72021484 C-113.92207031 139.91583984 -113.92207031 139.91583984 -115.18457031 139.09521484 C-121.86967232 132.74436794 -125.64674956 124.26515868 -125.98144531 115.09521484 C-125.93139734 107.68384196 -124.00626662 100.72067337 -122.18157959 93.59136963 C-118.87100096 80.63849927 -116.02457546 67.71932153 -113.90960693 54.51843262 C-110.35258519 32.43450652 -103.3800513 13.49902713 -84.68457031 -0.27978516 C-59.27794459 -17.24080178 -24.96404225 -18.96543615 0 0 Z " fill="#343333" transform="translate(195.6845703125,18.27978515625)"/>
<path d="M0 0 C75.57 0 151.14 0 229 0 C229 16.5 229 33 229 50 C202.47856017 50.13556175 175.95740186 50.24603757 149.43570328 50.31087303 C137.12058335 50.3417805 124.80569435 50.38390189 112.49072266 50.45263672 C101.75408607 50.51253354 91.01761677 50.55117173 80.28081775 50.56453097 C74.5983094 50.57233723 68.91627952 50.59061938 63.23392487 50.63438034 C57.87896877 50.67528353 52.52468557 50.68763321 47.16958809 50.67864609 C45.21049651 50.68028881 43.25138105 50.69211765 41.29242516 50.71523285 C28.17908155 50.8623007 18.21766822 49.7644026 8 40.625 C-2.80289993 28.74181008 0 16.38184404 0 0 Z " fill="#B0BDC4" transform="translate(0,279)"/>
<path d="M0 0 C2.01183119 1.20862862 3.69267304 2.47243825 5.4296875 4.046875 C5.95304687 4.500625 6.47640625 4.954375 7.015625 5.421875 C8.4296875 6.734375 8.4296875 6.734375 10.4296875 9.046875 C10.4296875 9.706875 10.4296875 10.366875 10.4296875 11.046875 C11.2340625 10.716875 12.0384375 10.386875 12.8671875 10.046875 C20.10623164 8.01486261 26.166523 8.63303378 33.0625 11.640625 C38.19331845 14.68863596 42.15171034 19.53633978 44.4296875 25.046875 C44.5074221 27.37891312 44.51936478 29.71526559 44.4296875 32.046875 C45.00976562 32.13324219 45.58984375 32.21960938 46.1875 32.30859375 C51.63640679 33.28867764 55.78674786 34.66478819 59.4296875 39.046875 C63.9496225 45.79615463 66.10290848 51.83357902 65.4296875 60.046875 C64.2842368 63.46822119 62.91165811 66.7587527 61.4296875 70.046875 C62.33654297 70.42005859 62.33654297 70.42005859 63.26171875 70.80078125 C65.77412598 72.24484955 66.65547992 73.50823313 68.1171875 75.984375 C68.53355469 76.67402344 68.94992187 77.36367187 69.37890625 78.07421875 C72.36177742 83.67403265 72.16174678 90.1716621 71.00390625 96.30078125 C69.2925251 101.66590865 65.93732037 105.70250223 61.4296875 109.046875 C59.20703125 109.73828125 59.20703125 109.73828125 57.4296875 110.046875 C57.7596875 111.036875 58.0896875 112.026875 58.4296875 113.046875 C59.43008699 121.21407086 57.03212974 127.81269022 52.1796875 134.359375 C47.92567578 138.51670463 43.50686815 141.27227103 37.4296875 141.296875 C36.4396875 141.214375 35.4496875 141.131875 34.4296875 141.046875 C35.34168213 135.44462228 35.34168213 135.44462228 35.95378113 132.67819214 C36.44789342 129.9462133 36.57722437 127.40820345 36.60668945 124.63330078 C36.61952469 123.57515167 36.63235992 122.51700256 36.64558411 121.42678833 C36.65297104 120.29337006 36.66035797 119.15995178 36.66796875 117.9921875 C36.68007637 116.22982254 36.68007637 116.22982254 36.69242859 114.43185425 C36.70624242 111.94888779 36.71697661 109.46590255 36.72485352 106.98291016 C36.74209292 103.19266828 36.78600822 99.40329289 36.83007812 95.61328125 C36.84020346 93.19792306 36.84872006 90.78255748 36.85546875 88.3671875 C36.88173088 86.67313278 36.88173088 86.67313278 36.90852356 84.94485474 C36.89057778 78.41537031 36.40599447 74.31495672 32.4296875 69.046875 C28.4858554 66.10833344 25.92265868 64.94373377 21.0546875 64.671875 C15.46744747 64.31606109 11.75204407 61.38827121 7.4296875 58.046875 C4.2344998 59.456725 2.10739618 61.18002682 -0.3828125 63.609375 C-3.04469518 65.95143813 -4.68701674 67.09063909 -8.0703125 68.359375 C-13.08976442 67.91120965 -16.00945533 65.49161726 -19.5703125 62.046875 C-20.60011752 60.73642492 -21.60917384 59.40848811 -22.5703125 58.046875 C-25.72512295 58.67642238 -27.97361116 59.79209944 -30.6953125 61.484375 C-34.08241905 63.44298192 -36.89567811 64.44687524 -40.7578125 65.046875 C-45.80090093 65.89261033 -48.07525503 67.29608162 -51.5703125 71.046875 C-55.30880558 76.65322111 -54.99007465 82.01019292 -54.93359375 88.5078125 C-54.93409225 89.61234772 -54.93459076 90.71688293 -54.93510437 91.85488892 C-54.93276864 94.18648074 -54.92306979 96.51807531 -54.90649414 98.84960938 C-54.88294044 102.40257547 -54.88593282 105.95478832 -54.89257812 109.5078125 C-54.88699943 111.77865027 -54.87988836 114.0494849 -54.87109375 116.3203125 C-54.87200516 117.37576263 -54.87291656 118.43121277 -54.87385559 119.51864624 C-54.81792767 125.3924075 -54.18602629 130.40324378 -52.5703125 136.046875 C-52.4453125 139.046875 -52.4453125 139.046875 -52.5703125 141.046875 C-58.90205996 141.73761109 -62.36409706 140.65094097 -67.51953125 136.90234375 C-71.4973984 133.30332109 -73.88696881 129.09690607 -75.5703125 124.046875 C-75.64001302 121.65196514 -75.65479253 119.25519809 -75.6328125 116.859375 C-75.62378906 115.58707031 -75.61476563 114.31476563 -75.60546875 113.00390625 C-75.59386719 112.02808594 -75.58226562 111.05226563 -75.5703125 110.046875 C-76.69373047 109.66789062 -76.69373047 109.66789062 -77.83984375 109.28125 C-83.05223858 106.92485978 -86.48922167 102.20905666 -89.0078125 97.171875 C-90.28459795 90.07862249 -90.35878464 84.18756231 -86.796875 77.78125 C-85.5703125 76.046875 -85.5703125 76.046875 -82.7578125 73.484375 C-80.14773238 71.14249432 -80.14773238 71.14249432 -80.6953125 67.421875 C-81.2511951 65.27775641 -81.86986621 63.14821386 -82.5703125 61.046875 C-83.38532738 53.7651847 -82.37121439 47.36759486 -78.5703125 41.046875 C-74.97884342 36.99053936 -70.91653296 33.4216174 -65.5703125 32.046875 C-64.5803125 32.046875 -63.5903125 32.046875 -62.5703125 32.046875 C-62.56773437 31.49 -62.56515625 30.933125 -62.5625 30.359375 C-62.22828227 23.76414505 -60.2708471 19.68675754 -55.5703125 15.046875 C-49.37737877 10.2565635 -44.93081202 8.89960855 -37.1328125 9.359375 C-31.81856429 9.5512959 -31.81856429 9.5512959 -27.7578125 6.296875 C-27.0359375 5.224375 -26.3140625 4.151875 -25.5703125 3.046875 C-18.89384291 -2.55932084 -7.9101732 -2.93325572 0 0 Z " fill="#333333" transform="translate(372.5703125,172.953125)"/>
<path d="M0 0 C0.79339783 0.0028299 1.58679565 0.00565979 2.40423584 0.00857544 C4.93110417 0.01974471 7.45761432 0.04484306 9.984375 0.0703125 C11.7005157 0.08034652 13.41666198 0.08947163 15.1328125 0.09765625 C19.33347074 0.11967336 23.5338622 0.15418063 27.734375 0.1953125 C27.85989746 0.87368164 27.98541992 1.55205078 28.11474609 2.25097656 C28.28570801 3.14526367 28.45666992 4.03955078 28.6328125 4.9609375 C28.79958496 5.84555664 28.96635742 6.73017578 29.13818359 7.64160156 C30.19005836 12.14717491 31.73048196 15.92578962 35.73828125 18.46484375 C36.81916016 19.10486328 36.81916016 19.10486328 37.921875 19.7578125 C40.04296875 21.20703125 40.04296875 21.20703125 41.734375 23.1953125 C42.39934508 26.76355066 42.48573493 30.15097319 42.546875 33.77734375 C42.87561478 39.76999605 45.27264678 43.40875579 48.984375 47.9453125 C53.42368526 51.57747544 57.54709239 54.11988896 63.359375 54.3203125 C66.734375 55.1953125 66.734375 55.1953125 68.328125 57.296875 C69.35501281 59.07297177 70.34973391 60.86803087 71.3125 62.6796875 C72.58583543 64.93251172 73.73541788 66.44768957 75.609375 68.1953125 C76.310625 68.8553125 77.011875 69.5153125 77.734375 70.1953125 C77.734375 70.8553125 77.734375 71.5153125 77.734375 72.1953125 C76.71859375 72.66839844 75.7028125 73.14148438 74.65625 73.62890625 C51.67671421 84.56940719 34.82603247 100.95961227 26.00976562 125.18652344 C23.46207029 132.96679304 21.66133572 140.72374782 21.52905273 148.92529297 C21.4991349 150.57632523 21.4991349 150.57632523 21.46861267 152.26071167 C21.44354393 154.01884689 21.44354393 154.01884689 21.41796875 155.8125 C21.39718765 157.02479279 21.37640656 158.23708557 21.35499573 159.4861145 C21.28976518 163.3474578 21.23073849 167.20886741 21.171875 171.0703125 C21.12866459 173.69271511 21.0850495 176.31511109 21.04101562 178.9375 C20.93335176 185.35670393 20.83408073 191.77596031 20.734375 198.1953125 C8.854375 198.1953125 -3.025625 198.1953125 -15.265625 198.1953125 C-15.33331613 173.3783566 -15.38859174 148.5614753 -15.42106152 123.74445057 C-15.43653775 112.22177134 -15.45764177 100.6991535 -15.49194336 89.17651367 C-15.5218225 79.13469184 -15.5411945 69.09291446 -15.54789048 59.05104941 C-15.55180525 53.73277166 -15.56102129 48.41462108 -15.58281517 43.09638405 C-15.60315681 38.0920508 -15.60946348 33.08789728 -15.60494804 28.08352661 C-15.60577428 26.245689 -15.61175372 24.40784546 -15.62324142 22.57004356 C-15.63814925 20.06236871 -15.63458499 17.55537404 -15.62638855 15.04768372 C-15.63512707 14.3190768 -15.6438656 13.59046988 -15.65286893 12.83978397 C-15.61402375 8.4482089 -14.92444506 5.70900398 -12.265625 2.1953125 C-8.67510715 -0.59882807 -4.34293966 -0.05846331 0 0 Z " fill="#FEFEFE" transform="translate(255.265625,259.8046875)"/>
<path d="M0 0 C2.82119074 1.16678876 4.02114883 3.41093822 5.8984375 5.78515625 C9.1725097 8.54992833 10.96909236 9.73352596 15.2734375 9.97265625 C19.53854963 8.57546435 21.83051553 6.57239581 25.00390625 3.4765625 C26.88272405 1.79918496 28.60509314 0.79707538 30.8984375 -0.21484375 C31.44371094 0.20667969 31.98898437 0.62820312 32.55078125 1.0625 C36.48393475 3.91991921 39.51796938 6.08931297 44.4609375 6.34765625 C49.45765771 6.61845752 53.26606651 8.31612528 56.8984375 11.78515625 C61.45087807 18.0183502 61.47108447 23.32677663 61.39453125 30.89453125 C61.39598648 32.05712463 61.39744171 33.21971802 61.39894104 34.4175415 C61.39728511 36.87181102 61.38575837 39.32609124 61.36499023 41.78027344 C61.3361405 45.50892024 61.34436893 49.23613418 61.35742188 52.96484375 C61.35118041 55.35807974 61.3427863 57.75131128 61.33203125 60.14453125 C61.33496689 61.24698181 61.33790253 62.34943237 61.34092712 63.48529053 C61.25476333 70.67023587 60.13000097 76.9552727 57.8984375 83.78515625 C59.8784375 84.28015625 59.8784375 84.28015625 61.8984375 84.78515625 C60.75375 84.90503906 60.75375 84.90503906 59.5859375 85.02734375 C56.23323319 85.97272839 55.65519259 86.96559515 53.8984375 89.91015625 C53.38925781 90.72226562 52.88007813 91.534375 52.35546875 92.37109375 C51.47366031 93.83210612 50.59509592 95.29509259 49.72265625 96.76171875 C47.19865577 100.69950645 45.59816478 101.94723631 41.1484375 103.47265625 C38.63533498 104.49774364 38.63533498 104.49774364 36.8984375 106.78515625 C36.01749417 110.88836834 36.04950977 115.04297266 36.14746094 119.22338867 C36.26869001 126.34424984 34.85675992 131.3569437 30.15234375 136.80859375 C29.59417969 137.25460937 29.03601563 137.700625 28.4609375 138.16015625 C27.62755859 138.85238281 27.62755859 138.85238281 26.77734375 139.55859375 C21.0948197 143.26818325 15.50195571 143.52608396 8.8984375 142.78515625 C3.03221853 141.0440862 -0.67662961 137.87362797 -4.1015625 132.78515625 C-6.42569128 127.596274 -7.34872582 123.692231 -7.26196289 118.03686523 C-7.02371219 110.77752117 -7.02371219 110.77752117 -9.87890625 104.37890625 C-12.141351 102.6835935 -12.141351 102.6835935 -14.609375 101.28515625 C-19.99641194 98.04280173 -24.17926592 92.97561062 -26.6015625 87.22265625 C-26.7665625 86.41828125 -26.9315625 85.61390625 -27.1015625 84.78515625 C-29.4115625 84.78515625 -31.7215625 84.78515625 -34.1015625 84.78515625 C-34.1015625 84.45515625 -34.1015625 84.12515625 -34.1015625 83.78515625 C-32.4515625 83.78515625 -30.8015625 83.78515625 -29.1015625 83.78515625 C-29.41879272 82.82778564 -29.41879272 82.82778564 -29.74243164 81.85107422 C-32.85031113 70.83347266 -32.59015827 59.76450442 -32.54760742 48.39941406 C-32.53903077 44.89720106 -32.5680439 41.39658664 -32.59960938 37.89453125 C-32.60122013 35.65234423 -32.60064627 33.41015435 -32.59765625 31.16796875 C-32.60889023 30.12931671 -32.62012421 29.09066467 -32.63169861 28.02053833 C-32.55623222 20.1482958 -30.96911662 15.93946579 -25.6015625 10.03515625 C-21.90204902 7.14315079 -17.58259382 6.57453266 -13.078125 5.61328125 C-9.42266636 4.59627701 -6.81352441 2.96007455 -3.8203125 0.67578125 C-2.1015625 -0.21484375 -2.1015625 -0.21484375 0 0 Z " fill="#FDC2B2" transform="translate(349.1015625,230.21484375)"/>
<path d="M0 0 C3.79124747 -0.14714061 7.58174654 -0.23467827 11.375 -0.3125 C12.96634766 -0.3753418 12.96634766 -0.3753418 14.58984375 -0.43945312 C23.08142517 -0.5696921 29.80030071 1.10723486 36.14794922 6.9909668 C42.94468771 14.14655082 44.46088899 20.73522156 44.3984375 30.32421875 C44.40130768 31.3068721 44.40417786 32.28952545 44.40713501 33.30195618 C44.4091696 35.37538226 44.4036822 37.44882781 44.39111328 39.5222168 C44.37513774 42.66044217 44.39093835 45.79736274 44.41015625 48.93554688 C44.42846741 65.96339817 42.78674749 80.95821475 31.04296875 94.1796875 C28.73632605 96.23493702 26.35776073 97.38569483 23.625 98.8125 C20.92343968 100.57014166 19.28791243 101.79171175 18.5234375 105 C18.09166359 109.12274443 18.117438 113.23384107 18.109375 117.375 C18.07328536 123.77833251 16.67838938 129.04131405 12.3203125 133.85546875 C6.13832803 139.44048047 1.4309319 140.3985122 -6.8671875 140.25 C-12.02226538 139.83862221 -14.74072659 138.04939451 -18.625 134.8125 C-24.45895749 127.90386613 -25.38384296 122.24813118 -25.1875 113.375 C-25.08148201 106.54247405 -25.08148201 106.54247405 -27.80859375 100.546875 C-30.14415651 99.1132412 -32.48311975 98.07517214 -35 97 C-44.65238667 89.2170479 -49.98941804 78.06780631 -52 66 C-52.23826631 62.78466103 -52.23546521 59.59378983 -52.1953125 56.37109375 C-52.1924826 55.49598648 -52.18965271 54.62087921 -52.18673706 53.71925354 C-52.17565394 50.95852245 -52.15057257 48.19813095 -52.125 45.4375 C-52.11495482 43.55143702 -52.10583168 41.66536889 -52.09765625 39.77929688 C-52.07575368 35.18606957 -52.04130764 30.59309211 -52 26 C-49.22514575 27.07625039 -46.67327948 28.18073901 -44.0625 29.625 C-36.65994744 32.76987527 -27.52424692 31.83480347 -20.0625 29.375 C-12.23306254 26.08686621 -6.43525997 20.83943943 -3 13 C-1.77209579 8.70480092 -0.82303196 4.38950378 0 0 Z " fill="#FDC2B2" transform="translate(157,51)"/>
<path d="M0 0 C7.25909201 -0.07437594 14.51796021 -0.1287097 21.77734375 -0.16479492 C24.24483099 -0.17984452 26.71229165 -0.2002889 29.1796875 -0.22631836 C32.73444191 -0.26286926 36.28884139 -0.27976518 39.84375 -0.29296875 C41.48796936 -0.31619453 41.48796936 -0.31619453 43.16540527 -0.33988953 C51.05131792 -0.34160691 56.58997509 0.70479093 63.25 5.1875 C70.51811902 12.62080354 70.57365908 19.73389539 70.48583984 29.66455078 C70.48798896 31.03529217 70.49187148 32.40603177 70.49734497 33.77676392 C70.50699112 37.47923606 70.49179603 41.1812217 70.47143888 44.88363504 C70.45379673 48.76721497 70.45739432 52.65078148 70.4581604 56.53439331 C70.45629095 63.05247072 70.43897339 69.57036121 70.41162109 76.08837891 C70.3801477 83.61610361 70.36962604 91.14362398 70.3710922 98.67140973 C70.37244463 106.70063933 70.35855707 114.72979057 70.34019899 122.75899649 C70.33594378 125.06690489 70.33451767 127.37480059 70.33372116 129.68271255 C70.33170721 133.31238359 70.3194565 136.94188417 70.29938889 140.57149887 C70.29079313 142.53356937 70.29187908 144.49567484 70.29327393 146.45776367 C70.28474396 147.63243195 70.27621399 148.80710022 70.26742554 150.0173645 C70.26407385 151.03385134 70.26072216 152.05033817 70.25726891 153.09762764 C69.97219916 156.31363443 69.08652101 158.96996169 68 162 C67.44274774 167.44959932 67.70802172 171.98629752 70 177 C70.125 179.8125 70.125 179.8125 70 182 C69.071875 182.37125 69.071875 182.37125 68.125 182.75 C64.36153907 184.96380054 63.42798808 189.31576353 61.875 193.25 C61.52179688 194.14203125 61.16859375 195.0340625 60.8046875 195.953125 C60.40636719 196.96632813 60.40636719 196.96632813 60 198 C58.93040039 198.01981934 57.86080078 198.03963867 56.75878906 198.06005859 C52.78524488 198.1362098 48.81206234 198.22491242 44.83886719 198.31738281 C43.12018989 198.35563327 41.40143362 198.39049303 39.68261719 198.421875 C37.2099996 198.46761128 34.73792387 198.52559084 32.265625 198.5859375 C31.11540863 198.60326431 31.11540863 198.60326431 29.94195557 198.62094116 C24.62678161 198.7063907 24.62678161 198.7063907 20 201 C17.508359 204.66515847 17.71023519 208.46266554 17.7215271 212.7321167 C17.7157347 213.5154929 17.7099423 214.2988691 17.70397437 215.10598397 C17.68695774 217.73313249 17.68409644 220.3601055 17.68115234 222.98730469 C17.67185531 224.86964856 17.66168698 226.75198829 17.65071106 228.63432312 C17.62337162 233.74755077 17.60824995 238.86075081 17.59528303 243.9740324 C17.57966976 249.31656251 17.5528738 254.65903608 17.5272522 260.00152588 C17.48043245 270.1197133 17.4437038 280.23791131 17.41057932 290.35615182 C17.37238052 301.87480278 17.32296449 313.39339701 17.27259517 324.91200018 C17.16922778 348.60795809 17.079983 372.30395244 17 396 C13.04 396 9.08 396 5 396 C4.9763263 380.28581717 4.95874838 364.5716412 4.94818783 348.85744476 C4.94314285 341.55258047 4.93630401 334.24772793 4.92456055 326.94287109 C4.87682303 296.43535 4.90130045 265.92726781 5.26773262 235.42152405 C5.30132067 232.60085536 5.32843221 229.78024518 5.34971428 226.9594574 C5.37970874 223.06448994 5.43372683 219.17006498 5.49047852 215.27539062 C5.49667521 214.12922775 5.50287189 212.98306488 5.50925636 211.8021698 C5.6624157 203.49555322 6.89434973 197.10565027 13 191 C18.62676069 187.30654402 23.46378666 186.43609456 30.09375 186.609375 C31.34194519 186.61786469 31.34194519 186.61786469 32.61535645 186.62652588 C35.2441841 186.64871816 37.87159217 186.69887867 40.5 186.75 C42.29425099 186.77008732 44.08852359 186.78833416 45.8828125 186.8046875 C50.25574602 186.84852617 54.62763328 186.91743061 59 187 C58.93949264 165.31217265 58.86201196 143.62446521 58.76428509 121.93677235 C58.71930592 111.86695718 58.67989614 101.79717754 58.65356445 91.72729492 C58.63060156 82.95111153 58.59722268 74.17504038 58.55129844 65.39894599 C58.52734316 60.75140346 58.5086295 56.10397227 58.50238609 51.4563694 C58.49634566 47.0823093 58.47638361 42.70853416 58.44572449 38.33457947 C58.43692754 36.72898015 58.43322511 35.12334362 58.43499184 33.51772118 C58.43664267 31.32523024 58.41996288 29.13360994 58.39872742 26.9412384 C58.39411845 25.71433194 58.38950949 24.48742548 58.38476086 23.22334003 C57.96500473 19.70682656 57.09441469 17.82481326 55 15 C52.01010181 12.92666278 49.54296681 12.7548335 45.95605469 12.77294922 C44.95531921 12.77310028 43.95458374 12.77325134 42.92352295 12.77340698 C41.85047913 12.78372955 40.7774353 12.79405212 39.671875 12.8046875 C38.56773254 12.8075174 37.46359009 12.81034729 36.32598877 12.81326294 C32.8005488 12.82445511 29.27536315 12.84955825 25.75 12.875 C23.35937867 12.88503103 20.96875336 12.89415667 18.578125 12.90234375 C12.71865205 12.92439135 6.85936914 12.95891489 1 13 C0.67 8.71 0.34 4.42 0 0 Z " fill="#E6ECEE" transform="translate(223,62)"/>
<path d="M0 0 C1.04077698 0.00007553 2.08155396 0.00015106 3.15386963 0.00022888 C4.27066101 0.00539017 5.38745239 0.01055145 6.53808594 0.01586914 C8.26088776 0.01799156 8.26088776 0.01799156 10.01849365 0.02015686 C13.68650925 0.02575396 17.35446379 0.03830596 21.02246094 0.05102539 C23.50943922 0.05604076 25.99641846 0.06060361 28.48339844 0.06469727 C34.57977343 0.07572244 40.67611282 0.0924577 46.77246094 0.11352539 C46.63077957 1.55144055 46.48395051 2.98884909 46.33496094 4.42602539 C46.21314453 5.62678711 46.21314453 5.62678711 46.08886719 6.85180664 C45.77246094 9.11352539 45.77246094 9.11352539 44.77246094 12.11352539 C43.84950981 12.11899384 43.84950981 12.11899384 42.90791321 12.12457275 C36.49983034 12.16640517 30.09246322 12.23575615 23.68481445 12.32104492 C21.29393678 12.34925874 18.90296575 12.37047118 16.51196289 12.38452148 C13.07356969 12.40594449 9.63629934 12.45259406 6.19824219 12.50415039 C4.59641838 12.50599335 4.59641838 12.50599335 2.9622345 12.50787354 C-3.01021633 12.61084771 -3.01021633 12.61084771 -8.37915039 15.02661133 C-11.71918223 18.79765771 -11.37959019 22.04996507 -11.38575745 26.87088013 C-11.39069542 27.68113234 -11.3956334 28.49138456 -11.40072101 29.32618988 C-11.41614683 32.05624358 -11.42447035 34.78627368 -11.43286133 37.51635742 C-11.44243586 39.46736867 -11.45244569 41.41837782 -11.46286011 43.36938477 C-11.48996128 48.679001 -11.51094257 53.98862618 -11.53086209 59.29827356 C-11.55268956 64.84232886 -11.58009406 70.38635644 -11.60691833 75.9303894 C-11.65688912 86.43468356 -11.70181164 96.93899306 -11.7449407 107.44331729 C-11.79427565 119.39962365 -11.84920762 131.35590222 -11.90462029 143.31218171 C-12.01850765 167.91260369 -12.12533194 192.51305231 -12.22753906 217.11352539 C-16.18753906 217.11352539 -20.14753906 217.11352539 -24.22753906 217.11352539 C-24.29763219 191.43571761 -24.35052878 165.75792417 -24.38297558 140.08003998 C-24.39844188 128.15724997 -24.41952697 116.23451942 -24.45385742 104.31176758 C-24.48376691 93.9194308 -24.50311578 83.52713709 -24.50980455 73.13475847 C-24.51371415 67.63250427 -24.52289753 62.13037327 -24.54472923 56.62815857 C-24.56511876 51.44735079 -24.57136783 46.26671675 -24.56686211 41.08587265 C-24.5676862 39.18640575 -24.57363709 37.28693292 -24.58515549 35.38750076 C-24.60013823 32.78892447 -24.59647171 30.1909994 -24.58830261 27.59240723 C-24.59704114 26.8453022 -24.60577966 26.09819716 -24.61478299 25.32845259 C-24.54932268 17.59526402 -22.09563919 11.31041362 -16.84082031 5.58618164 C-11.95627908 1.12741155 -6.38136572 -0.01548875 0 0 Z " fill="#E6ECEF" transform="translate(37.2275390625,61.886474609375)"/>
<path d="M0 0 C5.81660061 -0.09944869 11.63269792 -0.1717413 17.44995117 -0.21972656 C19.4256249 -0.23974646 21.40124009 -0.26697092 23.37670898 -0.30175781 C26.2291515 -0.35070207 29.08080549 -0.37306525 31.93359375 -0.390625 C32.80584091 -0.41127014 33.67808807 -0.43191528 34.57676697 -0.45318604 C41.44965565 -0.45565745 47.72080442 0.96041338 52.88841248 5.75042725 C58.0315795 11.35172273 59.29987416 16.42263208 59.24050903 23.96626282 C59.24221788 24.7627441 59.24392673 25.55922538 59.24568737 26.37984246 C59.24897836 29.04539376 59.23798501 31.71069264 59.22705078 34.3762207 C59.22648658 36.2882639 59.2268034 38.20030752 59.22793579 40.11235046 C59.22850997 45.30200944 59.21674508 50.4915761 59.20278788 55.68121362 C59.19029139 61.10511321 59.18911087 66.52901487 59.18673706 71.95292664 C59.18051912 82.22341107 59.16410402 92.49385295 59.14403808 102.76431865 C59.12168889 114.45707196 59.11068811 126.1498273 59.10064721 137.84259665 C59.07973809 161.89508803 59.04455597 185.94754163 59 210 C55.04 210 51.08 210 47 210 C46.99945523 209.01509236 46.99891047 208.03018473 46.99834919 207.0154314 C46.98396094 183.06285414 46.9409741 159.11045876 46.86790943 135.15798664 C46.83323977 123.57478538 46.80790131 111.99170336 46.80444336 100.40844727 C46.80140622 90.31379004 46.7809494 80.21934508 46.73947543 70.12476987 C46.7181211 64.7785161 46.70555737 59.4325643 46.71384621 54.08626747 C46.72137085 49.05547517 46.70562806 44.02529552 46.67193985 38.99461555 C46.66368744 37.1471309 46.66397909 35.29958553 46.67340279 33.45210648 C46.68499164 30.93079063 46.66595928 28.41149371 46.63923645 25.89033508 C46.64990971 25.15783722 46.66058297 24.42533935 46.67157966 23.67064458 C46.595474 19.82665184 46.09094941 18.11683392 43.70206738 15.04806805 C40.09936673 12.31735298 36.98857841 12.27049867 32.63671875 12.29296875 C31.44874443 12.27028679 31.44874443 12.27028679 30.23677063 12.24714661 C27.72005597 12.2043362 25.20454218 12.19543868 22.6875 12.1875 C20.97587968 12.16435031 19.26428781 12.13898397 17.55273438 12.11132812 C13.36838375 12.0485423 9.18477996 12.01615501 5 12 C4.67 13.32 4.34 14.64 4 16 C3.87882812 15.26394531 3.75765625 14.52789062 3.6328125 13.76953125 C3.46523438 12.79371094 3.29765625 11.81789063 3.125 10.8125 C2.96257812 9.84957031 2.80015625 8.88664062 2.6328125 7.89453125 C2.01857735 5.08497417 1.09752021 2.65006215 0 0 Z " fill="#E6EDEF" transform="translate(440,248)"/>
<path d="M0 0 C2 1.375 2 1.375 3 3.375 C2.31035156 3.72691406 1.62070313 4.07882813 0.91015625 4.44140625 C-5.62102077 7.87273793 -11.34494367 11.65025792 -17 16.375 C-17.66644531 16.89578125 -18.33289063 17.4165625 -19.01953125 17.953125 C-34.40047209 30.4520355 -45.1258232 51.5759685 -47.78929138 71.13320923 C-48.27000649 76.24767817 -48.24554694 81.39419646 -48.31640625 86.52734375 C-48.33718735 87.78261368 -48.35796844 89.03788361 -48.37937927 90.33119202 C-48.43348743 93.64699117 -48.48379613 96.96280275 -48.53222656 100.27868652 C-48.5827194 103.67086878 -48.63825952 107.06296812 -48.69335938 110.45507812 C-48.8001979 117.0949877 -48.90155636 123.73496087 -49 130.375 C-52.96 130.375 -56.92 130.375 -61 130.375 C-61.09119515 122.95872975 -61.16422274 115.54277752 -61.20724869 108.12606049 C-61.22792272 104.6803415 -61.25585802 101.23503339 -61.30175781 97.78955078 C-61.70559454 66.639761 -56.3459471 42.90967788 -34.22265625 19.7734375 C-31.99041336 17.58910876 -31.99041336 17.58910876 -31 15.375 C-29.35516888 14.33947676 -27.6828728 13.34747977 -26 12.375 C-24.34490758 11.28959519 -22.68998754 10.2039126 -21.03881836 9.11254883 C-5.44087297 -1.1335152 -5.44087297 -1.1335152 0 0 Z " fill="#E0197D" transform="translate(124,148.625)"/>
<path d="M0 0 C0.50273437 0.40089844 1.00546875 0.80179687 1.5234375 1.21484375 C0.1883165 5.22020676 -2.33397703 6.17351218 -5.7890625 8.21484375 C-25.70579842 20.57889204 -38.40246223 39.03761671 -44.75 61.66796875 C-46.48638791 70.14452908 -46.65746463 78.72120032 -46.79296875 87.34765625 C-46.81374985 88.46550507 -46.83453094 89.58335388 -46.85594177 90.7350769 C-46.92078935 94.26994288 -46.98001785 97.80487657 -47.0390625 101.33984375 C-47.08230949 103.7513088 -47.12592564 106.16276726 -47.16992188 108.57421875 C-47.27640335 114.45435951 -47.37784902 120.33456767 -47.4765625 126.21484375 C-51.4365625 126.21484375 -55.3965625 126.21484375 -59.4765625 126.21484375 C-59.55129254 118.63836773 -59.60543726 111.06211117 -59.64135742 103.48535156 C-59.65634827 100.91337339 -59.67674778 98.34142035 -59.70288086 95.76953125 C-60.00656615 65.09136205 -54.42686323 40.90658255 -32.6015625 18.02734375 C-25.89529995 11.56706381 -18.31423983 6.94044447 -10.1015625 2.65234375 C-9.41126953 2.28109375 -8.72097656 1.90984375 -8.00976562 1.52734375 C-3.0531511 -0.96795484 -3.0531511 -0.96795484 0 0 Z " fill="#6E1BF2" transform="translate(335.4765625,331.78515625)"/>
<path d="M0 0 C1.0209375 0.433125 1.0209375 0.433125 2.0625 0.875 C16.0420987 6.22888887 29.04131519 4.65289494 43 0 C43.87335601 23.62913201 43.87335601 23.62913201 37.31640625 30.85546875 C31.1420804 36.44555732 26.4258158 37.39842064 18.1328125 37.25 C12.97773462 36.83862221 10.25927341 35.04939451 6.375 31.8125 C0.5105993 24.86781495 -0.57148933 18.96460644 -0.25 10 C-0.23195312 9.03449219 -0.21390625 8.06898438 -0.1953125 7.07421875 C-0.14859687 4.71507967 -0.08312137 2.35808925 0 0 Z " fill="#FFA999" transform="translate(132,154)"/>
<path d="M0 0 C0.11760715 3.16634636 0.18771024 6.33212074 0.25 9.5 C0.28351563 10.386875 0.31703125 11.27375 0.3515625 12.1875 C0.45718446 19.3697932 -1.01258173 24.53807011 -5.74609375 30.0234375 C-6.30425781 30.46945312 -6.86242187 30.91546875 -7.4375 31.375 C-7.99308594 31.83648437 -8.54867187 32.29796875 -9.12109375 32.7734375 C-14.8036178 36.483027 -20.39648179 36.74092771 -27 36 C-33.67140806 34.01995309 -37.59580317 30.02480358 -41.12060547 24.12402344 C-42.16411653 21.60360528 -42.22851098 19.73789998 -42.1953125 17.015625 C-42.18886719 16.08105469 -42.18242187 15.14648438 -42.17578125 14.18359375 C-42.15902344 13.21550781 -42.14226562 12.24742187 -42.125 11.25 C-42.11597656 10.26644531 -42.10695313 9.28289062 -42.09765625 8.26953125 C-42.07412785 5.84610593 -42.04125368 3.42317778 -42 1 C-41.35071533 1.23066162 -40.70143066 1.46132324 -40.0324707 1.69897461 C-24.39794313 7.03961854 -14.45006664 0 0 0 Z " fill="#FEA999" transform="translate(385,337)"/>
<path d="M0 0 C0.84417984 -0.00525696 1.68835968 -0.01051392 2.55812073 -0.01593018 C5.35208571 -0.02914761 8.14548222 -0.020386 10.93945312 -0.01025391 C12.87854115 -0.01227414 14.81762844 -0.01518516 16.75671387 -0.01895142 C20.82209502 -0.02337713 24.88727852 -0.01693574 28.95263672 -0.00292969 C34.16844158 0.01416231 39.38378336 0.00432245 44.59957123 -0.01364708 C48.60410055 -0.02447822 52.60851976 -0.02104165 56.61305237 -0.0132637 C58.53642328 -0.01125984 60.45980414 -0.01372747 62.38316345 -0.02070236 C65.06951449 -0.02830582 67.75511149 -0.01672835 70.44140625 0 C71.23942154 -0.00607269 72.03743683 -0.01214539 72.8596344 -0.0184021 C78.19492107 0.04327115 78.19492107 0.04327115 80.71081543 1.69369507 C82.45902857 4.62701837 82.13350031 7.08580612 81.72070312 10.38818359 C79.27275688 13.12407856 77.72069573 13.38818437 74.03967285 13.77586365 C72.53569758 13.79669996 71.03143792 13.8009826 69.52734375 13.79223633 C68.2925251 13.8025312 68.2925251 13.8025312 67.03276062 13.81303406 C64.31398226 13.83132262 61.59577974 13.82746208 58.87695312 13.82177734 C56.98652966 13.82633781 55.09610786 13.83164298 53.20568848 13.83766174 C49.24464175 13.84659662 45.2837966 13.84416502 41.32275391 13.83422852 C36.24485775 13.82273201 31.16765627 13.8429588 26.08985138 13.87214565 C22.18649878 13.89048355 18.28331345 13.89022013 14.37992859 13.88450813 C12.50761439 13.88435466 10.63528903 13.8904207 8.76301575 13.90279961 C6.14625321 13.91766434 3.53078432 13.90706689 0.9140625 13.88989258 C-0.24715874 13.90439453 -0.24715874 13.90439453 -1.43183899 13.91918945 C-4.93105775 13.87105576 -6.91541407 13.65763876 -9.76403809 11.54823303 C-11.80870603 8.63349407 -11.798399 6.87358357 -11.27929688 3.38818359 C-8.73218383 -0.79694204 -4.36616095 -0.03322537 0 0 Z " fill="#FCFEFD" transform="translate(42.279296875,438.61181640625)"/>
<path d="M0 0 C1.24922997 -0.00788544 1.24922997 -0.00788544 2.5236969 -0.01593018 C5.28039228 -0.02914832 8.03651149 -0.02038497 10.79321289 -0.01025391 C12.70748506 -0.01227431 14.62175647 -0.01518547 16.536026 -0.01895142 C20.55013346 -0.02337738 24.56404078 -0.01693564 28.578125 -0.00292969 C33.72433144 0.01415079 38.87006814 0.00432993 44.01625729 -0.01364708 C47.97021524 -0.02448738 51.92406184 -0.02103723 55.87802315 -0.0132637 C57.77544777 -0.01126178 59.6728825 -0.01372069 61.57029533 -0.02070236 C64.22291715 -0.02831958 66.87477857 -0.01670847 69.52734375 0 C70.31241302 -0.00607269 71.0974823 -0.01214539 71.90634155 -0.0184021 C75.12609009 0.01917807 77.45558058 0.18726994 80.31593323 1.72885132 C81.82836914 3.38818359 81.82836914 3.38818359 82.32836914 6.32568359 C81.70179142 10.16347215 80.94006873 11.08658524 77.82836914 13.38818359 C74.93333989 13.77763936 72.42045368 13.92552064 69.52734375 13.88989258 C68.69277145 13.89529556 67.85819916 13.90069855 66.99833679 13.90626526 C64.24210048 13.91876398 61.4869063 13.90225567 58.73071289 13.88427734 C56.81547491 13.88443229 54.9002366 13.88592056 52.98500061 13.88868713 C48.97260668 13.89007159 44.96057001 13.87750412 40.94824219 13.85473633 C35.80082433 13.82633243 30.6539993 13.8290936 25.50653744 13.84182644 C21.55260641 13.84877497 17.59881285 13.84100411 13.64489937 13.82856941 C11.74665415 13.82404822 9.84839421 13.82372392 7.95014763 13.82763481 C5.29978956 13.83053944 2.65025421 13.81407701 0 13.79223633 C-1.18064026 13.7989888 -1.18064026 13.7989888 -2.38513184 13.80587769 C-7.64607076 13.73370246 -7.64607076 13.73370246 -10.15892029 12.0816803 C-11.88933662 9.1880062 -11.52148376 6.65347732 -11.17163086 3.38818359 C-8.67679683 -0.78622492 -4.33046588 -0.03341101 0 0 Z " fill="#FEFEFE" transform="translate(399.171630859375,48.61181640625)"/>
<path d="M0 0 C1.09570312 0.00902344 2.19140625 0.01804687 3.3203125 0.02734375 C4.16335937 0.03894531 5.00640625 0.05054688 5.875 0.0625 C5.45347656 0.54460937 5.03195313 1.02671875 4.59765625 1.5234375 C4.04980469 2.15507812 3.50195312 2.78671875 2.9375 3.4375 C2.39222656 4.06398438 1.84695313 4.69046875 1.28515625 5.3359375 C-1.32490852 8.53164007 -1.25997108 10.72822611 -1.28613281 14.79394531 C-1.29574036 15.99569397 -1.3053479 17.19744263 -1.31524658 18.43560791 C-1.3216214 20.39334137 -1.3216214 20.39334137 -1.328125 22.390625 C-1.33387807 23.74102785 -1.33963578 25.09143068 -1.34539795 26.4418335 C-1.3559097 29.27649313 -1.36175063 32.1111244 -1.36523438 34.94580078 C-1.37070734 38.56839895 -1.39470841 42.19061901 -1.42320633 45.81309891 C-1.44188641 48.60474722 -1.44704123 51.39630565 -1.44857025 54.18801117 C-1.45304995 56.16992041 -1.47167441 58.15178144 -1.49053955 60.13360596 C-1.48753845 61.34796326 -1.48453735 62.56232056 -1.48144531 63.81347656 C-1.48509094 64.87777893 -1.48873657 65.9420813 -1.49249268 67.03863525 C-0.89245215 71.97598917 0.85777189 75.16355423 4.5625 78.4375 C5.325625 78.97375 6.08875 79.51 6.875 80.0625 C4.81367858 80.17114945 2.75068679 80.24838321 0.6875 80.3125 C-1.03533203 80.38210938 -1.03533203 80.38210938 -2.79296875 80.453125 C-6.81099772 79.98207823 -8.31342362 78.91902165 -11.125 76.0625 C-13.32124359 72.63686464 -13.393441 69.75981038 -13.43139648 65.73681641 C-13.44738388 64.4551358 -13.46337128 63.1734552 -13.47984314 61.85293579 C-13.48622005 60.45664875 -13.49161273 59.06035691 -13.49609375 57.6640625 C-13.50506493 56.22683622 -13.51418686 54.78961088 -13.52345276 53.35238647 C-13.53992781 50.34134658 -13.54764014 47.33041768 -13.55053711 44.31933594 C-13.55591985 40.47006933 -13.5935997 36.6218527 -13.63928127 32.77288246 C-13.66909479 29.80449661 -13.67626157 26.83636234 -13.67726326 23.86783981 C-13.68145706 22.44929571 -13.6938578 21.03075027 -13.71478081 19.61235428 C-13.88410985 7.14087398 -13.88410985 7.14087398 -10.71508789 3.20849609 C-6.85427182 0.00964858 -4.95839565 -0.05274889 0 0 Z " fill="#22AF4A" transform="translate(13.125,405.9375)"/>
<path d="M0 0 C8.92989844 -0.62422591 8.92989844 -0.62422591 13 1.75 C16.6345727 5.83889429 17.25305317 8.77775584 17.29052734 14.23388672 C17.3096669 16.1263765 17.3096669 16.1263765 17.32919312 18.05709839 C17.33225086 19.4312932 17.33447857 20.80549007 17.3359375 22.1796875 C17.34236782 23.59449396 17.34909636 25.00929909 17.35610962 26.42410278 C17.36807459 29.38807252 17.37179128 32.35192579 17.37060547 35.31591797 C17.37040236 39.10451118 17.39769849 42.89235357 17.43214989 46.68076897 C17.45444393 49.60282792 17.45844226 52.52470692 17.45738602 55.44684219 C17.45973845 56.84303499 17.46854187 58.23923301 17.48405075 59.63534164 C17.50375675 61.59257006 17.49533838 63.55001965 17.48583984 65.50732422 C17.48868988 66.61888885 17.49153992 67.73045349 17.49447632 68.8757019 C16.8777561 72.77238562 15.43584178 74.92946438 13 78 C9.68629 80.20914 8.6553979 80.22481553 4.8125 80.125 C3.91144531 80.10695313 3.01039063 80.08890625 2.08203125 80.0703125 C1.39496094 80.04710938 0.70789063 80.02390625 0 80 C0.42152344 79.52949219 0.84304688 79.05898437 1.27734375 78.57421875 C2.09912109 77.64029297 2.09912109 77.64029297 2.9375 76.6875 C3.48277344 76.07261719 4.02804687 75.45773438 4.58984375 74.82421875 C7.21482444 71.42846811 7.1385316 68.29312058 7.17700195 64.1550293 C7.18983719 62.95335617 7.20267242 61.75168304 7.21589661 60.51359558 C7.22328354 59.21360123 7.23067047 57.91360687 7.23828125 56.57421875 C7.24235678 55.91147257 7.2464323 55.24872639 7.25063133 54.56589699 C7.27147092 51.05768778 7.28578148 47.54951743 7.29516602 44.04125977 C7.30622397 40.42642467 7.34062168 36.81220624 7.38033772 33.19758892 C7.40654075 30.41023144 7.41486106 27.6230201 7.41844749 24.83555031 C7.42565798 22.85802557 7.45208039 20.88060089 7.47883606 18.90324402 C7.45911243 10.73803526 6.7969377 7.06814753 1.25 1.125 C0.8375 0.75375 0.425 0.3825 0 0 Z " fill="#22B04A" transform="translate(495,15)"/>
<path d="M0 0 C3.96 0 7.92 0 12 0 C12.03867187 2.06507813 12.03867187 2.06507813 12.078125 4.171875 C12.46238364 18.45565131 13.05252478 30.1110893 23.484375 40.87109375 C26.70078264 43.59305363 29.9799679 45.39770043 33.8359375 47.0625 C36 48 36 48 39 50 C27.40644201 50.85526247 19.32161953 49.6901717 9.84375 42.32421875 C4.10740431 37.03754422 0.21192741 30.13183371 -0.11352539 22.25097656 C-0.10828857 21.22456055 -0.10305176 20.19814453 -0.09765625 19.140625 C-0.09443359 18.02558594 -0.09121094 16.91054688 -0.08789062 15.76171875 C-0.07951172 14.60285156 -0.07113281 13.44398438 -0.0625 12.25 C-0.05798828 11.07566406 -0.05347656 9.90132813 -0.04882812 8.69140625 C-0.03705106 5.79424905 -0.01911588 2.89711807 0 0 Z " fill="#99AAB0" transform="translate(0,279)"/>
<path d="M0 0 C3.4375 1 3.4375 1 5.1340332 2.46386719 C7.16055659 6.40683872 6.80576043 10.21125624 6.73046875 14.578125 C6.72622391 15.5046991 6.72197906 16.43127319 6.71760559 17.38592529 C6.70083322 20.34091434 6.66318355 23.29521761 6.625 26.25 C6.6099513 28.25519847 6.59626322 30.26040765 6.58398438 32.265625 C6.55093438 37.17734696 6.49916182 42.08855726 6.4375 47 C1.8175 47 -2.8025 47 -7.5625 47 C-7.66139038 40.94943005 -7.73397918 34.89933065 -7.78222656 28.84814453 C-7.80233969 26.78979295 -7.82963397 24.73149848 -7.86425781 22.67333984 C-7.91278883 19.71437487 -7.93547166 16.75616539 -7.953125 13.796875 C-7.97377014 12.87694763 -7.99441528 11.95702026 -8.01568604 11.00921631 C-8.01791493 4.66028994 -8.01791493 4.66028994 -5.76074219 1.38769531 C-3.5625 0 -3.5625 0 0 0 Z " fill="#E1197D" transform="translate(201.5625,232)"/>
<path d="M0 0 C3.375 0.875 3.375 0.875 5.375 2.875 C5.61550903 4.78591919 5.61550903 4.78591919 5.60205078 7.14111328 C5.60182419 8.46225632 5.60182419 8.46225632 5.60159302 9.81008911 C5.59127045 10.76221283 5.58094788 11.71433655 5.5703125 12.6953125 C5.5674826 13.66910858 5.56465271 14.64290466 5.56173706 15.64620972 C5.55051913 18.76426349 5.5254117 21.88203268 5.5 25 C5.48997228 27.11067294 5.48084607 29.22135038 5.47265625 31.33203125 C5.45057453 36.51313091 5.41603374 41.69401717 5.375 46.875 C1.085 46.875 -3.205 46.875 -7.625 46.875 C-7.72389038 40.82443005 -7.79647918 34.77433065 -7.84472656 28.72314453 C-7.86483969 26.66479295 -7.89213397 24.60649848 -7.92675781 22.54833984 C-7.97528883 19.58937487 -7.99797166 16.63116539 -8.015625 13.671875 C-8.03627014 12.75194763 -8.05691528 11.83202026 -8.07818604 10.88421631 C-8.08041373 4.53870181 -8.08041373 4.53870181 -5.82714844 1.25488281 C-3.625 -0.125 -3.625 -0.125 0 0 Z " fill="#E0177C" transform="translate(106.625,232.125)"/>
<path d="M0 0 C3.375 0.9375 3.375 0.9375 5.375 3.9375 C5.61550903 5.89274597 5.61550903 5.89274597 5.60205078 8.13354492 C5.60182419 9.39451241 5.60182419 9.39451241 5.60159302 10.68095398 C5.59127045 11.58416885 5.58094788 12.48738373 5.5703125 13.41796875 C5.5674826 14.34595779 5.56465271 15.27394684 5.56173706 16.23005676 C5.55053836 19.19516879 5.52543435 22.15997921 5.5 25.125 C5.4899698 27.13476126 5.48084402 29.14452726 5.47265625 31.15429688 C5.45060004 36.08214753 5.41607229 41.00977262 5.375 45.9375 C1.085 45.9375 -3.205 45.9375 -7.625 45.9375 C-7.72390033 40.02934657 -7.79648371 34.12167528 -7.84472656 28.21289062 C-7.86483805 26.20303962 -7.89213115 24.19324709 -7.92675781 22.18359375 C-7.97529634 19.29412404 -7.99797322 16.40542809 -8.015625 13.515625 C-8.03627014 12.61757141 -8.05691528 11.71951782 -8.07818604 10.79425049 C-8.08041359 4.5967489 -8.08041359 4.5967489 -5.82714844 1.33496094 C-3.625 -0.0625 -3.625 -0.0625 0 0 Z " fill="#6D19F2" transform="translate(410.625,412.0625)"/>
<path d="M0 0 C3.46735671 0.69347134 4.41043025 1.62834351 6.5 4.5 C7.05953641 7.69519051 6.96499518 10.84305863 6.890625 14.078125 C6.88496521 15.0046991 6.87930542 15.93127319 6.87347412 16.88592529 C6.85110921 19.84114562 6.80091262 22.79514705 6.75 25.75 C6.72993515 27.7551908 6.71168435 29.76040064 6.6953125 31.765625 C6.651244 36.67755194 6.58221555 41.58856942 6.5 46.5 C2.21 46.5 -2.08 46.5 -6.5 46.5 C-6.59890033 40.59184657 -6.67148371 34.68417528 -6.71972656 28.77539062 C-6.73983805 26.76553962 -6.76713115 24.75574709 -6.80175781 22.74609375 C-6.85029634 19.85662404 -6.87297322 16.96792809 -6.890625 14.078125 C-6.91127014 13.18007141 -6.93191528 12.28201782 -6.95318604 11.35675049 C-6.95542558 5.12588283 -6.95542558 5.12588283 -4.63183594 1.93261719 C-2.5 0.5 -2.5 0.5 0 0 Z " fill="#6D19F2" transform="translate(317.5,411.5)"/>
<path d="M0 0 C3.3 0 6.6 0 10 0 C10.03738281 1.25554687 10.07476562 2.51109375 10.11328125 3.8046875 C10.60932657 17.48351294 11.43171748 29.72094221 21.8515625 39.7890625 C25.91224957 43.07320384 29.90589829 44.95201463 34.921875 46.359375 C37.09462885 47.0291713 38.99547951 47.93453415 41 49 C29.01345284 49.62994992 20.04903737 48.72836447 10.625 40.875 C5.18319951 35.64948729 0.24692962 28.33314884 -0.11352539 20.5480957 C-0.10828857 19.60023193 -0.10305176 18.65236816 -0.09765625 17.67578125 C-0.09443359 16.64775391 -0.09121094 15.61972656 -0.08789062 14.56054688 C-0.07951172 13.48869141 -0.07113281 12.41683594 -0.0625 11.3125 C-0.05798828 10.22904297 -0.05347656 9.14558594 -0.04882812 8.02929688 C-0.03703757 5.35284106 -0.01910208 2.67641361 0 0 Z " fill="#99AAB1" transform="translate(215,458)"/>
<path d="M0 0 C0.66 0.33 1.32 0.66 2 1 C-0.31 3.31 -2.62 5.62 -5 8 C-5.33 7.34 -5.66 6.68 -6 6 C-2.25 1.125 -2.25 1.125 0 0 Z " fill="#3CD581" transform="translate(364,15)"/>
</svg>
